%TF.GenerationSoftware,KiCad,Pcbnew,9.0.2*%
%TF.CreationDate,2026-02-16T21:11:57+01:00*%
%TF.ProjectId,Keymodule,4b65796d-6f64-4756-9c65-2e6b69636164,rev?*%
%TF.SameCoordinates,Original*%
%TF.FileFunction,Legend,Top*%
%TF.FilePolarity,Positive*%
%FSLAX46Y46*%
G04 Gerber Fmt 4.6, Leading zero omitted, Abs format (unit mm)*
G04 Created by KiCad (PCBNEW 9.0.2) date 2026-02-16 21:11:57*
%MOMM*%
%LPD*%
G01*
G04 APERTURE LIST*
%ADD10C,0.152400*%
%ADD11C,0.211137*%
%ADD12C,0.314854*%
%ADD13C,0.155000*%
%ADD14C,0.000000*%
%ADD15C,0.200000*%
%ADD16C,0.100000*%
%ADD17C,0.150000*%
%ADD18C,0.120000*%
G04 APERTURE END LIST*
D10*
X119000000Y-70000000D02*
X121900000Y-70000000D01*
X113000000Y-67300000D02*
X108800000Y-67300000D01*
X97600000Y-80200000D02*
X97600000Y-83900000D01*
X108894427Y-65600000D02*
X113000000Y-65600000D01*
X116500000Y-112700000D02*
X112600000Y-112700000D01*
X97600000Y-83900000D02*
X95900000Y-83900000D01*
D11*
X97363699Y-112992713D02*
X97394584Y-113126548D01*
X97410376Y-113216838D01*
X97423299Y-113318463D01*
X97431023Y-113428237D01*
X97431221Y-113542977D01*
X97427770Y-113601213D01*
X97421565Y-113659496D01*
X97412315Y-113717428D01*
X97399728Y-113774610D01*
X97383514Y-113830645D01*
X97363382Y-113885134D01*
X97339040Y-113937679D01*
X97310199Y-113987882D01*
X97276566Y-114035345D01*
X97237851Y-114079670D01*
X97193763Y-114120458D01*
X97144010Y-114157312D01*
X97088303Y-114189833D01*
X97026350Y-114217623D01*
X96957859Y-114240284D01*
X96882541Y-114257418D01*
X96805549Y-114268618D01*
X96732203Y-114273961D01*
X96662458Y-114273774D01*
X96596271Y-114268386D01*
X96533597Y-114258126D01*
X96474393Y-114243321D01*
X96418613Y-114224301D01*
X96366215Y-114201393D01*
X96317153Y-114174925D01*
X96271385Y-114145226D01*
X96228865Y-114112624D01*
X96189551Y-114077448D01*
X96153396Y-114040025D01*
X96120359Y-114000684D01*
X96090394Y-113959753D01*
X96063457Y-113917561D01*
X96039505Y-113874435D01*
X96018492Y-113830705D01*
X96000376Y-113786697D01*
X95985112Y-113742742D01*
X95972656Y-113699166D01*
X95962964Y-113656298D01*
X95955992Y-113614466D01*
X95951695Y-113573999D01*
X95950030Y-113535226D01*
X95950953Y-113498473D01*
X95954419Y-113464070D01*
X95960384Y-113432344D01*
X95968805Y-113403625D01*
X95979636Y-113378240D01*
X95992835Y-113356517D01*
X96008357Y-113338785D01*
X96008357Y-113342489D01*
X96027847Y-113326676D01*
X96052717Y-113310527D01*
X96117022Y-113277442D01*
X96198127Y-113243673D01*
X96292883Y-113209660D01*
X96398145Y-113175842D01*
X96510764Y-113142659D01*
X96745486Y-113079956D01*
X96971875Y-113025067D01*
X97164752Y-112981506D01*
X97349266Y-112942439D01*
X97363699Y-112992713D01*
G36*
X97363699Y-112992713D02*
G01*
X97394584Y-113126548D01*
X97410376Y-113216838D01*
X97423299Y-113318463D01*
X97431023Y-113428237D01*
X97431221Y-113542977D01*
X97427770Y-113601213D01*
X97421565Y-113659496D01*
X97412315Y-113717428D01*
X97399728Y-113774610D01*
X97383514Y-113830645D01*
X97363382Y-113885134D01*
X97339040Y-113937679D01*
X97310199Y-113987882D01*
X97276566Y-114035345D01*
X97237851Y-114079670D01*
X97193763Y-114120458D01*
X97144010Y-114157312D01*
X97088303Y-114189833D01*
X97026350Y-114217623D01*
X96957859Y-114240284D01*
X96882541Y-114257418D01*
X96805549Y-114268618D01*
X96732203Y-114273961D01*
X96662458Y-114273774D01*
X96596271Y-114268386D01*
X96533597Y-114258126D01*
X96474393Y-114243321D01*
X96418613Y-114224301D01*
X96366215Y-114201393D01*
X96317153Y-114174925D01*
X96271385Y-114145226D01*
X96228865Y-114112624D01*
X96189551Y-114077448D01*
X96153396Y-114040025D01*
X96120359Y-114000684D01*
X96090394Y-113959753D01*
X96063457Y-113917561D01*
X96039505Y-113874435D01*
X96018492Y-113830705D01*
X96000376Y-113786697D01*
X95985112Y-113742742D01*
X95972656Y-113699166D01*
X95962964Y-113656298D01*
X95955992Y-113614466D01*
X95951695Y-113573999D01*
X95950030Y-113535226D01*
X95950953Y-113498473D01*
X95954419Y-113464070D01*
X95960384Y-113432344D01*
X95968805Y-113403625D01*
X95979636Y-113378240D01*
X95992835Y-113356517D01*
X96008357Y-113338785D01*
X96008357Y-113342489D01*
X96027847Y-113326676D01*
X96052717Y-113310527D01*
X96117022Y-113277442D01*
X96198127Y-113243673D01*
X96292883Y-113209660D01*
X96398145Y-113175842D01*
X96510764Y-113142659D01*
X96745486Y-113079956D01*
X96971875Y-113025067D01*
X97164752Y-112981506D01*
X97349266Y-112942439D01*
X97363699Y-112992713D01*
G37*
D10*
X139800000Y-108600000D02*
X143800000Y-108600000D01*
X116500000Y-111000000D02*
X116500000Y-112700000D01*
X70600000Y-62200000D02*
X70600000Y-57500000D01*
X138700000Y-89600000D02*
X144400000Y-89600000D01*
X72300000Y-57600000D02*
X72300000Y-62200000D01*
X144400000Y-89600000D02*
X144400000Y-91300000D01*
D12*
X110287918Y-125847755D02*
X110238732Y-125841534D01*
X110178864Y-125834042D01*
X110106122Y-125825019D01*
X110017356Y-125814087D01*
X109907333Y-125800614D01*
X109764979Y-125783255D01*
X109613342Y-125764806D01*
X109460333Y-125746189D01*
X109308428Y-125727668D01*
X109233989Y-125718565D01*
X109161147Y-125709631D01*
X109090341Y-125700915D01*
X109022011Y-125692467D01*
X108956598Y-125684333D01*
X108894542Y-125676565D01*
X108836282Y-125669208D01*
X108808714Y-125665700D01*
X108782260Y-125662314D01*
X108756975Y-125659055D01*
X108732914Y-125655929D01*
X108710133Y-125652943D01*
X108688685Y-125650103D01*
X108668628Y-125647415D01*
X108650014Y-125644885D01*
X108632900Y-125642518D01*
X108617340Y-125640322D01*
X90192816Y-130285345D02*
X91133675Y-129525993D01*
D13*
X141900000Y-133650000D02*
X141400000Y-134150000D01*
D10*
X112500000Y-111000000D02*
X116500000Y-111000000D01*
D14*
G36*
X102801800Y-110234694D02*
G01*
X102801411Y-110234826D01*
X102798096Y-110234693D01*
X102801800Y-110234694D01*
G37*
D10*
X95900000Y-83900000D02*
X95900000Y-80100000D01*
X121900000Y-70000000D02*
X121900000Y-71700000D01*
D13*
X132950000Y-131700000D02*
X131450000Y-131700000D01*
D10*
X72300000Y-62200000D02*
X70600000Y-62200000D01*
D13*
X141900000Y-135150000D02*
X141900000Y-133650000D01*
D12*
X91134836Y-109643379D02*
X91133673Y-109645731D01*
X91133675Y-109642027D01*
X91134836Y-109643379D01*
D10*
X143800000Y-108600000D02*
X143800000Y-110300000D01*
D12*
X88925991Y-129096309D02*
X89096383Y-129866775D01*
D10*
X61150000Y-91300000D02*
X55450000Y-91300000D01*
D12*
X88400000Y-129000000D02*
X88925991Y-129096309D01*
D10*
X144400000Y-91300000D02*
X139900000Y-91300000D01*
X60200000Y-110300000D02*
X56200000Y-110300000D01*
D12*
X109717477Y-123006659D02*
X109739720Y-123017407D01*
X109764787Y-123029429D01*
X109793000Y-123042873D01*
X109824749Y-123057913D01*
X109860513Y-123074767D01*
X109900910Y-123093718D01*
X109946786Y-123115151D01*
X109999378Y-123139637D01*
X110060702Y-123168103D01*
X110134595Y-123202322D01*
X110230839Y-123246814D01*
X110279066Y-123269094D01*
X110359072Y-123306058D01*
X110439817Y-123343394D01*
X110520686Y-123380847D01*
X110560974Y-123399537D01*
X110601061Y-123418160D01*
X110640872Y-123436685D01*
X110680328Y-123455080D01*
X110719353Y-123473313D01*
X110757870Y-123491352D01*
X110795801Y-123509165D01*
X110833070Y-123526720D01*
X110869600Y-123543985D01*
X110905313Y-123560929D01*
X110940133Y-123577520D01*
X110973983Y-123593726D01*
X110990520Y-123601674D01*
X111006785Y-123609514D01*
X111022770Y-123617242D01*
X111038463Y-123624854D01*
X111053856Y-123632345D01*
X111068939Y-123639712D01*
X111083703Y-123646951D01*
X111098137Y-123654058D01*
X111112233Y-123661029D01*
X111125980Y-123667860D01*
X111139369Y-123674546D01*
X111152390Y-123681085D01*
X111165034Y-123687471D01*
X111177290Y-123693702D01*
X111189151Y-123699772D01*
X111200604Y-123705678D01*
X111211642Y-123711416D01*
X111222255Y-123716983D01*
X111232432Y-123722373D01*
X111242165Y-123727583D01*
X111251443Y-123732610D01*
X111260257Y-123737448D01*
X111268598Y-123742095D01*
X111276455Y-123746546D01*
X111283819Y-123750797D01*
X111287314Y-123752846D01*
X111290681Y-123754844D01*
X111293921Y-123756789D01*
X111297031Y-123758683D01*
X111300011Y-123760523D01*
X111302859Y-123762310D01*
X111139876Y-124999501D02*
X111136697Y-125003361D01*
X111133424Y-125007210D01*
X111130054Y-125011049D01*
X111126586Y-125014879D01*
X111123017Y-125018702D01*
X111119346Y-125022518D01*
X111115569Y-125026328D01*
X111111685Y-125030134D01*
X111107690Y-125033936D01*
X111103582Y-125037736D01*
X111099358Y-125041535D01*
X111095014Y-125045335D01*
X111090548Y-125049136D01*
X111085955Y-125052940D01*
X111081231Y-125056748D01*
X111076373Y-125060563D01*
X111071376Y-125064386D01*
X111066235Y-125068218D01*
X111060945Y-125072063D01*
X111055501Y-125075921D01*
X111049896Y-125079795D01*
X111044124Y-125083689D01*
X111038177Y-125087605D01*
X111032047Y-125091545D01*
X111025726Y-125095514D01*
X111019204Y-125099517D01*
X111012468Y-125103556D01*
X111005508Y-125107638D01*
X110998308Y-125111769D01*
X110990852Y-125115955D01*
X110983121Y-125120205D01*
X110975092Y-125124528D01*
X110966739Y-125128937D01*
X110958028Y-125133445D01*
X110948920Y-125138070D01*
X110939365Y-125142834D01*
X110929296Y-125147767D01*
X110918626Y-125152907D01*
X110907233Y-125158309D01*
X110894936Y-125164055D01*
X110881446Y-125170273D01*
X110866242Y-125177199D01*
X110848175Y-125185350D01*
X110827598Y-125194579D01*
X110810760Y-125202128D01*
X110793943Y-125209701D01*
X110777179Y-125217315D01*
X110768826Y-125221145D01*
X110760497Y-125224992D01*
X110752196Y-125228859D01*
X110743926Y-125232749D01*
X110735692Y-125236664D01*
X110727497Y-125240607D01*
X110719344Y-125244580D01*
X110711238Y-125248585D01*
X110703182Y-125252625D01*
X110695180Y-125256703D01*
X110687235Y-125260820D01*
X110679352Y-125264980D01*
X110671534Y-125269184D01*
X110663784Y-125273435D01*
X110659936Y-125275579D01*
X110656107Y-125277736D01*
X110652297Y-125279905D01*
X110648506Y-125282088D01*
X110644735Y-125284285D01*
X110640985Y-125286495D01*
X110637255Y-125288720D01*
X110633547Y-125290959D01*
X110629861Y-125293213D01*
X110626197Y-125295482D01*
X110622556Y-125297766D01*
X110618938Y-125300066D01*
X110615343Y-125302383D01*
X110611773Y-125304715D01*
X110608227Y-125307064D01*
X110604707Y-125309430D01*
X110601212Y-125311814D01*
X110597743Y-125314215D01*
X110594300Y-125316633D01*
X110590885Y-125319070D01*
X110587496Y-125321525D01*
X110584136Y-125324000D01*
X110580804Y-125326493D01*
X110577501Y-125329005D01*
X110574227Y-125331537D01*
X110570982Y-125334090D01*
X110567768Y-125336662D01*
X110564585Y-125339255D01*
X110561432Y-125341869D01*
X110558311Y-125344504D01*
X110555222Y-125347161D01*
X110552166Y-125349839D01*
X110549143Y-125352540D01*
X110546153Y-125355263D01*
X110543197Y-125358008D01*
X110540275Y-125360777D01*
X110537388Y-125363569D01*
X110534537Y-125366385D01*
X110531721Y-125369224D01*
X110528941Y-125372088D01*
X110526198Y-125374976D01*
X110523492Y-125377890D01*
X110520824Y-125380828D01*
X110518194Y-125383792D01*
X110515602Y-125386781D01*
X110513050Y-125389797D01*
X110510537Y-125392839D01*
X110508063Y-125395907D01*
X110505630Y-125399003D01*
X110503238Y-125402126D01*
X110500888Y-125405276D01*
X110498579Y-125408455D01*
X110496312Y-125411661D01*
X110494088Y-125414896D01*
X110491907Y-125418160D01*
X110489770Y-125421453D01*
X110487677Y-125424775D01*
X110485629Y-125428127D01*
X110483625Y-125431510D01*
X110481667Y-125434922D01*
X110479755Y-125438365D01*
X110477890Y-125441839D01*
X110476071Y-125445344D01*
X110474299Y-125448881D01*
X110472576Y-125452449D01*
X110470901Y-125456050D01*
X110469274Y-125459683D01*
X110467697Y-125463349D01*
X110466169Y-125467048D01*
X110464692Y-125470780D01*
X110463265Y-125474546D01*
X110461889Y-125478346D01*
X110460564Y-125482181D01*
X110459292Y-125486049D01*
X110458072Y-125489953D01*
X110456905Y-125493892D01*
X110455792Y-125497866D01*
X110454732Y-125501877D01*
X110453726Y-125505923D01*
X110452776Y-125510006D01*
X110451880Y-125514125D01*
X110451041Y-125518281D01*
X110450257Y-125522475D01*
X110449530Y-125526706D01*
X110448860Y-125530976D01*
X110448248Y-125535283D01*
X110447694Y-125539629D01*
X110447198Y-125544014D01*
X106157774Y-123154826D02*
X106152245Y-123188190D01*
X106145608Y-123228557D01*
X106136634Y-123283524D01*
X106131328Y-123316204D01*
X106125506Y-123352200D01*
X106119191Y-123391401D01*
X106112407Y-123433694D01*
X106105175Y-123478968D01*
X106097520Y-123527112D01*
X106089463Y-123578015D01*
X106081028Y-123631564D01*
X106072238Y-123687648D01*
X106063115Y-123746156D01*
X106053682Y-123806977D01*
X106043963Y-123869999D01*
X106033980Y-123935109D01*
X106023756Y-124002198D01*
X106013314Y-124071153D01*
X106002676Y-124141863D01*
X105991867Y-124214217D01*
X105986404Y-124250975D01*
X105980908Y-124288102D01*
X105975379Y-124325584D01*
X105969822Y-124363408D01*
X105964239Y-124401558D01*
X105958633Y-124440022D01*
X105953007Y-124478786D01*
X105947363Y-124517834D01*
X105941705Y-124557155D01*
X105936036Y-124596733D01*
X105930357Y-124636554D01*
X105924673Y-124676605D01*
X105918986Y-124716872D01*
X105913299Y-124757341D01*
X105907614Y-124797997D01*
X105901935Y-124838828D01*
X105896264Y-124879818D01*
X105890605Y-124920955D01*
X105884960Y-124962224D01*
X105879331Y-125003611D01*
X105873723Y-125045102D01*
X105868138Y-125086683D01*
X105862578Y-125128341D01*
X105857046Y-125170061D01*
X105851546Y-125211830D01*
X105846080Y-125253634D01*
X105840651Y-125295458D01*
X105835262Y-125337289D01*
X105829916Y-125379112D01*
X105824615Y-125420915D01*
X105819363Y-125462682D01*
X105814162Y-125504400D01*
X105809016Y-125546055D01*
X105803926Y-125587634D01*
X105798897Y-125629121D01*
X105793930Y-125670504D01*
X105789029Y-125711768D01*
X105784197Y-125752900D01*
X105779436Y-125793884D01*
X105774749Y-125834709D01*
X105770139Y-125875358D01*
X105765609Y-125915820D01*
X105761162Y-125956079D01*
X105756801Y-125996122D01*
X105752528Y-126035934D01*
X105748347Y-126075503D01*
X105744260Y-126114813D01*
X105740270Y-126153852D01*
X105736380Y-126192604D01*
X105732593Y-126231057D01*
X105728912Y-126269195D01*
X105725339Y-126307006D01*
X105723594Y-126325785D01*
X105721878Y-126344476D01*
X105720190Y-126363078D01*
X105718531Y-126381589D01*
X105716901Y-126400009D01*
X105715301Y-126418334D01*
X105713731Y-126436563D01*
X105712191Y-126454694D01*
X105710682Y-126472726D01*
X105709204Y-126490657D01*
X105707758Y-126508486D01*
X105706343Y-126526209D01*
X105704961Y-126543826D01*
X105703611Y-126561336D01*
X105702293Y-126578735D01*
X105701010Y-126596023D01*
X105699759Y-126613197D01*
X105698543Y-126630257D01*
X105697361Y-126647200D01*
X105696213Y-126664024D01*
X105695101Y-126680728D01*
X105694024Y-126697310D01*
X105692983Y-126713768D01*
X105691977Y-126730101D01*
X105691009Y-126746306D01*
X105690077Y-126762383D01*
X105689182Y-126778329D01*
X105688325Y-126794142D01*
X105687505Y-126809821D01*
X105686724Y-126825364D01*
X105685981Y-126840770D01*
X105685278Y-126856036D01*
X105684613Y-126871161D01*
X105683989Y-126886143D01*
X105683404Y-126900980D01*
X105682860Y-126915671D01*
X105682356Y-126930214D01*
X105681894Y-126944607D01*
X105681473Y-126958848D01*
X105681094Y-126972936D01*
X105680757Y-126986869D01*
X105680462Y-127000645D01*
X105680211Y-127014263D01*
X105680002Y-127027720D01*
X105679837Y-127041015D01*
X105679717Y-127054146D01*
X105679640Y-127067112D01*
X105679608Y-127079910D01*
X105679622Y-127092540D01*
X105679680Y-127104998D01*
X105679785Y-127117284D01*
X105679935Y-127129396D01*
X98797211Y-106652786D02*
X98787350Y-106664977D01*
X98781380Y-106674721D01*
X98775319Y-106687151D01*
X98769615Y-106702457D01*
X98764720Y-106720829D01*
X98761083Y-106742456D01*
X98759156Y-106767529D01*
X98759389Y-106796237D01*
X98762231Y-106828770D01*
X98768134Y-106865319D01*
X98777547Y-106906073D01*
X98790921Y-106951222D01*
X98808707Y-107000956D01*
X98828467Y-107047832D01*
X98847500Y-107085472D01*
X98865860Y-107115668D01*
X98883601Y-107140210D01*
X98949466Y-107217650D01*
X98964928Y-107240781D01*
X98980098Y-107269002D01*
X98995028Y-107304103D01*
X99009774Y-107347875D01*
X99024390Y-107402108D01*
X99038930Y-107468593D01*
X99053448Y-107549121D01*
X99067999Y-107645481D01*
X99081231Y-107753968D01*
X99091381Y-107869374D01*
X99097886Y-107991236D01*
X99100179Y-108119094D01*
X99097698Y-108252486D01*
X99089877Y-108390952D01*
X99076153Y-108534030D01*
X99055961Y-108681259D01*
X99028736Y-108832177D01*
X98993916Y-108986324D01*
X98950934Y-109143239D01*
X98899228Y-109302459D01*
X98838232Y-109463524D01*
X98767383Y-109625973D01*
X98686115Y-109789345D01*
X98593866Y-109953177D01*
X98492796Y-110112799D01*
X98385383Y-110264059D01*
X98271535Y-110407278D01*
X98151160Y-110542776D01*
X98024165Y-110670873D01*
X97890457Y-110791889D01*
X97749946Y-110906144D01*
X97602538Y-111013958D01*
X97448141Y-111115652D01*
X97286664Y-111211545D01*
X97118013Y-111301958D01*
X96942097Y-111387210D01*
X96758823Y-111467623D01*
X96568099Y-111543516D01*
X96369833Y-111615209D01*
X96163932Y-111683023D01*
X95958773Y-111743943D01*
X95760837Y-111794994D01*
X95569270Y-111836549D01*
X95383222Y-111868983D01*
X95201840Y-111892671D01*
X95024272Y-111907986D01*
X94849667Y-111915303D01*
X94677173Y-111914996D01*
X94505937Y-111907440D01*
X94335109Y-111893010D01*
X94163836Y-111872079D01*
X93991265Y-111845022D01*
X93816547Y-111812214D01*
X93638827Y-111774028D01*
X93270979Y-111683023D01*
X93176787Y-111654383D01*
X93083227Y-111618813D01*
X92990455Y-111576827D01*
X92898623Y-111528938D01*
X92807888Y-111475662D01*
X92718403Y-111417511D01*
X92630324Y-111355001D01*
X92543805Y-111288645D01*
X92459000Y-111218957D01*
X92376064Y-111146452D01*
X92216420Y-110995046D01*
X92066108Y-110838540D01*
X91926366Y-110681046D01*
X91798431Y-110526677D01*
X91683541Y-110379547D01*
X91582931Y-110243768D01*
X91497840Y-110123453D01*
X91379162Y-109945668D01*
X91337404Y-109879094D01*
X91134836Y-109643379D01*
X91296657Y-109316060D01*
X91383820Y-109360857D01*
X91478320Y-109407868D01*
X91593916Y-109463301D01*
X91720972Y-109521164D01*
X91849851Y-109575468D01*
X91911962Y-109599413D01*
X91970916Y-109620221D01*
X92025507Y-109637145D01*
X92074532Y-109649435D01*
X92418209Y-109737351D01*
X92686717Y-109804468D01*
X92998721Y-109874926D01*
X93338506Y-109939655D01*
X93513906Y-109967036D01*
X93690359Y-109989582D01*
X93865900Y-110006159D01*
X94038565Y-110015634D01*
X94206390Y-110016872D01*
X94367411Y-110008739D01*
X94445133Y-110001181D01*
X94521330Y-109991763D01*
X94595999Y-109980582D01*
X94669134Y-109967733D01*
X94740731Y-109953310D01*
X94810785Y-109937409D01*
X94946245Y-109901550D01*
X95075475Y-109860916D01*
X95198439Y-109816267D01*
X95315098Y-109768363D01*
X95425413Y-109717962D01*
X95529348Y-109665825D01*
X95626864Y-109612712D01*
X95717922Y-109559381D01*
X95802486Y-109506593D01*
X95880517Y-109455108D01*
X95951977Y-109405684D01*
X96075032Y-109316060D01*
X96137011Y-109266321D01*
X96211797Y-109200645D01*
X96391275Y-109031013D01*
X96596451Y-108826220D01*
X96810309Y-108605323D01*
X97015832Y-108387378D01*
X97196005Y-108191441D01*
X97333812Y-108036567D01*
X97412236Y-107941815D01*
X97441310Y-107906817D01*
X97484041Y-107861336D01*
X97601901Y-107745957D01*
X97748672Y-107609742D01*
X97907206Y-107466755D01*
X98190979Y-107216724D01*
X98316053Y-107108377D01*
X98427178Y-106649061D01*
X98801298Y-106649061D01*
X98797211Y-106652786D01*
D13*
X131450000Y-131700000D02*
X131950000Y-132200000D01*
D14*
G36*
X102836990Y-110236256D02*
G01*
X102931446Y-110241639D01*
X102989092Y-110246088D01*
X103048127Y-110251883D01*
X103104384Y-110259154D01*
X103130169Y-110263383D01*
X103153696Y-110268031D01*
X103175729Y-110273889D01*
X103197306Y-110281733D01*
X103218319Y-110291552D01*
X103238660Y-110303336D01*
X103258219Y-110317073D01*
X103276888Y-110332752D01*
X103294558Y-110350363D01*
X103311122Y-110369895D01*
X103326471Y-110391337D01*
X103340495Y-110414678D01*
X103353087Y-110439907D01*
X103364138Y-110467014D01*
X103373540Y-110495987D01*
X103381184Y-110526816D01*
X103386961Y-110559490D01*
X103390763Y-110593997D01*
X103392402Y-110628310D01*
X103391725Y-110660484D01*
X103390498Y-110675807D01*
X103388670Y-110690640D01*
X103386234Y-110704999D01*
X103383180Y-110718897D01*
X103379503Y-110732351D01*
X103375194Y-110745374D01*
X103370246Y-110757983D01*
X103364652Y-110770191D01*
X103358404Y-110782014D01*
X103351495Y-110793467D01*
X103343917Y-110804564D01*
X103335662Y-110815321D01*
X103326725Y-110825753D01*
X103317095Y-110835873D01*
X103306768Y-110845698D01*
X103295734Y-110855242D01*
X103283987Y-110864521D01*
X103271519Y-110873548D01*
X103244389Y-110890909D01*
X103214287Y-110907446D01*
X103181151Y-110923277D01*
X103144922Y-110938523D01*
X103105541Y-110953301D01*
X103085513Y-110960112D01*
X103066380Y-110965985D01*
X103048104Y-110970958D01*
X103030647Y-110975071D01*
X103013972Y-110978361D01*
X102998041Y-110980868D01*
X102982814Y-110982631D01*
X102968255Y-110983687D01*
X102954326Y-110984076D01*
X102940988Y-110983837D01*
X102928203Y-110983007D01*
X102915934Y-110981625D01*
X102904142Y-110979731D01*
X102892790Y-110977363D01*
X102881840Y-110974560D01*
X102871252Y-110971359D01*
X102860991Y-110967801D01*
X102851017Y-110963923D01*
X102831780Y-110955363D01*
X102813237Y-110945990D01*
X102795086Y-110936112D01*
X102758738Y-110916079D01*
X102739936Y-110906543D01*
X102720308Y-110897739D01*
X102710262Y-110893145D01*
X102700281Y-110887725D01*
X102690386Y-110881523D01*
X102680596Y-110874581D01*
X102661422Y-110858647D01*
X102642925Y-110840267D01*
X102625275Y-110819781D01*
X102608640Y-110797531D01*
X102593187Y-110773860D01*
X102579086Y-110749109D01*
X102566504Y-110723621D01*
X102555609Y-110697736D01*
X102546570Y-110671797D01*
X102539555Y-110646145D01*
X102534733Y-110621123D01*
X102532270Y-110597072D01*
X102531977Y-110585518D01*
X102532336Y-110574334D01*
X102533370Y-110563565D01*
X102535099Y-110553252D01*
X102544432Y-110511457D01*
X102550189Y-110489678D01*
X102556977Y-110467535D01*
X102565024Y-110445197D01*
X102574557Y-110422832D01*
X102585805Y-110400608D01*
X102592144Y-110389601D01*
X102598996Y-110378693D01*
X102606391Y-110367904D01*
X102614357Y-110357256D01*
X102622923Y-110346769D01*
X102632116Y-110336464D01*
X102641967Y-110326363D01*
X102652502Y-110316486D01*
X102663751Y-110306855D01*
X102675742Y-110297491D01*
X102688503Y-110288414D01*
X102702063Y-110279645D01*
X102716451Y-110271207D01*
X102731695Y-110263119D01*
X102747823Y-110255402D01*
X102764865Y-110248079D01*
X102782847Y-110241169D01*
X102801411Y-110234826D01*
X102836990Y-110236256D01*
G37*
D10*
X121900000Y-71700000D02*
X119100000Y-71700000D01*
X55450000Y-91300000D02*
X55450000Y-89600000D01*
X143800000Y-110300000D02*
X139900000Y-110300000D01*
X55450000Y-89600000D02*
X59950000Y-89600000D01*
D12*
X110447198Y-125544014D02*
X110446590Y-125554793D01*
X110446019Y-125566263D01*
X110445478Y-125578664D01*
X110444952Y-125592437D01*
X110444405Y-125608598D01*
X110443911Y-125624398D01*
X110443484Y-125638058D01*
X110443038Y-125651471D01*
X110442545Y-125664619D01*
X110442273Y-125671087D01*
X110441980Y-125677482D01*
X110441661Y-125683802D01*
X110441314Y-125690043D01*
X110440936Y-125696205D01*
X110440522Y-125702284D01*
X110440070Y-125708278D01*
X110439577Y-125714185D01*
X110439038Y-125720003D01*
X110438451Y-125725729D01*
X110437812Y-125731361D01*
X110437119Y-125736897D01*
X110436367Y-125742334D01*
X110435553Y-125747671D01*
X110435122Y-125750300D01*
X110434674Y-125752904D01*
X110434209Y-125755481D01*
X110433727Y-125758032D01*
X110433227Y-125760555D01*
X110432708Y-125763052D01*
X110432170Y-125765521D01*
X110431614Y-125767962D01*
X110431038Y-125770375D01*
X110430441Y-125772760D01*
X110429825Y-125775116D01*
X110429187Y-125777443D01*
X110428528Y-125779741D01*
X110427848Y-125782009D01*
X110427145Y-125784247D01*
X110426420Y-125786456D01*
X110425672Y-125788634D01*
X110424900Y-125790781D01*
X110424105Y-125792898D01*
X110423285Y-125794983D01*
X110422441Y-125797036D01*
X110421572Y-125799058D01*
X110420677Y-125801048D01*
X110419757Y-125803005D01*
X110418810Y-125804930D01*
X110417837Y-125806821D01*
X110416836Y-125808680D01*
X110415808Y-125810505D01*
X110414752Y-125812296D01*
X110413667Y-125814053D01*
X110412554Y-125815775D01*
X110411412Y-125817463D01*
X110410240Y-125819116D01*
X110409037Y-125820733D01*
X110407805Y-125822315D01*
X110406541Y-125823862D01*
X110405246Y-125825372D01*
X110403920Y-125826845D01*
X110402561Y-125828282D01*
X110401170Y-125829682D01*
X110399746Y-125831045D01*
X110398288Y-125832370D01*
X110396797Y-125833657D01*
X110395271Y-125834906D01*
X110393711Y-125836117D01*
X110392115Y-125837289D01*
X110390485Y-125838422D01*
X110388818Y-125839516D01*
X110387115Y-125840570D01*
X110385375Y-125841584D01*
X110383598Y-125842559D01*
X110381784Y-125843492D01*
X110379931Y-125844385D01*
X110378040Y-125845237D01*
X110376111Y-125846048D01*
X110374142Y-125846817D01*
X110372133Y-125847544D01*
X110370084Y-125848229D01*
X110367995Y-125848872D01*
X110365865Y-125849472D01*
X110363694Y-125850029D01*
X110361481Y-125850542D01*
X110359225Y-125851012D01*
X110356927Y-125851439D01*
X110354586Y-125851820D01*
X110352202Y-125852158D01*
X110349774Y-125852451D01*
X110347302Y-125852698D01*
X110344785Y-125852901D01*
X110342222Y-125853058D01*
X110339615Y-125853169D01*
X110336961Y-125853233D01*
X110334261Y-125853252D01*
X110331515Y-125853223D01*
X110328721Y-125853148D01*
X110325879Y-125853025D01*
X110322990Y-125852854D01*
X110320052Y-125852636D01*
X110317065Y-125852370D01*
X110314029Y-125852055D01*
X110310944Y-125851691D01*
X110307808Y-125851278D01*
X110304622Y-125850816D01*
X110301385Y-125850304D01*
X110298096Y-125849742D01*
X110294756Y-125849130D01*
X110291363Y-125848468D01*
X110287918Y-125847755D01*
X111302859Y-123762310D02*
X111328791Y-123821575D01*
D13*
X141900000Y-133650000D02*
X142400000Y-134150000D01*
D12*
X89807583Y-129755651D02*
X90192816Y-130285345D01*
D10*
X56200000Y-110300000D02*
X56200000Y-108600000D01*
X56200000Y-108600000D02*
X60100000Y-108600000D01*
D12*
X111102836Y-124577227D02*
X111103854Y-124582934D01*
X111104996Y-124588883D01*
X111106269Y-124595098D01*
X111107684Y-124601611D01*
X111109253Y-124608462D01*
X111110991Y-124615701D01*
X111112919Y-124623396D01*
X111115066Y-124631641D01*
X111117472Y-124640575D01*
X111120202Y-124650420D01*
X111123373Y-124661572D01*
X111127238Y-124674904D01*
X111131758Y-124690310D01*
X111137593Y-124710227D01*
X111140491Y-124720247D01*
X111143353Y-124730299D01*
X111146162Y-124740378D01*
X111147541Y-124745425D01*
X111148901Y-124750477D01*
X111150239Y-124755532D01*
X111151553Y-124760589D01*
X111152841Y-124765649D01*
X111154101Y-124770709D01*
X111155331Y-124775770D01*
X111156529Y-124780830D01*
X111157692Y-124785889D01*
X111158818Y-124790946D01*
X111159906Y-124796000D01*
X111160953Y-124801051D01*
X111161956Y-124806097D01*
X111162915Y-124811138D01*
X111163827Y-124816173D01*
X111164689Y-124821201D01*
X111165499Y-124826222D01*
X111166256Y-124831234D01*
X111166958Y-124836237D01*
X111167601Y-124841230D01*
X111168185Y-124846213D01*
X111168706Y-124851184D01*
X111169163Y-124856143D01*
X111169554Y-124861088D01*
X111169876Y-124866020D01*
X111170128Y-124870937D01*
X111170307Y-124875839D01*
X111170411Y-124880725D01*
X111170438Y-124885594D01*
X111170422Y-124888022D01*
X111170386Y-124890445D01*
X111170329Y-124892863D01*
X111170252Y-124895277D01*
X111170155Y-124897686D01*
X111170036Y-124900090D01*
X111169895Y-124902489D01*
X111169734Y-124904883D01*
X111169550Y-124907272D01*
X111169344Y-124909655D01*
X111169115Y-124912033D01*
X111168864Y-124914406D01*
X111168590Y-124916773D01*
X111168293Y-124919134D01*
X111167972Y-124921489D01*
X111167628Y-124923839D01*
X111167259Y-124926182D01*
X111166866Y-124928519D01*
X111166449Y-124930850D01*
X111166006Y-124933175D01*
X111165539Y-124935493D01*
X111165046Y-124937805D01*
X111164528Y-124940111D01*
X111163984Y-124942409D01*
X111163413Y-124944701D01*
X111162816Y-124946986D01*
X111162193Y-124949264D01*
X111161543Y-124951535D01*
X111160865Y-124953798D01*
X111160160Y-124956055D01*
X111159427Y-124958304D01*
X111158666Y-124960545D01*
X111157877Y-124962779D01*
X111157059Y-124965005D01*
X111156212Y-124967224D01*
X111155337Y-124969434D01*
X111154432Y-124971637D01*
X111153497Y-124973831D01*
X111152533Y-124976018D01*
X111151538Y-124978196D01*
X111150513Y-124980366D01*
X111149457Y-124982527D01*
X111148371Y-124984680D01*
X111147253Y-124986824D01*
X111146104Y-124988959D01*
X111144923Y-124991086D01*
X111143710Y-124993203D01*
X111142464Y-124995312D01*
X111141187Y-124997411D01*
X111139876Y-124999501D01*
D10*
X113000000Y-65600000D02*
X113000000Y-67300000D01*
D12*
X93682140Y-126792317D02*
X93686033Y-126798641D01*
X93690797Y-126806421D01*
X93697350Y-126817168D01*
X93705624Y-126830799D01*
X93715552Y-126847231D01*
X93727065Y-126866380D01*
X93740097Y-126888162D01*
X93754580Y-126912495D01*
X93770446Y-126939294D01*
X93778876Y-126953593D01*
X93787627Y-126968477D01*
X93796690Y-126983936D01*
X93806057Y-126999960D01*
X93815719Y-127016538D01*
X93825667Y-127033660D01*
X93835894Y-127051314D01*
X93846390Y-127069492D01*
X93857148Y-127088182D01*
X93868158Y-127107374D01*
X93879414Y-127127058D01*
X93890905Y-127147223D01*
X93902623Y-127167858D01*
X93914561Y-127188954D01*
X93926709Y-127210499D01*
X93939060Y-127232484D01*
X93951604Y-127254898D01*
X93964334Y-127277731D01*
X93977241Y-127300972D01*
X93990316Y-127324610D01*
X94003551Y-127348636D01*
X94016937Y-127373038D01*
X94030467Y-127397807D01*
X94044131Y-127422932D01*
X94057922Y-127448403D01*
X94071830Y-127474209D01*
X94085848Y-127500339D01*
X94099966Y-127526784D01*
X94114177Y-127553532D01*
X94128472Y-127580574D01*
X94142842Y-127607899D01*
X94157279Y-127635497D01*
X94171775Y-127663357D01*
X94186321Y-127691468D01*
X94200909Y-127719821D01*
X94215530Y-127748404D01*
X94230176Y-127777208D01*
X94237506Y-127791690D01*
X94244839Y-127806223D01*
X94252174Y-127820805D01*
X94259509Y-127835436D01*
X94266845Y-127850114D01*
X94274179Y-127864839D01*
X94281511Y-127879608D01*
X94288840Y-127894420D01*
X94296165Y-127909275D01*
X94303484Y-127924170D01*
X94310796Y-127939105D01*
X94318101Y-127954078D01*
X94325398Y-127969087D01*
X94332685Y-127984133D01*
X94339961Y-127999212D01*
X94347225Y-128014325D01*
X94354477Y-128029469D01*
X94361715Y-128044643D01*
X94368938Y-128059847D01*
X94376145Y-128075078D01*
X94383335Y-128090336D01*
X94390507Y-128105619D01*
X94397659Y-128120925D01*
X94404792Y-128136255D01*
X94411903Y-128151605D01*
X94418992Y-128166975D01*
X94426058Y-128182364D01*
X94433099Y-128197770D01*
X94440115Y-128213193D01*
X94447104Y-128228629D01*
X94454066Y-128244080D01*
X94460999Y-128259542D01*
X94467903Y-128275015D01*
X94474775Y-128290498D01*
X94481616Y-128305989D01*
X94488424Y-128321487D01*
X94495198Y-128336990D01*
X94501937Y-128352498D01*
X94508640Y-128368008D01*
X94515306Y-128383520D01*
X94521934Y-128399033D01*
X94528523Y-128414544D01*
X94535071Y-128430054D01*
X94541579Y-128445560D01*
X94548043Y-128461061D01*
X94554465Y-128476555D01*
X94560842Y-128492043D01*
X94567173Y-128507521D01*
X94573458Y-128522990D01*
X94579695Y-128538447D01*
X94585883Y-128553892D01*
X94592022Y-128569322D01*
X94598110Y-128584737D01*
X94604146Y-128600136D01*
X94610129Y-128615517D01*
X94616059Y-128630878D01*
X94621933Y-128646219D01*
X94627751Y-128661539D01*
X94633512Y-128676835D01*
X94639215Y-128692106D01*
X94644858Y-128707352D01*
X94650441Y-128722572D01*
X94655963Y-128737762D01*
X94661423Y-128752923D01*
X94666818Y-128768053D01*
X94672150Y-128783151D01*
X94677416Y-128798216D01*
X94682615Y-128813245D01*
X94687746Y-128828239D01*
X94692809Y-128843195D01*
X94697802Y-128858112D01*
X94702724Y-128872989D01*
X94707574Y-128887825D01*
X94712352Y-128902618D01*
X94717055Y-128917367D01*
X94721683Y-128932071D01*
X94726235Y-128946729D01*
X94730709Y-128961338D01*
X94735106Y-128975899D01*
X94739423Y-128990409D01*
X94743660Y-129004867D01*
X94747815Y-129019272D01*
X94751888Y-129033622D01*
X94755878Y-129047917D01*
X94759782Y-129062155D01*
X94763602Y-129076335D01*
X94767334Y-129090455D01*
X94770979Y-129104514D01*
X94774535Y-129118511D01*
X94778001Y-129132444D01*
X94781376Y-129146313D01*
X94784659Y-129160115D01*
X94787849Y-129173851D01*
X94790945Y-129187517D01*
X94793946Y-129201113D01*
X94796850Y-129214638D01*
X94798266Y-129221373D01*
X94799658Y-129228090D01*
X94801025Y-129234789D01*
X94802367Y-129241469D01*
X94803684Y-129248130D01*
X94804976Y-129254772D01*
X94806244Y-129261395D01*
X94807486Y-129267999D01*
X94808702Y-129274583D01*
X94809893Y-129281147D01*
X94811059Y-129287692D01*
X94812199Y-129294217D01*
X94813313Y-129300722D01*
X94814400Y-129307206D01*
X94815462Y-129313670D01*
X94816497Y-129320113D01*
X94817506Y-129326536D01*
X94818489Y-129332938D01*
X94819444Y-129339318D01*
X94820373Y-129345678D01*
X94821275Y-129352016D01*
X94822150Y-129358332D01*
X94822998Y-129364627D01*
X94823818Y-129370899D01*
X94824611Y-129377150D01*
X94825376Y-129383378D01*
X94826113Y-129389584D01*
X94826823Y-129395768D01*
X94827504Y-129401928D01*
X94828158Y-129408066D01*
X94828783Y-129414181D01*
X94829379Y-129420273D01*
X94829948Y-129426341D01*
X94830487Y-129432386D01*
X94830998Y-129438407D01*
X94831480Y-129444404D01*
X94831932Y-129450377D01*
X94832356Y-129456326D01*
X94832750Y-129462250D01*
X94833115Y-129468150D01*
X94833450Y-129474026D01*
X94833755Y-129479876D01*
X94834031Y-129485702D01*
X94834276Y-129491502D01*
X94834492Y-129497277D01*
X94834677Y-129503026D01*
X94834832Y-129508750D01*
X94834956Y-129514448D01*
X94835049Y-129520120D01*
X94835112Y-129525766D01*
X94835144Y-129531386D01*
X94835145Y-129536979D01*
X94835115Y-129542546D01*
X94835053Y-129548085D01*
X94834960Y-129553598D01*
X94834835Y-129559084D01*
X94834679Y-129564542D01*
X94834491Y-129569973D01*
X94834271Y-129575376D01*
X94834019Y-129580752D01*
X94833734Y-129586099D01*
X94833417Y-129591419D01*
X94833068Y-129596710D01*
X94832686Y-129601973D01*
X94832271Y-129607207D01*
X94831824Y-129612413D01*
X94831343Y-129617589D01*
X94830829Y-129622737D01*
X94830282Y-129627855D01*
X94829702Y-129632944D01*
X94829088Y-129638003D01*
X94828440Y-129643033D01*
X94827758Y-129648032D01*
X94827043Y-129653002D01*
X94826293Y-129657941D01*
X94825509Y-129662850D01*
X94824691Y-129667729D01*
X94823839Y-129672577D01*
X94822951Y-129677394D01*
X94822029Y-129682179D01*
X94821073Y-129686934D01*
X94820081Y-129691657D01*
X94819054Y-129696349D01*
X94817992Y-129701009D01*
X94816894Y-129705638D01*
X94815761Y-129710234D01*
X94814592Y-129714798D01*
X94813387Y-129719330D01*
X94812147Y-129723829D01*
X94810870Y-129728295D01*
X94809557Y-129732729D01*
X94808208Y-129737130D01*
D13*
X131450000Y-131700000D02*
X131950000Y-131200000D01*
D12*
X102684650Y-108687602D02*
X102805040Y-108693298D01*
X102915837Y-108703639D01*
X103017805Y-108717773D01*
X103111711Y-108734848D01*
X103198318Y-108754012D01*
X103352699Y-108795199D01*
X103487069Y-108834520D01*
X103560296Y-108857761D01*
X103651825Y-108891095D01*
X103759035Y-108934109D01*
X103879306Y-108986391D01*
X104010016Y-109047527D01*
X104148545Y-109117107D01*
X104292273Y-109194717D01*
X104438577Y-109279946D01*
X104584838Y-109372380D01*
X104728436Y-109471607D01*
X104866748Y-109577216D01*
X104997154Y-109688793D01*
X105117034Y-109805927D01*
X105172208Y-109866448D01*
X105223767Y-109928204D01*
X105271384Y-109991143D01*
X105314732Y-110055213D01*
X105353482Y-110120362D01*
X105387308Y-110186541D01*
X105602902Y-110658243D01*
X105806342Y-111118138D01*
X106017016Y-111605236D01*
X106366018Y-111938322D01*
X106732340Y-112306691D01*
X106943059Y-112527336D01*
X107164382Y-112766956D01*
X107390479Y-113021551D01*
X107615523Y-113287123D01*
X107833687Y-113559673D01*
X108039144Y-113835202D01*
X108226065Y-114109711D01*
X108310754Y-114245334D01*
X108388623Y-114379201D01*
X108458945Y-114510814D01*
X108520991Y-114639673D01*
X108574033Y-114765277D01*
X108617341Y-114887128D01*
X108993546Y-115857735D01*
X109176266Y-116341867D01*
X109346136Y-116817925D01*
X109496213Y-117280439D01*
X109561657Y-117504909D01*
X109619549Y-117723941D01*
X109669020Y-117936853D01*
X109709201Y-118142960D01*
X109739225Y-118341580D01*
X109758223Y-118532028D01*
X109782988Y-118980890D01*
X109800069Y-119551079D01*
X109806993Y-120198968D01*
X109801285Y-120880932D01*
X109780471Y-121553347D01*
X109742076Y-122172587D01*
X109715513Y-122448633D01*
X109683627Y-122695026D01*
X109646109Y-122906313D01*
X109602650Y-123077040D01*
X109469799Y-123460450D01*
X109273963Y-123978078D01*
X108792826Y-125187489D01*
X108169138Y-126703420D01*
X107824650Y-126570069D01*
X107176421Y-126881219D01*
X106791187Y-126755278D01*
X105672529Y-127129399D01*
X105594741Y-126492281D01*
X105404787Y-126587143D01*
X105202114Y-126690548D01*
X104958551Y-126817785D01*
X104697277Y-126958738D01*
X104441472Y-127103295D01*
X104322865Y-127173763D01*
X104214317Y-127241340D01*
X104118727Y-127304760D01*
X104038991Y-127362759D01*
X103950302Y-127422754D01*
X103828845Y-127491978D01*
X103679010Y-127568896D01*
X103505186Y-127651973D01*
X103103132Y-127830461D01*
X102657800Y-128015155D01*
X102204308Y-128193773D01*
X101777771Y-128354029D01*
X101413309Y-128483638D01*
X101146037Y-128570317D01*
X100882889Y-128638171D01*
X100525762Y-128715879D01*
X100102221Y-128798015D01*
X99639830Y-128879152D01*
X99166152Y-128953864D01*
X98708753Y-129016726D01*
X98295196Y-129062312D01*
X98113472Y-129076930D01*
X97953045Y-129085195D01*
X97617261Y-129092640D01*
X97223267Y-129094746D01*
X96799321Y-129090340D01*
X96373682Y-129078251D01*
X95974608Y-129057307D01*
X95630360Y-129026335D01*
X95487625Y-129006723D01*
X95369194Y-128984164D01*
X95278598Y-128958512D01*
X95219371Y-128929621D01*
X95198656Y-128916443D01*
X95178847Y-128907368D01*
X95159892Y-128902242D01*
X95141742Y-128900914D01*
X95124346Y-128903233D01*
X95107654Y-128909046D01*
X95091616Y-128918202D01*
X95076181Y-128930548D01*
X95061300Y-128945933D01*
X95046922Y-128964204D01*
X95032997Y-128985210D01*
X95019476Y-129008799D01*
X95006306Y-129034819D01*
X94993440Y-129063117D01*
X94968413Y-129125943D01*
X94943994Y-129196062D01*
X94919781Y-129272258D01*
X94870368Y-129438020D01*
X94816962Y-129613505D01*
X94787757Y-129701855D01*
X94756349Y-129788990D01*
X94760054Y-129796397D01*
X94743370Y-129836929D01*
X94725993Y-129872574D01*
X94707964Y-129903589D01*
X94689327Y-129930232D01*
X94670126Y-129952758D01*
X94650405Y-129971427D01*
X94630205Y-129986494D01*
X94609572Y-129998216D01*
X94588548Y-130006851D01*
X94567177Y-130012655D01*
X94545501Y-130015887D01*
X94523566Y-130016802D01*
X94501413Y-130015658D01*
X94479087Y-130012712D01*
X94456630Y-130008220D01*
X94434087Y-130002441D01*
X94255824Y-129940686D01*
X94234453Y-129934882D01*
X94213429Y-129930361D01*
X94192796Y-129927379D01*
X94172596Y-129926194D01*
X94152875Y-129927063D01*
X94133674Y-129930243D01*
X94115037Y-129935991D01*
X94097008Y-129944563D01*
X94080054Y-129955204D01*
X94064555Y-129966924D01*
X94050427Y-129979629D01*
X94037583Y-129993225D01*
X94025938Y-130007618D01*
X94015407Y-130022715D01*
X94005904Y-130038423D01*
X93997343Y-130054648D01*
X93989640Y-130071296D01*
X93982709Y-130088273D01*
X93970821Y-130122842D01*
X93960994Y-130157607D01*
X93952546Y-130191818D01*
X93937049Y-130255585D01*
X93928634Y-130283643D01*
X93918861Y-130308152D01*
X93913253Y-130318842D01*
X93907049Y-130328364D01*
X93900164Y-130336624D01*
X93892512Y-130343529D01*
X93884009Y-130348986D01*
X93874569Y-130352900D01*
X93864105Y-130355178D01*
X93852534Y-130355726D01*
X93403403Y-130359430D01*
X93159854Y-130363134D01*
X92711650Y-130818749D01*
X92485870Y-130657154D01*
X92237958Y-130471049D01*
X91930534Y-130228860D01*
X91761654Y-130090044D01*
X91586473Y-129941179D01*
X91407853Y-129783589D01*
X91228652Y-129618598D01*
X91051730Y-129447529D01*
X90879947Y-129271708D01*
X90716162Y-129092457D01*
X90563234Y-128911100D01*
X90157859Y-128408376D01*
X89977483Y-128175202D01*
X89890215Y-128057502D01*
X89803879Y-127936905D01*
X89717718Y-127811794D01*
X89630970Y-127680551D01*
X89542877Y-127541560D01*
X89452678Y-127393204D01*
X89359614Y-127233865D01*
X89262926Y-127061927D01*
X89161854Y-126875772D01*
X89055638Y-126673785D01*
X88955838Y-126445309D01*
X88860786Y-126196497D01*
X88770714Y-125932188D01*
X88685858Y-125657223D01*
X88532721Y-125094681D01*
X88403241Y-124547593D01*
X88299286Y-124054678D01*
X88222721Y-123654657D01*
X88159229Y-123288176D01*
X88105808Y-122683008D01*
X88056287Y-122038020D01*
X88006896Y-121263849D01*
X87969138Y-120434811D01*
X87954516Y-119625219D01*
X87959477Y-119250939D01*
X87974535Y-118909389D01*
X88001129Y-118609858D01*
X88040696Y-118361636D01*
X88085505Y-118156510D01*
X88126912Y-117978775D01*
X88164987Y-117826477D01*
X88199802Y-117697664D01*
X88231425Y-117590380D01*
X88259929Y-117502674D01*
X88285384Y-117432591D01*
X88307859Y-117378179D01*
X88327426Y-117337484D01*
X88344156Y-117308552D01*
X88358118Y-117289431D01*
X88369383Y-117278166D01*
X88378022Y-117272806D01*
X88384106Y-117271395D01*
X88388888Y-117272610D01*
X88370396Y-117245516D01*
X88320129Y-117164900D01*
X88285522Y-117104833D01*
X88245901Y-117031760D01*
X88202243Y-116945805D01*
X88155525Y-116847094D01*
X88106724Y-116735751D01*
X88056815Y-116611901D01*
X88006776Y-116475669D01*
X87982013Y-116402949D01*
X87957584Y-116327180D01*
X87933610Y-116248377D01*
X87910215Y-116166558D01*
X87887519Y-116081736D01*
X87865645Y-115993928D01*
X87844716Y-115903149D01*
X87824852Y-115809415D01*
X87806177Y-115712741D01*
X87788813Y-115613144D01*
X87760936Y-115410449D01*
X87743770Y-115207190D01*
X87737000Y-115004279D01*
X87740311Y-114802626D01*
X87753390Y-114603143D01*
X87775921Y-114406743D01*
X87807589Y-114214336D01*
X87848079Y-114026834D01*
X87897078Y-113845149D01*
X87954270Y-113670193D01*
X88019341Y-113502876D01*
X88091976Y-113344110D01*
X88171859Y-113194808D01*
X88258678Y-113055880D01*
X88352116Y-112928238D01*
X88451859Y-112812794D01*
X88561980Y-112701590D01*
X88685699Y-112587310D01*
X88821420Y-112471825D01*
X88967548Y-112357008D01*
X89122488Y-112244730D01*
X89284645Y-112136863D01*
X89452423Y-112035280D01*
X89624227Y-111941852D01*
X89798462Y-111858451D01*
X89973533Y-111786950D01*
X90147844Y-111729219D01*
X90234216Y-111706104D01*
X90319800Y-111687133D01*
X90404397Y-111672540D01*
X90487806Y-111662561D01*
X90569830Y-111657428D01*
X90650267Y-111657376D01*
X90728919Y-111662639D01*
X90805587Y-111673451D01*
X90880071Y-111690045D01*
X90952171Y-111712657D01*
X91095140Y-111766829D01*
X91240257Y-111825858D01*
X91534420Y-111954296D01*
X92120836Y-112223369D01*
X92403018Y-112347249D01*
X92539150Y-112402859D01*
X92671136Y-112452854D01*
X92798347Y-112496185D01*
X92920154Y-112531806D01*
X93035928Y-112558669D01*
X93145038Y-112575728D01*
X93403570Y-112600232D01*
X93743666Y-112622435D01*
X94145488Y-112636217D01*
X94589200Y-112635457D01*
X94820564Y-112627712D01*
X95054962Y-112614035D01*
X95289914Y-112593663D01*
X95522939Y-112565831D01*
X95751558Y-112529772D01*
X95973292Y-112484722D01*
X96185660Y-112429917D01*
X96386184Y-112364590D01*
X96766280Y-112217849D01*
X97130142Y-112061601D01*
X97305361Y-111980197D01*
X97475773Y-111896758D01*
X97641127Y-111811399D01*
X97801175Y-111724232D01*
X97955667Y-111635373D01*
X98104352Y-111544935D01*
X98246983Y-111453032D01*
X98383308Y-111359777D01*
X98513079Y-111265286D01*
X98636045Y-111169671D01*
X98751958Y-111073047D01*
X98860567Y-110975528D01*
X98958983Y-110881801D01*
X99045392Y-110795753D01*
X99121154Y-110716291D01*
X99187633Y-110642326D01*
X99246190Y-110572768D01*
X99298187Y-110506524D01*
X99344985Y-110442505D01*
X99387947Y-110379620D01*
X99428436Y-110316779D01*
X99467811Y-110252890D01*
X99548673Y-110117608D01*
X99641429Y-109965050D01*
X99695672Y-109879566D01*
X99756974Y-109786490D01*
X99816420Y-109700103D01*
X99865480Y-109633997D01*
X99886723Y-109607889D01*
X99906098Y-109586058D01*
X99923847Y-109568240D01*
X99940214Y-109554170D01*
X99955442Y-109543583D01*
X99969774Y-109536215D01*
X99983451Y-109531801D01*
X99996717Y-109530078D01*
X100009816Y-109530780D01*
X100022988Y-109533643D01*
X100036479Y-109538402D01*
X100050529Y-109544793D01*
X100117190Y-109581386D01*
X100160194Y-109602597D01*
X100184965Y-109613005D01*
X100212239Y-109622928D01*
X100242258Y-109632103D01*
X100275266Y-109640264D01*
X100311505Y-109647148D01*
X100351218Y-109652489D01*
X100394647Y-109656024D01*
X100442037Y-109657487D01*
X100493628Y-109656614D01*
X100549665Y-109653140D01*
X100561522Y-109649405D01*
X100570939Y-109643137D01*
X100578278Y-109634451D01*
X100583900Y-109623464D01*
X100588166Y-109610290D01*
X100591435Y-109595044D01*
X100596431Y-109558800D01*
X100601774Y-109515654D01*
X100610351Y-109466529D01*
X100616754Y-109440012D01*
X100625048Y-109412346D01*
X100635594Y-109383647D01*
X100648753Y-109354029D01*
X100664885Y-109323608D01*
X100684351Y-109292500D01*
X100707513Y-109260819D01*
X100734730Y-109228681D01*
X100766364Y-109196201D01*
X100802776Y-109163494D01*
X100844326Y-109130676D01*
X100891376Y-109097863D01*
X100944285Y-109065168D01*
X101003416Y-109032709D01*
X101069128Y-109000599D01*
X101141783Y-108968955D01*
X101221741Y-108937891D01*
X101309364Y-108907523D01*
X101405012Y-108877967D01*
X101509045Y-108849336D01*
X101718009Y-108798667D01*
X101912025Y-108758606D01*
X102091857Y-108728301D01*
X102258270Y-108706900D01*
X102412030Y-108693551D01*
X102553902Y-108687402D01*
X102684650Y-108687602D01*
X111328791Y-123821575D02*
X111328431Y-123825333D01*
X111327980Y-123829211D01*
X111327433Y-123833215D01*
X111326788Y-123837349D01*
X111326040Y-123841620D01*
X111325186Y-123846034D01*
X111324222Y-123850596D01*
X111323144Y-123855315D01*
X111321946Y-123860196D01*
X111320625Y-123865248D01*
X111319173Y-123870481D01*
X111317587Y-123875902D01*
X111315859Y-123881522D01*
X111313982Y-123887353D01*
X111311951Y-123893407D01*
X111309755Y-123899699D01*
X111307387Y-123906244D01*
X111304837Y-123913060D01*
X111302092Y-123920168D01*
X111299140Y-123927592D01*
X111295966Y-123935360D01*
X111292552Y-123943506D01*
X111288876Y-123952071D01*
X111284913Y-123961107D01*
X111280629Y-123970676D01*
X111275983Y-123980865D01*
X111270915Y-123991788D01*
X111265346Y-124003608D01*
X111259151Y-124016575D01*
X111252124Y-124031107D01*
X111243863Y-124048019D01*
X111233329Y-124069427D01*
X111228231Y-124079760D01*
X111220518Y-124095396D01*
X111212762Y-124111164D01*
X111204992Y-124127050D01*
X111197237Y-124143039D01*
X111193374Y-124151069D01*
X111189525Y-124159119D01*
X111185695Y-124167189D01*
X111181886Y-124175276D01*
X111178102Y-124183378D01*
X111174347Y-124191495D01*
X111170624Y-124199624D01*
X111166938Y-124207763D01*
X111163291Y-124215912D01*
X111159687Y-124224067D01*
X111156131Y-124232228D01*
X111152624Y-124240392D01*
X111149172Y-124248559D01*
X111145777Y-124256725D01*
X111142443Y-124264891D01*
X111139175Y-124273053D01*
X111135974Y-124281210D01*
X111132846Y-124289360D01*
X111129793Y-124297503D01*
X111126819Y-124305635D01*
X111123928Y-124313755D01*
X111121124Y-124321862D01*
X111119755Y-124325910D01*
X111118409Y-124329954D01*
X111117087Y-124333994D01*
X111115788Y-124338029D01*
X111114514Y-124342059D01*
X111113264Y-124346085D01*
X111112040Y-124350106D01*
X111110841Y-124354121D01*
X111109669Y-124358131D01*
X111108523Y-124362135D01*
X111107404Y-124366133D01*
X111106312Y-124370125D01*
X111105248Y-124374110D01*
X111104213Y-124378089D01*
X111103206Y-124382062D01*
X111102229Y-124386027D01*
X111101281Y-124389985D01*
X111100363Y-124393935D01*
X111099476Y-124397878D01*
X111098620Y-124401813D01*
X111097796Y-124405740D01*
X111097003Y-124409659D01*
X111096243Y-124413569D01*
X111095515Y-124417470D01*
X111094821Y-124421362D01*
X111094161Y-124425246D01*
X111093535Y-124429119D01*
X111092943Y-124432984D01*
X111092387Y-124436838D01*
X111091866Y-124440682D01*
X111091381Y-124444517D01*
X111090932Y-124448340D01*
X111090521Y-124452154D01*
X111090146Y-124455956D01*
X111089810Y-124459747D01*
X111089511Y-124463527D01*
X111089252Y-124467295D01*
X111089031Y-124471051D01*
X111088850Y-124474796D01*
X111088709Y-124478529D01*
X111088609Y-124482249D01*
X111088549Y-124485956D01*
X111088531Y-124489651D01*
X111088554Y-124493332D01*
X111088620Y-124497001D01*
X111088729Y-124500656D01*
X111088881Y-124504297D01*
X111089076Y-124507924D01*
X111089316Y-124511538D01*
X111089600Y-124515137D01*
X111089929Y-124518721D01*
X111090303Y-124522291D01*
X111090723Y-124525846D01*
X111091190Y-124529385D01*
X111091703Y-124532909D01*
X111092263Y-124536418D01*
X111092872Y-124539911D01*
X111093528Y-124543388D01*
X111094233Y-124546848D01*
X111094987Y-124550292D01*
X111095790Y-124553720D01*
X111096643Y-124557130D01*
X111097547Y-124560524D01*
X111098501Y-124563900D01*
X111099507Y-124567258D01*
X111100564Y-124570599D01*
X111101674Y-124573922D01*
X111102836Y-124577227D01*
X89359379Y-127236818D02*
X88400000Y-129000000D01*
X89096383Y-129866775D02*
X89444899Y-129812320D01*
X89807583Y-129755651D01*
D14*
G36*
X90207395Y-113395230D02*
G01*
X90220533Y-113396369D01*
X90233456Y-113398184D01*
X90246172Y-113400692D01*
X90258690Y-113403908D01*
X90271019Y-113407848D01*
X90283167Y-113412527D01*
X90295144Y-113417962D01*
X90306958Y-113424166D01*
X90318618Y-113431157D01*
X90330132Y-113438949D01*
X90341511Y-113447559D01*
X90352762Y-113457001D01*
X90363894Y-113467292D01*
X90374917Y-113478447D01*
X90385838Y-113490482D01*
X90396667Y-113503412D01*
X90407413Y-113517253D01*
X90418084Y-113532021D01*
X90428689Y-113547730D01*
X90439237Y-113564398D01*
X90449738Y-113582038D01*
X90470629Y-113620302D01*
X90480412Y-113640324D01*
X90488945Y-113660113D01*
X90496261Y-113679673D01*
X90502389Y-113699008D01*
X90507362Y-113718123D01*
X90511210Y-113737024D01*
X90513965Y-113755714D01*
X90515658Y-113774198D01*
X90516319Y-113792482D01*
X90515981Y-113810570D01*
X90514675Y-113828466D01*
X90512431Y-113846176D01*
X90509281Y-113863704D01*
X90505256Y-113881056D01*
X90500387Y-113898234D01*
X90494706Y-113915246D01*
X90488243Y-113932094D01*
X90481030Y-113948785D01*
X90473099Y-113965322D01*
X90464479Y-113981711D01*
X90445302Y-114014062D01*
X90423748Y-114045875D01*
X90400067Y-114077190D01*
X90374509Y-114108043D01*
X90347322Y-114138473D01*
X90318758Y-114168518D01*
X90303844Y-114182624D01*
X90288300Y-114195117D01*
X90272170Y-114206054D01*
X90255498Y-114215493D01*
X90238326Y-114223491D01*
X90220699Y-114230106D01*
X90202659Y-114235396D01*
X90184250Y-114239418D01*
X90165516Y-114242230D01*
X90146500Y-114243890D01*
X90127245Y-114244455D01*
X90107794Y-114243983D01*
X90088192Y-114242532D01*
X90068481Y-114240159D01*
X90028907Y-114232878D01*
X89989420Y-114222602D01*
X89950367Y-114209792D01*
X89912095Y-114194909D01*
X89874952Y-114178415D01*
X89839285Y-114160770D01*
X89805441Y-114142437D01*
X89773768Y-114123875D01*
X89744612Y-114105547D01*
X89731146Y-114096344D01*
X89718534Y-114086791D01*
X89706783Y-114076886D01*
X89695901Y-114066625D01*
X89685895Y-114056006D01*
X89676773Y-114045026D01*
X89668542Y-114033682D01*
X89661210Y-114021972D01*
X89654785Y-114009894D01*
X89649272Y-113997443D01*
X89644681Y-113984618D01*
X89641018Y-113971417D01*
X89638292Y-113957835D01*
X89636508Y-113943870D01*
X89635676Y-113929521D01*
X89635802Y-113914783D01*
X89636894Y-113899655D01*
X89638959Y-113884134D01*
X89642005Y-113868216D01*
X89646039Y-113851899D01*
X89651069Y-113835181D01*
X89657102Y-113818059D01*
X89664146Y-113800530D01*
X89672207Y-113782591D01*
X89691414Y-113745473D01*
X89714783Y-113706684D01*
X89742374Y-113666203D01*
X89774245Y-113624006D01*
X89777950Y-113627710D01*
X89801390Y-113600913D01*
X89828933Y-113572430D01*
X89846147Y-113555880D01*
X89865461Y-113538347D01*
X89886728Y-113520251D01*
X89909802Y-113502007D01*
X89934537Y-113484036D01*
X89960785Y-113466753D01*
X89988401Y-113450577D01*
X90017237Y-113435926D01*
X90047148Y-113423217D01*
X90062461Y-113417721D01*
X90077987Y-113412868D01*
X90108645Y-113404902D01*
X90138158Y-113399144D01*
X90152507Y-113397132D01*
X90166597Y-113395719D01*
X90180435Y-113394921D01*
X90194032Y-113394753D01*
X90207395Y-113395230D01*
G37*
D15*
X93155387Y-123033014D02*
X92012530Y-123033014D01*
X92583958Y-123033014D02*
X92583958Y-121033014D01*
X92583958Y-121033014D02*
X92393482Y-121318728D01*
X92393482Y-121318728D02*
X92203006Y-121509204D01*
X92203006Y-121509204D02*
X92012530Y-121604442D01*
D16*
X106856265Y-72624800D02*
X106999122Y-72672419D01*
X106999122Y-72672419D02*
X107237217Y-72672419D01*
X107237217Y-72672419D02*
X107332455Y-72624800D01*
X107332455Y-72624800D02*
X107380074Y-72577180D01*
X107380074Y-72577180D02*
X107427693Y-72481942D01*
X107427693Y-72481942D02*
X107427693Y-72386704D01*
X107427693Y-72386704D02*
X107380074Y-72291466D01*
X107380074Y-72291466D02*
X107332455Y-72243847D01*
X107332455Y-72243847D02*
X107237217Y-72196228D01*
X107237217Y-72196228D02*
X107046741Y-72148609D01*
X107046741Y-72148609D02*
X106951503Y-72100990D01*
X106951503Y-72100990D02*
X106903884Y-72053371D01*
X106903884Y-72053371D02*
X106856265Y-71958133D01*
X106856265Y-71958133D02*
X106856265Y-71862895D01*
X106856265Y-71862895D02*
X106903884Y-71767657D01*
X106903884Y-71767657D02*
X106951503Y-71720038D01*
X106951503Y-71720038D02*
X107046741Y-71672419D01*
X107046741Y-71672419D02*
X107284836Y-71672419D01*
X107284836Y-71672419D02*
X107427693Y-71720038D01*
X108046741Y-71672419D02*
X108237217Y-71672419D01*
X108237217Y-71672419D02*
X108332455Y-71720038D01*
X108332455Y-71720038D02*
X108427693Y-71815276D01*
X108427693Y-71815276D02*
X108475312Y-72005752D01*
X108475312Y-72005752D02*
X108475312Y-72339085D01*
X108475312Y-72339085D02*
X108427693Y-72529561D01*
X108427693Y-72529561D02*
X108332455Y-72624800D01*
X108332455Y-72624800D02*
X108237217Y-72672419D01*
X108237217Y-72672419D02*
X108046741Y-72672419D01*
X108046741Y-72672419D02*
X107951503Y-72624800D01*
X107951503Y-72624800D02*
X107856265Y-72529561D01*
X107856265Y-72529561D02*
X107808646Y-72339085D01*
X107808646Y-72339085D02*
X107808646Y-72005752D01*
X107808646Y-72005752D02*
X107856265Y-71815276D01*
X107856265Y-71815276D02*
X107951503Y-71720038D01*
X107951503Y-71720038D02*
X108046741Y-71672419D01*
X109475312Y-72577180D02*
X109427693Y-72624800D01*
X109427693Y-72624800D02*
X109284836Y-72672419D01*
X109284836Y-72672419D02*
X109189598Y-72672419D01*
X109189598Y-72672419D02*
X109046741Y-72624800D01*
X109046741Y-72624800D02*
X108951503Y-72529561D01*
X108951503Y-72529561D02*
X108903884Y-72434323D01*
X108903884Y-72434323D02*
X108856265Y-72243847D01*
X108856265Y-72243847D02*
X108856265Y-72100990D01*
X108856265Y-72100990D02*
X108903884Y-71910514D01*
X108903884Y-71910514D02*
X108951503Y-71815276D01*
X108951503Y-71815276D02*
X109046741Y-71720038D01*
X109046741Y-71720038D02*
X109189598Y-71672419D01*
X109189598Y-71672419D02*
X109284836Y-71672419D01*
X109284836Y-71672419D02*
X109427693Y-71720038D01*
X109427693Y-71720038D02*
X109475312Y-71767657D01*
D17*
X56409523Y-89954819D02*
X55933333Y-89954819D01*
X55933333Y-89954819D02*
X55885714Y-90431009D01*
X55885714Y-90431009D02*
X55933333Y-90383390D01*
X55933333Y-90383390D02*
X56028571Y-90335771D01*
X56028571Y-90335771D02*
X56266666Y-90335771D01*
X56266666Y-90335771D02*
X56361904Y-90383390D01*
X56361904Y-90383390D02*
X56409523Y-90431009D01*
X56409523Y-90431009D02*
X56457142Y-90526247D01*
X56457142Y-90526247D02*
X56457142Y-90764342D01*
X56457142Y-90764342D02*
X56409523Y-90859580D01*
X56409523Y-90859580D02*
X56361904Y-90907200D01*
X56361904Y-90907200D02*
X56266666Y-90954819D01*
X56266666Y-90954819D02*
X56028571Y-90954819D01*
X56028571Y-90954819D02*
X55933333Y-90907200D01*
X55933333Y-90907200D02*
X55885714Y-90859580D01*
X56742857Y-89954819D02*
X57076190Y-90954819D01*
X57076190Y-90954819D02*
X57409523Y-89954819D01*
D16*
X130103884Y-63891466D02*
X130865789Y-63891466D01*
X67956265Y-102924800D02*
X68099122Y-102972419D01*
X68099122Y-102972419D02*
X68337217Y-102972419D01*
X68337217Y-102972419D02*
X68432455Y-102924800D01*
X68432455Y-102924800D02*
X68480074Y-102877180D01*
X68480074Y-102877180D02*
X68527693Y-102781942D01*
X68527693Y-102781942D02*
X68527693Y-102686704D01*
X68527693Y-102686704D02*
X68480074Y-102591466D01*
X68480074Y-102591466D02*
X68432455Y-102543847D01*
X68432455Y-102543847D02*
X68337217Y-102496228D01*
X68337217Y-102496228D02*
X68146741Y-102448609D01*
X68146741Y-102448609D02*
X68051503Y-102400990D01*
X68051503Y-102400990D02*
X68003884Y-102353371D01*
X68003884Y-102353371D02*
X67956265Y-102258133D01*
X67956265Y-102258133D02*
X67956265Y-102162895D01*
X67956265Y-102162895D02*
X68003884Y-102067657D01*
X68003884Y-102067657D02*
X68051503Y-102020038D01*
X68051503Y-102020038D02*
X68146741Y-101972419D01*
X68146741Y-101972419D02*
X68384836Y-101972419D01*
X68384836Y-101972419D02*
X68527693Y-102020038D01*
X68956265Y-102972419D02*
X68956265Y-102305752D01*
X68956265Y-101972419D02*
X68908646Y-102020038D01*
X68908646Y-102020038D02*
X68956265Y-102067657D01*
X68956265Y-102067657D02*
X69003884Y-102020038D01*
X69003884Y-102020038D02*
X68956265Y-101972419D01*
X68956265Y-101972419D02*
X68956265Y-102067657D01*
X69861026Y-102305752D02*
X69861026Y-103115276D01*
X69861026Y-103115276D02*
X69813407Y-103210514D01*
X69813407Y-103210514D02*
X69765788Y-103258133D01*
X69765788Y-103258133D02*
X69670550Y-103305752D01*
X69670550Y-103305752D02*
X69527693Y-103305752D01*
X69527693Y-103305752D02*
X69432455Y-103258133D01*
X69861026Y-102924800D02*
X69765788Y-102972419D01*
X69765788Y-102972419D02*
X69575312Y-102972419D01*
X69575312Y-102972419D02*
X69480074Y-102924800D01*
X69480074Y-102924800D02*
X69432455Y-102877180D01*
X69432455Y-102877180D02*
X69384836Y-102781942D01*
X69384836Y-102781942D02*
X69384836Y-102496228D01*
X69384836Y-102496228D02*
X69432455Y-102400990D01*
X69432455Y-102400990D02*
X69480074Y-102353371D01*
X69480074Y-102353371D02*
X69575312Y-102305752D01*
X69575312Y-102305752D02*
X69765788Y-102305752D01*
X69765788Y-102305752D02*
X69861026Y-102353371D01*
X130003884Y-61391466D02*
X130765789Y-61391466D01*
X130384836Y-61772419D02*
X130384836Y-61010514D01*
X130627693Y-58420038D02*
X130532455Y-58372419D01*
X130532455Y-58372419D02*
X130389598Y-58372419D01*
X130389598Y-58372419D02*
X130246741Y-58420038D01*
X130246741Y-58420038D02*
X130151503Y-58515276D01*
X130151503Y-58515276D02*
X130103884Y-58610514D01*
X130103884Y-58610514D02*
X130056265Y-58800990D01*
X130056265Y-58800990D02*
X130056265Y-58943847D01*
X130056265Y-58943847D02*
X130103884Y-59134323D01*
X130103884Y-59134323D02*
X130151503Y-59229561D01*
X130151503Y-59229561D02*
X130246741Y-59324800D01*
X130246741Y-59324800D02*
X130389598Y-59372419D01*
X130389598Y-59372419D02*
X130484836Y-59372419D01*
X130484836Y-59372419D02*
X130627693Y-59324800D01*
X130627693Y-59324800D02*
X130675312Y-59277180D01*
X130675312Y-59277180D02*
X130675312Y-58943847D01*
X130675312Y-58943847D02*
X130484836Y-58943847D01*
X97627693Y-72172419D02*
X97056265Y-72172419D01*
X97341979Y-72172419D02*
X97341979Y-71172419D01*
X97341979Y-71172419D02*
X97246741Y-71315276D01*
X97246741Y-71315276D02*
X97151503Y-71410514D01*
X97151503Y-71410514D02*
X97056265Y-71458133D01*
X99246741Y-71505752D02*
X99246741Y-72172419D01*
X98818170Y-71505752D02*
X98818170Y-72029561D01*
X98818170Y-72029561D02*
X98865789Y-72124800D01*
X98865789Y-72124800D02*
X98961027Y-72172419D01*
X98961027Y-72172419D02*
X99103884Y-72172419D01*
X99103884Y-72172419D02*
X99199122Y-72124800D01*
X99199122Y-72124800D02*
X99246741Y-72077180D01*
X100056265Y-71648609D02*
X99722932Y-71648609D01*
X99722932Y-72172419D02*
X99722932Y-71172419D01*
X99722932Y-71172419D02*
X100199122Y-71172419D01*
X141775312Y-136372419D02*
X141441979Y-135896228D01*
X141203884Y-136372419D02*
X141203884Y-135372419D01*
X141203884Y-135372419D02*
X141584836Y-135372419D01*
X141584836Y-135372419D02*
X141680074Y-135420038D01*
X141680074Y-135420038D02*
X141727693Y-135467657D01*
X141727693Y-135467657D02*
X141775312Y-135562895D01*
X141775312Y-135562895D02*
X141775312Y-135705752D01*
X141775312Y-135705752D02*
X141727693Y-135800990D01*
X141727693Y-135800990D02*
X141680074Y-135848609D01*
X141680074Y-135848609D02*
X141584836Y-135896228D01*
X141584836Y-135896228D02*
X141203884Y-135896228D01*
X142394360Y-135372419D02*
X142489598Y-135372419D01*
X142489598Y-135372419D02*
X142584836Y-135420038D01*
X142584836Y-135420038D02*
X142632455Y-135467657D01*
X142632455Y-135467657D02*
X142680074Y-135562895D01*
X142680074Y-135562895D02*
X142727693Y-135753371D01*
X142727693Y-135753371D02*
X142727693Y-135991466D01*
X142727693Y-135991466D02*
X142680074Y-136181942D01*
X142680074Y-136181942D02*
X142632455Y-136277180D01*
X142632455Y-136277180D02*
X142584836Y-136324800D01*
X142584836Y-136324800D02*
X142489598Y-136372419D01*
X142489598Y-136372419D02*
X142394360Y-136372419D01*
X142394360Y-136372419D02*
X142299122Y-136324800D01*
X142299122Y-136324800D02*
X142251503Y-136277180D01*
X142251503Y-136277180D02*
X142203884Y-136181942D01*
X142203884Y-136181942D02*
X142156265Y-135991466D01*
X142156265Y-135991466D02*
X142156265Y-135753371D01*
X142156265Y-135753371D02*
X142203884Y-135562895D01*
X142203884Y-135562895D02*
X142251503Y-135467657D01*
X142251503Y-135467657D02*
X142299122Y-135420038D01*
X142299122Y-135420038D02*
X142394360Y-135372419D01*
X130580074Y-65972419D02*
X130103884Y-65972419D01*
X130103884Y-65972419D02*
X130056265Y-66448609D01*
X130056265Y-66448609D02*
X130103884Y-66400990D01*
X130103884Y-66400990D02*
X130199122Y-66353371D01*
X130199122Y-66353371D02*
X130437217Y-66353371D01*
X130437217Y-66353371D02*
X130532455Y-66400990D01*
X130532455Y-66400990D02*
X130580074Y-66448609D01*
X130580074Y-66448609D02*
X130627693Y-66543847D01*
X130627693Y-66543847D02*
X130627693Y-66781942D01*
X130627693Y-66781942D02*
X130580074Y-66877180D01*
X130580074Y-66877180D02*
X130532455Y-66924800D01*
X130532455Y-66924800D02*
X130437217Y-66972419D01*
X130437217Y-66972419D02*
X130199122Y-66972419D01*
X130199122Y-66972419D02*
X130103884Y-66924800D01*
X130103884Y-66924800D02*
X130056265Y-66877180D01*
X130913408Y-65972419D02*
X131246741Y-66972419D01*
X131246741Y-66972419D02*
X131580074Y-65972419D01*
X55775312Y-65872419D02*
X55441979Y-65396228D01*
X55203884Y-65872419D02*
X55203884Y-64872419D01*
X55203884Y-64872419D02*
X55584836Y-64872419D01*
X55584836Y-64872419D02*
X55680074Y-64920038D01*
X55680074Y-64920038D02*
X55727693Y-64967657D01*
X55727693Y-64967657D02*
X55775312Y-65062895D01*
X55775312Y-65062895D02*
X55775312Y-65205752D01*
X55775312Y-65205752D02*
X55727693Y-65300990D01*
X55727693Y-65300990D02*
X55680074Y-65348609D01*
X55680074Y-65348609D02*
X55584836Y-65396228D01*
X55584836Y-65396228D02*
X55203884Y-65396228D01*
X56965789Y-65872419D02*
X56965789Y-64872419D01*
X56965789Y-65253371D02*
X57061027Y-65205752D01*
X57061027Y-65205752D02*
X57251503Y-65205752D01*
X57251503Y-65205752D02*
X57346741Y-65253371D01*
X57346741Y-65253371D02*
X57394360Y-65300990D01*
X57394360Y-65300990D02*
X57441979Y-65396228D01*
X57441979Y-65396228D02*
X57441979Y-65681942D01*
X57441979Y-65681942D02*
X57394360Y-65777180D01*
X57394360Y-65777180D02*
X57346741Y-65824800D01*
X57346741Y-65824800D02*
X57251503Y-65872419D01*
X57251503Y-65872419D02*
X57061027Y-65872419D01*
X57061027Y-65872419D02*
X56965789Y-65824800D01*
X57775313Y-65205752D02*
X58013408Y-65872419D01*
X58251503Y-65205752D02*
X58013408Y-65872419D01*
X58013408Y-65872419D02*
X57918170Y-66110514D01*
X57918170Y-66110514D02*
X57870551Y-66158133D01*
X57870551Y-66158133D02*
X57775313Y-66205752D01*
X134075312Y-132077180D02*
X134027693Y-132124800D01*
X134027693Y-132124800D02*
X133884836Y-132172419D01*
X133884836Y-132172419D02*
X133789598Y-132172419D01*
X133789598Y-132172419D02*
X133646741Y-132124800D01*
X133646741Y-132124800D02*
X133551503Y-132029561D01*
X133551503Y-132029561D02*
X133503884Y-131934323D01*
X133503884Y-131934323D02*
X133456265Y-131743847D01*
X133456265Y-131743847D02*
X133456265Y-131600990D01*
X133456265Y-131600990D02*
X133503884Y-131410514D01*
X133503884Y-131410514D02*
X133551503Y-131315276D01*
X133551503Y-131315276D02*
X133646741Y-131220038D01*
X133646741Y-131220038D02*
X133789598Y-131172419D01*
X133789598Y-131172419D02*
X133884836Y-131172419D01*
X133884836Y-131172419D02*
X134027693Y-131220038D01*
X134027693Y-131220038D02*
X134075312Y-131267657D01*
X134932455Y-131505752D02*
X134932455Y-132172419D01*
X134694360Y-131124800D02*
X134456265Y-131839085D01*
X134456265Y-131839085D02*
X135075312Y-131839085D01*
X67275312Y-97777180D02*
X67227693Y-97824800D01*
X67227693Y-97824800D02*
X67084836Y-97872419D01*
X67084836Y-97872419D02*
X66989598Y-97872419D01*
X66989598Y-97872419D02*
X66846741Y-97824800D01*
X66846741Y-97824800D02*
X66751503Y-97729561D01*
X66751503Y-97729561D02*
X66703884Y-97634323D01*
X66703884Y-97634323D02*
X66656265Y-97443847D01*
X66656265Y-97443847D02*
X66656265Y-97300990D01*
X66656265Y-97300990D02*
X66703884Y-97110514D01*
X66703884Y-97110514D02*
X66751503Y-97015276D01*
X66751503Y-97015276D02*
X66846741Y-96920038D01*
X66846741Y-96920038D02*
X66989598Y-96872419D01*
X66989598Y-96872419D02*
X67084836Y-96872419D01*
X67084836Y-96872419D02*
X67227693Y-96920038D01*
X67227693Y-96920038D02*
X67275312Y-96967657D01*
X67703884Y-97872419D02*
X67703884Y-96872419D01*
X68275312Y-97872419D02*
X67846741Y-97300990D01*
X68275312Y-96872419D02*
X67703884Y-97443847D01*
X69180074Y-97872419D02*
X68703884Y-97872419D01*
X68703884Y-97872419D02*
X68703884Y-96872419D01*
D17*
X141268095Y-109002438D02*
X141172857Y-108954819D01*
X141172857Y-108954819D02*
X141030000Y-108954819D01*
X141030000Y-108954819D02*
X140887143Y-109002438D01*
X140887143Y-109002438D02*
X140791905Y-109097676D01*
X140791905Y-109097676D02*
X140744286Y-109192914D01*
X140744286Y-109192914D02*
X140696667Y-109383390D01*
X140696667Y-109383390D02*
X140696667Y-109526247D01*
X140696667Y-109526247D02*
X140744286Y-109716723D01*
X140744286Y-109716723D02*
X140791905Y-109811961D01*
X140791905Y-109811961D02*
X140887143Y-109907200D01*
X140887143Y-109907200D02*
X141030000Y-109954819D01*
X141030000Y-109954819D02*
X141125238Y-109954819D01*
X141125238Y-109954819D02*
X141268095Y-109907200D01*
X141268095Y-109907200D02*
X141315714Y-109859580D01*
X141315714Y-109859580D02*
X141315714Y-109526247D01*
X141315714Y-109526247D02*
X141125238Y-109526247D01*
X141744286Y-109954819D02*
X141744286Y-108954819D01*
X141744286Y-108954819D02*
X142315714Y-109954819D01*
X142315714Y-109954819D02*
X142315714Y-108954819D01*
X142791905Y-109954819D02*
X142791905Y-108954819D01*
X142791905Y-108954819D02*
X143030000Y-108954819D01*
X143030000Y-108954819D02*
X143172857Y-109002438D01*
X143172857Y-109002438D02*
X143268095Y-109097676D01*
X143268095Y-109097676D02*
X143315714Y-109192914D01*
X143315714Y-109192914D02*
X143363333Y-109383390D01*
X143363333Y-109383390D02*
X143363333Y-109526247D01*
X143363333Y-109526247D02*
X143315714Y-109716723D01*
X143315714Y-109716723D02*
X143268095Y-109811961D01*
X143268095Y-109811961D02*
X143172857Y-109907200D01*
X143172857Y-109907200D02*
X143030000Y-109954819D01*
X143030000Y-109954819D02*
X142791905Y-109954819D01*
X143109523Y-89954819D02*
X142633333Y-89954819D01*
X142633333Y-89954819D02*
X142585714Y-90431009D01*
X142585714Y-90431009D02*
X142633333Y-90383390D01*
X142633333Y-90383390D02*
X142728571Y-90335771D01*
X142728571Y-90335771D02*
X142966666Y-90335771D01*
X142966666Y-90335771D02*
X143061904Y-90383390D01*
X143061904Y-90383390D02*
X143109523Y-90431009D01*
X143109523Y-90431009D02*
X143157142Y-90526247D01*
X143157142Y-90526247D02*
X143157142Y-90764342D01*
X143157142Y-90764342D02*
X143109523Y-90859580D01*
X143109523Y-90859580D02*
X143061904Y-90907200D01*
X143061904Y-90907200D02*
X142966666Y-90954819D01*
X142966666Y-90954819D02*
X142728571Y-90954819D01*
X142728571Y-90954819D02*
X142633333Y-90907200D01*
X142633333Y-90907200D02*
X142585714Y-90859580D01*
X143442857Y-89954819D02*
X143776190Y-90954819D01*
X143776190Y-90954819D02*
X144109523Y-89954819D01*
X78090476Y-60154819D02*
X78090476Y-59154819D01*
X78090476Y-59154819D02*
X78661904Y-60154819D01*
X78661904Y-60154819D02*
X78661904Y-59154819D01*
X79328571Y-59154819D02*
X79519047Y-59154819D01*
X79519047Y-59154819D02*
X79614285Y-59202438D01*
X79614285Y-59202438D02*
X79709523Y-59297676D01*
X79709523Y-59297676D02*
X79757142Y-59488152D01*
X79757142Y-59488152D02*
X79757142Y-59821485D01*
X79757142Y-59821485D02*
X79709523Y-60011961D01*
X79709523Y-60011961D02*
X79614285Y-60107200D01*
X79614285Y-60107200D02*
X79519047Y-60154819D01*
X79519047Y-60154819D02*
X79328571Y-60154819D01*
X79328571Y-60154819D02*
X79233333Y-60107200D01*
X79233333Y-60107200D02*
X79138095Y-60011961D01*
X79138095Y-60011961D02*
X79090476Y-59821485D01*
X79090476Y-59821485D02*
X79090476Y-59488152D01*
X79090476Y-59488152D02*
X79138095Y-59297676D01*
X79138095Y-59297676D02*
X79233333Y-59202438D01*
X79233333Y-59202438D02*
X79328571Y-59154819D01*
X71431009Y-61457142D02*
X71478628Y-61314285D01*
X71478628Y-61314285D02*
X71526247Y-61266666D01*
X71526247Y-61266666D02*
X71621485Y-61219047D01*
X71621485Y-61219047D02*
X71764342Y-61219047D01*
X71764342Y-61219047D02*
X71859580Y-61266666D01*
X71859580Y-61266666D02*
X71907200Y-61314285D01*
X71907200Y-61314285D02*
X71954819Y-61409523D01*
X71954819Y-61409523D02*
X71954819Y-61790475D01*
X71954819Y-61790475D02*
X70954819Y-61790475D01*
X70954819Y-61790475D02*
X70954819Y-61457142D01*
X70954819Y-61457142D02*
X71002438Y-61361904D01*
X71002438Y-61361904D02*
X71050057Y-61314285D01*
X71050057Y-61314285D02*
X71145295Y-61266666D01*
X71145295Y-61266666D02*
X71240533Y-61266666D01*
X71240533Y-61266666D02*
X71335771Y-61314285D01*
X71335771Y-61314285D02*
X71383390Y-61361904D01*
X71383390Y-61361904D02*
X71431009Y-61457142D01*
X71431009Y-61457142D02*
X71431009Y-61790475D01*
X70954819Y-60599999D02*
X70954819Y-60409523D01*
X70954819Y-60409523D02*
X71002438Y-60314285D01*
X71002438Y-60314285D02*
X71097676Y-60219047D01*
X71097676Y-60219047D02*
X71288152Y-60171428D01*
X71288152Y-60171428D02*
X71621485Y-60171428D01*
X71621485Y-60171428D02*
X71811961Y-60219047D01*
X71811961Y-60219047D02*
X71907200Y-60314285D01*
X71907200Y-60314285D02*
X71954819Y-60409523D01*
X71954819Y-60409523D02*
X71954819Y-60599999D01*
X71954819Y-60599999D02*
X71907200Y-60695237D01*
X71907200Y-60695237D02*
X71811961Y-60790475D01*
X71811961Y-60790475D02*
X71621485Y-60838094D01*
X71621485Y-60838094D02*
X71288152Y-60838094D01*
X71288152Y-60838094D02*
X71097676Y-60790475D01*
X71097676Y-60790475D02*
X71002438Y-60695237D01*
X71002438Y-60695237D02*
X70954819Y-60599999D01*
X70954819Y-59552380D02*
X70954819Y-59361904D01*
X70954819Y-59361904D02*
X71002438Y-59266666D01*
X71002438Y-59266666D02*
X71097676Y-59171428D01*
X71097676Y-59171428D02*
X71288152Y-59123809D01*
X71288152Y-59123809D02*
X71621485Y-59123809D01*
X71621485Y-59123809D02*
X71811961Y-59171428D01*
X71811961Y-59171428D02*
X71907200Y-59266666D01*
X71907200Y-59266666D02*
X71954819Y-59361904D01*
X71954819Y-59361904D02*
X71954819Y-59552380D01*
X71954819Y-59552380D02*
X71907200Y-59647618D01*
X71907200Y-59647618D02*
X71811961Y-59742856D01*
X71811961Y-59742856D02*
X71621485Y-59790475D01*
X71621485Y-59790475D02*
X71288152Y-59790475D01*
X71288152Y-59790475D02*
X71097676Y-59742856D01*
X71097676Y-59742856D02*
X71002438Y-59647618D01*
X71002438Y-59647618D02*
X70954819Y-59552380D01*
X70954819Y-58838094D02*
X70954819Y-58266666D01*
X71954819Y-58552380D02*
X70954819Y-58552380D01*
X114038095Y-111402438D02*
X113942857Y-111354819D01*
X113942857Y-111354819D02*
X113800000Y-111354819D01*
X113800000Y-111354819D02*
X113657143Y-111402438D01*
X113657143Y-111402438D02*
X113561905Y-111497676D01*
X113561905Y-111497676D02*
X113514286Y-111592914D01*
X113514286Y-111592914D02*
X113466667Y-111783390D01*
X113466667Y-111783390D02*
X113466667Y-111926247D01*
X113466667Y-111926247D02*
X113514286Y-112116723D01*
X113514286Y-112116723D02*
X113561905Y-112211961D01*
X113561905Y-112211961D02*
X113657143Y-112307200D01*
X113657143Y-112307200D02*
X113800000Y-112354819D01*
X113800000Y-112354819D02*
X113895238Y-112354819D01*
X113895238Y-112354819D02*
X114038095Y-112307200D01*
X114038095Y-112307200D02*
X114085714Y-112259580D01*
X114085714Y-112259580D02*
X114085714Y-111926247D01*
X114085714Y-111926247D02*
X113895238Y-111926247D01*
X114514286Y-112354819D02*
X114514286Y-111354819D01*
X114514286Y-111354819D02*
X115085714Y-112354819D01*
X115085714Y-112354819D02*
X115085714Y-111354819D01*
X115561905Y-112354819D02*
X115561905Y-111354819D01*
X115561905Y-111354819D02*
X115800000Y-111354819D01*
X115800000Y-111354819D02*
X115942857Y-111402438D01*
X115942857Y-111402438D02*
X116038095Y-111497676D01*
X116038095Y-111497676D02*
X116085714Y-111592914D01*
X116085714Y-111592914D02*
X116133333Y-111783390D01*
X116133333Y-111783390D02*
X116133333Y-111926247D01*
X116133333Y-111926247D02*
X116085714Y-112116723D01*
X116085714Y-112116723D02*
X116038095Y-112211961D01*
X116038095Y-112211961D02*
X115942857Y-112307200D01*
X115942857Y-112307200D02*
X115800000Y-112354819D01*
X115800000Y-112354819D02*
X115561905Y-112354819D01*
X108397618Y-95254819D02*
X108064285Y-94778628D01*
X107826190Y-95254819D02*
X107826190Y-94254819D01*
X107826190Y-94254819D02*
X108207142Y-94254819D01*
X108207142Y-94254819D02*
X108302380Y-94302438D01*
X108302380Y-94302438D02*
X108349999Y-94350057D01*
X108349999Y-94350057D02*
X108397618Y-94445295D01*
X108397618Y-94445295D02*
X108397618Y-94588152D01*
X108397618Y-94588152D02*
X108349999Y-94683390D01*
X108349999Y-94683390D02*
X108302380Y-94731009D01*
X108302380Y-94731009D02*
X108207142Y-94778628D01*
X108207142Y-94778628D02*
X107826190Y-94778628D01*
X108826190Y-94731009D02*
X109159523Y-94731009D01*
X109302380Y-95254819D02*
X108826190Y-95254819D01*
X108826190Y-95254819D02*
X108826190Y-94254819D01*
X108826190Y-94254819D02*
X109302380Y-94254819D01*
X109683333Y-95207200D02*
X109826190Y-95254819D01*
X109826190Y-95254819D02*
X110064285Y-95254819D01*
X110064285Y-95254819D02*
X110159523Y-95207200D01*
X110159523Y-95207200D02*
X110207142Y-95159580D01*
X110207142Y-95159580D02*
X110254761Y-95064342D01*
X110254761Y-95064342D02*
X110254761Y-94969104D01*
X110254761Y-94969104D02*
X110207142Y-94873866D01*
X110207142Y-94873866D02*
X110159523Y-94826247D01*
X110159523Y-94826247D02*
X110064285Y-94778628D01*
X110064285Y-94778628D02*
X109873809Y-94731009D01*
X109873809Y-94731009D02*
X109778571Y-94683390D01*
X109778571Y-94683390D02*
X109730952Y-94635771D01*
X109730952Y-94635771D02*
X109683333Y-94540533D01*
X109683333Y-94540533D02*
X109683333Y-94445295D01*
X109683333Y-94445295D02*
X109730952Y-94350057D01*
X109730952Y-94350057D02*
X109778571Y-94302438D01*
X109778571Y-94302438D02*
X109873809Y-94254819D01*
X109873809Y-94254819D02*
X110111904Y-94254819D01*
X110111904Y-94254819D02*
X110254761Y-94302438D01*
X110683333Y-94731009D02*
X111016666Y-94731009D01*
X111159523Y-95254819D02*
X110683333Y-95254819D01*
X110683333Y-95254819D02*
X110683333Y-94254819D01*
X110683333Y-94254819D02*
X111159523Y-94254819D01*
X111445238Y-94254819D02*
X112016666Y-94254819D01*
X111730952Y-95254819D02*
X111730952Y-94254819D01*
X96990476Y-60354819D02*
X96990476Y-59354819D01*
X96990476Y-59354819D02*
X97561904Y-60354819D01*
X97561904Y-60354819D02*
X97561904Y-59354819D01*
X98228571Y-59354819D02*
X98419047Y-59354819D01*
X98419047Y-59354819D02*
X98514285Y-59402438D01*
X98514285Y-59402438D02*
X98609523Y-59497676D01*
X98609523Y-59497676D02*
X98657142Y-59688152D01*
X98657142Y-59688152D02*
X98657142Y-60021485D01*
X98657142Y-60021485D02*
X98609523Y-60211961D01*
X98609523Y-60211961D02*
X98514285Y-60307200D01*
X98514285Y-60307200D02*
X98419047Y-60354819D01*
X98419047Y-60354819D02*
X98228571Y-60354819D01*
X98228571Y-60354819D02*
X98133333Y-60307200D01*
X98133333Y-60307200D02*
X98038095Y-60211961D01*
X98038095Y-60211961D02*
X97990476Y-60021485D01*
X97990476Y-60021485D02*
X97990476Y-59688152D01*
X97990476Y-59688152D02*
X98038095Y-59497676D01*
X98038095Y-59497676D02*
X98133333Y-59402438D01*
X98133333Y-59402438D02*
X98228571Y-59354819D01*
X120609523Y-70354819D02*
X120133333Y-70354819D01*
X120133333Y-70354819D02*
X120085714Y-70831009D01*
X120085714Y-70831009D02*
X120133333Y-70783390D01*
X120133333Y-70783390D02*
X120228571Y-70735771D01*
X120228571Y-70735771D02*
X120466666Y-70735771D01*
X120466666Y-70735771D02*
X120561904Y-70783390D01*
X120561904Y-70783390D02*
X120609523Y-70831009D01*
X120609523Y-70831009D02*
X120657142Y-70926247D01*
X120657142Y-70926247D02*
X120657142Y-71164342D01*
X120657142Y-71164342D02*
X120609523Y-71259580D01*
X120609523Y-71259580D02*
X120561904Y-71307200D01*
X120561904Y-71307200D02*
X120466666Y-71354819D01*
X120466666Y-71354819D02*
X120228571Y-71354819D01*
X120228571Y-71354819D02*
X120133333Y-71307200D01*
X120133333Y-71307200D02*
X120085714Y-71259580D01*
X120942857Y-70354819D02*
X121276190Y-71354819D01*
X121276190Y-71354819D02*
X121609523Y-70354819D01*
X109723810Y-65954819D02*
X110342857Y-65954819D01*
X110342857Y-65954819D02*
X110009524Y-66335771D01*
X110009524Y-66335771D02*
X110152381Y-66335771D01*
X110152381Y-66335771D02*
X110247619Y-66383390D01*
X110247619Y-66383390D02*
X110295238Y-66431009D01*
X110295238Y-66431009D02*
X110342857Y-66526247D01*
X110342857Y-66526247D02*
X110342857Y-66764342D01*
X110342857Y-66764342D02*
X110295238Y-66859580D01*
X110295238Y-66859580D02*
X110247619Y-66907200D01*
X110247619Y-66907200D02*
X110152381Y-66954819D01*
X110152381Y-66954819D02*
X109866667Y-66954819D01*
X109866667Y-66954819D02*
X109771429Y-66907200D01*
X109771429Y-66907200D02*
X109723810Y-66859580D01*
X110771429Y-66859580D02*
X110819048Y-66907200D01*
X110819048Y-66907200D02*
X110771429Y-66954819D01*
X110771429Y-66954819D02*
X110723810Y-66907200D01*
X110723810Y-66907200D02*
X110771429Y-66859580D01*
X110771429Y-66859580D02*
X110771429Y-66954819D01*
X111152381Y-65954819D02*
X111771428Y-65954819D01*
X111771428Y-65954819D02*
X111438095Y-66335771D01*
X111438095Y-66335771D02*
X111580952Y-66335771D01*
X111580952Y-66335771D02*
X111676190Y-66383390D01*
X111676190Y-66383390D02*
X111723809Y-66431009D01*
X111723809Y-66431009D02*
X111771428Y-66526247D01*
X111771428Y-66526247D02*
X111771428Y-66764342D01*
X111771428Y-66764342D02*
X111723809Y-66859580D01*
X111723809Y-66859580D02*
X111676190Y-66907200D01*
X111676190Y-66907200D02*
X111580952Y-66954819D01*
X111580952Y-66954819D02*
X111295238Y-66954819D01*
X111295238Y-66954819D02*
X111200000Y-66907200D01*
X111200000Y-66907200D02*
X111152381Y-66859580D01*
X112057143Y-65954819D02*
X112390476Y-66954819D01*
X112390476Y-66954819D02*
X112723809Y-65954819D01*
X97354819Y-82938095D02*
X96878628Y-83271428D01*
X97354819Y-83509523D02*
X96354819Y-83509523D01*
X96354819Y-83509523D02*
X96354819Y-83128571D01*
X96354819Y-83128571D02*
X96402438Y-83033333D01*
X96402438Y-83033333D02*
X96450057Y-82985714D01*
X96450057Y-82985714D02*
X96545295Y-82938095D01*
X96545295Y-82938095D02*
X96688152Y-82938095D01*
X96688152Y-82938095D02*
X96783390Y-82985714D01*
X96783390Y-82985714D02*
X96831009Y-83033333D01*
X96831009Y-83033333D02*
X96878628Y-83128571D01*
X96878628Y-83128571D02*
X96878628Y-83509523D01*
X96354819Y-82509523D02*
X97164342Y-82509523D01*
X97164342Y-82509523D02*
X97259580Y-82461904D01*
X97259580Y-82461904D02*
X97307200Y-82414285D01*
X97307200Y-82414285D02*
X97354819Y-82319047D01*
X97354819Y-82319047D02*
X97354819Y-82128571D01*
X97354819Y-82128571D02*
X97307200Y-82033333D01*
X97307200Y-82033333D02*
X97259580Y-81985714D01*
X97259580Y-81985714D02*
X97164342Y-81938095D01*
X97164342Y-81938095D02*
X96354819Y-81938095D01*
X97354819Y-81461904D02*
X96354819Y-81461904D01*
X96354819Y-81461904D02*
X97354819Y-80890476D01*
X97354819Y-80890476D02*
X96354819Y-80890476D01*
X57208095Y-109002438D02*
X57112857Y-108954819D01*
X57112857Y-108954819D02*
X56970000Y-108954819D01*
X56970000Y-108954819D02*
X56827143Y-109002438D01*
X56827143Y-109002438D02*
X56731905Y-109097676D01*
X56731905Y-109097676D02*
X56684286Y-109192914D01*
X56684286Y-109192914D02*
X56636667Y-109383390D01*
X56636667Y-109383390D02*
X56636667Y-109526247D01*
X56636667Y-109526247D02*
X56684286Y-109716723D01*
X56684286Y-109716723D02*
X56731905Y-109811961D01*
X56731905Y-109811961D02*
X56827143Y-109907200D01*
X56827143Y-109907200D02*
X56970000Y-109954819D01*
X56970000Y-109954819D02*
X57065238Y-109954819D01*
X57065238Y-109954819D02*
X57208095Y-109907200D01*
X57208095Y-109907200D02*
X57255714Y-109859580D01*
X57255714Y-109859580D02*
X57255714Y-109526247D01*
X57255714Y-109526247D02*
X57065238Y-109526247D01*
X57684286Y-109954819D02*
X57684286Y-108954819D01*
X57684286Y-108954819D02*
X58255714Y-109954819D01*
X58255714Y-109954819D02*
X58255714Y-108954819D01*
X58731905Y-109954819D02*
X58731905Y-108954819D01*
X58731905Y-108954819D02*
X58970000Y-108954819D01*
X58970000Y-108954819D02*
X59112857Y-109002438D01*
X59112857Y-109002438D02*
X59208095Y-109097676D01*
X59208095Y-109097676D02*
X59255714Y-109192914D01*
X59255714Y-109192914D02*
X59303333Y-109383390D01*
X59303333Y-109383390D02*
X59303333Y-109526247D01*
X59303333Y-109526247D02*
X59255714Y-109716723D01*
X59255714Y-109716723D02*
X59208095Y-109811961D01*
X59208095Y-109811961D02*
X59112857Y-109907200D01*
X59112857Y-109907200D02*
X58970000Y-109954819D01*
X58970000Y-109954819D02*
X58731905Y-109954819D01*
D18*
%TO.C,REF\u002A\u002A*%
X104550000Y-77600000D02*
X104550000Y-77000000D01*
X105250000Y-76300000D02*
X106650000Y-76300000D01*
X106650000Y-78300000D02*
X105250000Y-78300000D01*
X107350000Y-77000000D02*
X107350000Y-77600000D01*
X104550000Y-77000000D02*
G75*
G02*
X105250000Y-76300000I700000J0D01*
G01*
X105250000Y-78300000D02*
G75*
G02*
X104550000Y-77600000I0J700000D01*
G01*
X106650000Y-76300000D02*
G75*
G02*
X107350000Y-77000000I1J-699999D01*
G01*
X107350000Y-77600000D02*
G75*
G02*
X106650000Y-78300000I-699999J-1D01*
G01*
%TO.C,D16*%
X101565000Y-112385000D02*
X101565000Y-113855000D01*
X101565000Y-113855000D02*
X103850000Y-113855000D01*
X103850000Y-112385000D02*
X101565000Y-112385000D01*
D16*
%TO.C,L3*%
X96600000Y-67800000D02*
X97400000Y-68600000D01*
D18*
%TO.C,D17*%
X101565000Y-131385000D02*
X101565000Y-132855000D01*
X101565000Y-132855000D02*
X103850000Y-132855000D01*
X103850000Y-131385000D02*
X101565000Y-131385000D01*
%TO.C,U2*%
X61237500Y-69690000D02*
X60437500Y-69690000D01*
X61237500Y-69690000D02*
X62037500Y-69690000D01*
X61237500Y-72810000D02*
X60437500Y-72810000D01*
X61237500Y-72810000D02*
X62037500Y-72810000D01*
X62777500Y-73090000D02*
X62297500Y-73090000D01*
X62537500Y-72760000D01*
X62777500Y-73090000D01*
G36*
X62777500Y-73090000D02*
G01*
X62297500Y-73090000D01*
X62537500Y-72760000D01*
X62777500Y-73090000D01*
G37*
%TO.C,C13*%
X90648039Y-81385226D02*
X90495536Y-81232723D01*
X91157156Y-80876109D02*
X91004653Y-80723606D01*
%TO.C,D21*%
X82565000Y-112385000D02*
X82565000Y-113855000D01*
X82565000Y-113855000D02*
X84850000Y-113855000D01*
X84850000Y-112385000D02*
X82565000Y-112385000D01*
D16*
%TO.C,L11*%
X58600000Y-105800000D02*
X59400000Y-106600000D01*
D18*
%TO.C,GND*%
X138790000Y-108690000D02*
X139600000Y-108690000D01*
X138790000Y-109500000D02*
X138790000Y-108690000D01*
%TO.C,U1*%
X83574060Y-73154944D02*
X84033679Y-72695325D01*
X84033679Y-73614563D02*
X83574060Y-73154944D01*
X88219752Y-68509252D02*
X88509665Y-68219339D01*
X88219752Y-77800636D02*
X88679371Y-78260255D01*
X88679371Y-78260255D02*
X89138990Y-77800636D01*
X89138990Y-68509252D02*
X88891503Y-68261765D01*
X93325063Y-72695325D02*
X93784682Y-73154944D01*
X93784682Y-73154944D02*
X93325063Y-73614563D01*
X89082422Y-67985993D02*
X88679371Y-68049633D01*
X88743011Y-67646582D01*
X89082422Y-67985993D01*
G36*
X89082422Y-67985993D02*
G01*
X88679371Y-68049633D01*
X88743011Y-67646582D01*
X89082422Y-67985993D01*
G37*
%TO.C,D26*%
X63515000Y-112385000D02*
X63515000Y-113855000D01*
X63515000Y-113855000D02*
X65800000Y-113855000D01*
X65800000Y-112385000D02*
X63515000Y-112385000D01*
%TO.C,C11*%
X93008601Y-67817718D02*
X93161104Y-67970221D01*
X93517718Y-67308601D02*
X93670221Y-67461104D01*
D16*
%TO.C,L19*%
X115600000Y-124800000D02*
X116400000Y-125600000D01*
D18*
%TO.C,D13*%
X101565000Y-55385000D02*
X101565000Y-56855000D01*
X101565000Y-56855000D02*
X103850000Y-56855000D01*
X103850000Y-55385000D02*
X101565000Y-55385000D01*
%TO.C,D5*%
X139565000Y-93385000D02*
X139565000Y-94855000D01*
X139565000Y-94855000D02*
X141850000Y-94855000D01*
X141850000Y-93385000D02*
X139565000Y-93385000D01*
%TO.C,D7*%
X139565000Y-131385000D02*
X139565000Y-132855000D01*
X139565000Y-132855000D02*
X141850000Y-132855000D01*
X141850000Y-131385000D02*
X139565000Y-131385000D01*
%TO.C,U3*%
X106090000Y-68890000D02*
X106090000Y-70150000D01*
X106090000Y-75710000D02*
X106090000Y-74450000D01*
X109850000Y-68890000D02*
X106090000Y-68890000D01*
X109850000Y-75710000D02*
X106090000Y-75710000D01*
X111370000Y-75940000D02*
X110890000Y-75940000D01*
X111130000Y-75610000D01*
X111370000Y-75940000D01*
G36*
X111370000Y-75940000D02*
G01*
X110890000Y-75940000D01*
X111130000Y-75610000D01*
X111370000Y-75940000D01*
G37*
D16*
%TO.C,L7*%
X77600000Y-86800000D02*
X78400000Y-87600000D01*
%TO.C,L24*%
X115600000Y-143800000D02*
X116400000Y-144600000D01*
D18*
%TO.C,D20*%
X82565000Y-93385000D02*
X82565000Y-94855000D01*
X82565000Y-94855000D02*
X84850000Y-94855000D01*
X84850000Y-93385000D02*
X82565000Y-93385000D01*
D16*
%TO.C,L14*%
X115600000Y-105800000D02*
X116400000Y-106600000D01*
%TO.C,L20*%
X134800000Y-124600000D02*
X135600000Y-125400000D01*
D18*
%TO.C,D14*%
X99302500Y-76565000D02*
X99302500Y-78035000D01*
X99302500Y-78035000D02*
X101587500Y-78035000D01*
X101587500Y-76565000D02*
X99302500Y-76565000D01*
%TO.C,D3*%
X139565000Y-55385000D02*
X139565000Y-56855000D01*
X139565000Y-56855000D02*
X141850000Y-56855000D01*
X141850000Y-55385000D02*
X139565000Y-55385000D01*
D16*
%TO.C,L13*%
X96600000Y-105800000D02*
X97400000Y-106600000D01*
D18*
%TO.C,REF\u002A\u002A*%
X96386789Y-69891962D02*
X96187978Y-70090773D01*
X97108038Y-70613211D02*
X96909227Y-70812022D01*
D16*
%TO.C,L15*%
X134600000Y-105800000D02*
X135400000Y-106600000D01*
%TO.C,L4*%
X115600000Y-67800000D02*
X116400000Y-68600000D01*
D18*
%TO.C,REF\u002A\u002A*%
X95786789Y-73608038D02*
X95587978Y-73409227D01*
X96508038Y-72886789D02*
X96309227Y-72687978D01*
D16*
%TO.C,L18*%
X96600000Y-124800000D02*
X97400000Y-125600000D01*
D18*
%TO.C,D15*%
X101565000Y-93385000D02*
X101565000Y-94855000D01*
X101565000Y-94855000D02*
X103850000Y-94855000D01*
X103850000Y-93385000D02*
X101565000Y-93385000D01*
D16*
%TO.C,L8*%
X96600000Y-86800000D02*
X97400000Y-87600000D01*
D18*
%TO.C,5V*%
X61210000Y-90500000D02*
X61210000Y-91310000D01*
X61210000Y-91310000D02*
X60400000Y-91310000D01*
D16*
%TO.C,L17*%
X77600000Y-124800000D02*
X78400000Y-125600000D01*
D18*
%TO.C,U4*%
X87745304Y-59165724D02*
X88015304Y-59165724D01*
X87745304Y-61925724D02*
X87745304Y-59165724D01*
X87745304Y-61925724D02*
X87745304Y-64685724D01*
X87745304Y-64685724D02*
X88015304Y-64685724D01*
X93265304Y-59165724D02*
X92995304Y-59165724D01*
X93265304Y-61925724D02*
X93265304Y-59165724D01*
X93265304Y-61925724D02*
X93265304Y-64685724D01*
X93265304Y-64685724D02*
X92995304Y-64685724D01*
X93325304Y-58640724D02*
X92995303Y-58400724D01*
X93325304Y-58160724D01*
X93325304Y-58640724D01*
G36*
X93325304Y-58640724D02*
G01*
X92995303Y-58400724D01*
X93325304Y-58160724D01*
X93325304Y-58640724D01*
G37*
%TO.C,NO*%
X81743641Y-58620000D02*
X81436359Y-58620000D01*
X81743641Y-59380000D02*
X81436359Y-59380000D01*
D16*
%TO.C,L22*%
X77800000Y-143600000D02*
X78600000Y-144400000D01*
D18*
%TO.C,D22*%
X82565000Y-131385000D02*
X82565000Y-132855000D01*
X82565000Y-132855000D02*
X84850000Y-132855000D01*
X84850000Y-131385000D02*
X82565000Y-131385000D01*
%TO.C,C8*%
X91729779Y-78138896D02*
X91882282Y-78291399D01*
X92238896Y-77629779D02*
X92391399Y-77782282D01*
%TO.C,BOOT*%
X72700000Y-56638892D02*
G75*
G02*
X70300000Y-56638892I-1200000J0D01*
G01*
X70300000Y-56638892D02*
G75*
G02*
X72700000Y-56638892I1200000J0D01*
G01*
%TO.C,D10*%
X120565000Y-93385000D02*
X120565000Y-94855000D01*
X120565000Y-94855000D02*
X122850000Y-94855000D01*
X122850000Y-93385000D02*
X120565000Y-93385000D01*
%TO.C,R6*%
X125920000Y-60856358D02*
X125920000Y-61163640D01*
X126680000Y-60856358D02*
X126680000Y-61163640D01*
%TO.C,GND*%
X112900000Y-111900000D02*
G75*
G02*
X110500000Y-111900000I-1200000J0D01*
G01*
X110500000Y-111900000D02*
G75*
G02*
X112900000Y-111900000I1200000J0D01*
G01*
%TO.C,D25*%
X63515000Y-93385000D02*
X63515000Y-94855000D01*
X63515000Y-94855000D02*
X65800000Y-94855000D01*
X65800000Y-93385000D02*
X63515000Y-93385000D01*
%TO.C,C15*%
X57940000Y-71787836D02*
X57940000Y-71572164D01*
X58660000Y-71787836D02*
X58660000Y-71572164D01*
%TO.C,REF\u002A\u002A*%
X58000000Y-60400000D02*
X58000000Y-64200000D01*
X58000000Y-64200000D02*
X59800000Y-64200000D01*
X59800000Y-60400000D02*
X58000000Y-60400000D01*
X59800000Y-64200000D02*
X59800000Y-60400000D01*
%TO.C,D23*%
X63515000Y-55385000D02*
X63515000Y-56855000D01*
X63515000Y-56855000D02*
X65800000Y-56855000D01*
X65800000Y-55385000D02*
X63515000Y-55385000D01*
D16*
%TO.C,L10*%
X134600000Y-86800000D02*
X135400000Y-87600000D01*
%TO.C,L21*%
X58800000Y-143600000D02*
X59600000Y-144400000D01*
D18*
%TO.C,D50*%
X63515000Y-131385000D02*
X63515000Y-132855000D01*
X63515000Y-132855000D02*
X65800000Y-132855000D01*
X65800000Y-131385000D02*
X63515000Y-131385000D01*
%TO.C,D18*%
X82565000Y-55385000D02*
X82565000Y-56855000D01*
X82565000Y-56855000D02*
X84850000Y-56855000D01*
X84850000Y-55385000D02*
X82565000Y-55385000D01*
%TO.C,C4*%
X94509150Y-73962470D02*
X94661653Y-74114973D01*
X95018267Y-73453353D02*
X95170770Y-73605856D01*
%TO.C,D11*%
X120565000Y-112385000D02*
X120565000Y-113855000D01*
X120565000Y-113855000D02*
X122850000Y-113855000D01*
X122850000Y-112385000D02*
X120565000Y-112385000D01*
%TO.C,D4*%
X137302500Y-76865000D02*
X137302500Y-78335000D01*
X137302500Y-78335000D02*
X139587500Y-78335000D01*
X139587500Y-76865000D02*
X137302500Y-76865000D01*
D16*
%TO.C,L23*%
X96600000Y-143800000D02*
X97400000Y-144600000D01*
D18*
%TO.C,RESET*%
X113350000Y-91300000D02*
X113350000Y-89800000D01*
X112100000Y-87300000D02*
X107600000Y-87300000D01*
X107600000Y-93800000D02*
X112100000Y-93800000D01*
X106350000Y-89800000D02*
X106350000Y-91300000D01*
%TO.C,NO*%
X96420000Y-61436359D02*
X96420000Y-61743641D01*
X97180000Y-61436359D02*
X97180000Y-61743641D01*
%TO.C,D19*%
X77312500Y-75635000D02*
X79597500Y-75635000D01*
X79597500Y-74165000D02*
X77312500Y-74165000D01*
X79597500Y-75635000D02*
X79597500Y-74165000D01*
%TO.C,C5*%
X93929779Y-68461104D02*
X94082282Y-68308601D01*
X94438896Y-68970221D02*
X94591399Y-68817718D01*
%TO.C,R2*%
X83636359Y-57620000D02*
X83943641Y-57620000D01*
X83636359Y-58380000D02*
X83943641Y-58380000D01*
D16*
%TO.C,L9*%
X115600000Y-86800000D02*
X116400000Y-87600000D01*
D18*
%TO.C,C4*%
X82529779Y-76461104D02*
X82682282Y-76308601D01*
X83038896Y-76970221D02*
X83191399Y-76817718D01*
%TO.C,5V*%
X119400000Y-70900000D02*
G75*
G02*
X117000000Y-70900000I-1200000J0D01*
G01*
X117000000Y-70900000D02*
G75*
G02*
X119400000Y-70900000I1200000J0D01*
G01*
%TO.C,C1*%
X112865000Y-71211252D02*
X112865000Y-70688748D01*
X114335000Y-71211252D02*
X114335000Y-70688748D01*
%TO.C,Y1*%
X87382736Y-82786827D02*
X89164645Y-84568736D01*
X89164645Y-84568736D02*
X91229396Y-82503985D01*
%TO.C,C14*%
X87027652Y-83919729D02*
X86875149Y-84072232D01*
X87536769Y-84428846D02*
X87384266Y-84581349D01*
%TO.C,D6*%
X137202500Y-114665000D02*
X137202500Y-116135000D01*
X137202500Y-116135000D02*
X139487500Y-116135000D01*
X139487500Y-114665000D02*
X137202500Y-114665000D01*
D16*
%TO.C,L6*%
X58600000Y-86800000D02*
X59400000Y-87600000D01*
D18*
%TO.C,R5*%
X86072014Y-83291448D02*
X86289295Y-83074167D01*
X86609415Y-83828849D02*
X86826696Y-83611568D01*
%TO.C,3.3V*%
X109200000Y-66400000D02*
G75*
G02*
X106800000Y-66400000I-1200000J0D01*
G01*
X106800000Y-66400000D02*
G75*
G02*
X109200000Y-66400000I1200000J0D01*
G01*
D16*
%TO.C,L5*%
X134600000Y-67800000D02*
X135400000Y-68600000D01*
D18*
%TO.C,C10*%
X93790000Y-65977836D02*
X93790000Y-65762164D01*
X94510000Y-65977836D02*
X94510000Y-65762164D01*
%TO.C,C2*%
X101165000Y-71788748D02*
X101165000Y-72311252D01*
X102635000Y-71788748D02*
X102635000Y-72311252D01*
D16*
%TO.C,L2*%
X77600000Y-67800000D02*
X78400000Y-68600000D01*
D18*
%TO.C,REF\u002A\u002A*%
X142100000Y-140200000D02*
X142100000Y-144000000D01*
X142100000Y-144000000D02*
X143900000Y-144000000D01*
X143900000Y-140200000D02*
X142100000Y-140200000D01*
X143900000Y-144000000D02*
X143900000Y-140200000D01*
%TO.C,D12*%
X120565000Y-131385000D02*
X120565000Y-132855000D01*
X120565000Y-132855000D02*
X122850000Y-132855000D01*
X122850000Y-131385000D02*
X120565000Y-131385000D01*
%TO.C,D9*%
X120502500Y-74265000D02*
X120502500Y-75735000D01*
X120502500Y-75735000D02*
X122787500Y-75735000D01*
X122787500Y-74265000D02*
X120502500Y-74265000D01*
%TO.C,D8*%
X120565000Y-55385000D02*
X120565000Y-56855000D01*
X120565000Y-56855000D02*
X122850000Y-56855000D01*
X122850000Y-55385000D02*
X120565000Y-55385000D01*
%TO.C,R7*%
X125636360Y-63420000D02*
X125943642Y-63420000D01*
X125636360Y-64180000D02*
X125943642Y-64180000D01*
D16*
%TO.C,L12*%
X77600000Y-105800000D02*
X78400000Y-106600000D01*
D18*
%TO.C,D24*%
X63515000Y-74385000D02*
X63515000Y-75855000D01*
X63515000Y-75855000D02*
X65800000Y-75855000D01*
X65800000Y-74385000D02*
X63515000Y-74385000D01*
D16*
%TO.C,L1*%
X58600000Y-67800000D02*
X59400000Y-68600000D01*
%TO.C,L16*%
X58600000Y-124800000D02*
X59400000Y-125600000D01*
D18*
%TO.C,RUN*%
X98100000Y-79300000D02*
G75*
G02*
X95700000Y-79300000I-1200000J0D01*
G01*
X95700000Y-79300000D02*
G75*
G02*
X98100000Y-79300000I1200000J0D01*
G01*
D16*
%TO.C,L25*%
X134600000Y-143800000D02*
X135400000Y-144600000D01*
D18*
%TO.C,REF\u002A\u002A*%
X55350000Y-67800000D02*
X55350000Y-67200000D01*
X56050000Y-66500000D02*
X57450000Y-66500000D01*
X57450000Y-68500000D02*
X56050000Y-68500000D01*
X58150000Y-67200000D02*
X58150000Y-67800000D01*
X55350000Y-67200000D02*
G75*
G02*
X56050000Y-66500000I700000J0D01*
G01*
X56050000Y-68500000D02*
G75*
G02*
X55350000Y-67800000I0J700000D01*
G01*
X57450000Y-66500000D02*
G75*
G02*
X58150000Y-67200000I1J-699999D01*
G01*
X58150000Y-67800000D02*
G75*
G02*
X57450000Y-68500000I-699999J-1D01*
G01*
%TO.C,C4*%
X80140000Y-71712164D02*
X80140000Y-71927836D01*
X80860000Y-71712164D02*
X80860000Y-71927836D01*
%TO.C,GND*%
X61210000Y-109500000D02*
X61210000Y-110310000D01*
X61210000Y-110310000D02*
X60400000Y-110310000D01*
%TO.C,R4*%
X107720000Y-80243642D02*
X107720000Y-79936360D01*
X108480000Y-80243642D02*
X108480000Y-79936360D01*
%TD*%
M02*
