M48
; DRILL file {KiCad 9.0.2} date 2026-02-16T21:11:47+0100
; FORMAT={-:-/ absolute / metric / decimal}
; #@! TF.CreationDate,2026-02-16T21:11:47+01:00
; #@! TF.GenerationSoftware,Kicad,Pcbnew,9.0.2
; #@! TF.FileFunction,Plated,1,4,PTH
FMAT,2
METRIC
; #@! TA.AperFunction,Plated,PTH,ViaDrill
T1C0.200
; #@! TA.AperFunction,Plated,PTH,ViaDrill
T2C0.300
; #@! TA.AperFunction,Plated,PTH,ViaDrill
T3C0.500
; #@! TA.AperFunction,Plated,PTH,ComponentDrill
T4C0.650
; #@! TA.AperFunction,Plated,PTH,ComponentDrill
T5C0.700
; #@! TA.AperFunction,Plated,PTH,ComponentDrill
T6C1.000
; #@! TA.AperFunction,Plated,PTH,ComponentDrill
T7C1.100
; #@! TA.AperFunction,Plated,PTH,ComponentDrill
T8C1.200
%
G90
G05
T1
X82.0Y-70.125
X82.7Y-68.8
X82.7Y-69.6
X82.7Y-71.2
X82.7Y-72.0
X82.7Y-72.8
X84.6Y-67.35
X84.6Y-68.0
X86.746Y-67.714
X87.405Y-67.995
X105.6Y-104.0
X142.0Y-57.2
X142.0Y-95.2
X142.0Y-130.6
T2
X60.4Y-73.4
X60.8Y-68.9
X66.0Y-57.2
X66.0Y-76.2
X66.0Y-95.2
X66.0Y-111.6
X66.0Y-130.6
X68.8Y-87.6
X71.0Y-67.2
X74.1Y-64.7
X76.1Y-74.9
X76.6Y-88.5
X77.4Y-68.501
X80.2Y-59.1
X81.707Y-71.307
X81.8Y-72.3
X83.0Y-75.2
X83.1Y-83.7
X83.7Y-64.7
X84.8Y-66.1
X85.0Y-95.2
X85.0Y-111.6
X85.0Y-130.6
X85.924Y-76.842
X86.16Y-74.26
X86.2Y-72.4
X86.3Y-56.2
X86.7Y-78.1
X87.1Y-75.1
X87.5Y-71.1
X87.6Y-78.8
X88.211Y-84.59
X88.6Y-59.8
X89.4Y-75.5
X89.876Y-70.924
X90.5Y-106.9
X90.5Y-125.7
X90.5Y-144.6
X90.85Y-74.15
X90.976Y-79.024
X91.464Y-83.034
X91.6Y-79.7
X92.5Y-76.1
X92.8Y-68.4
X94.4Y-64.0
X94.9Y-69.3
X95.1Y-71.4
X95.7Y-69.6
X96.6Y-66.0
X98.4Y-73.6
X99.1Y-68.5
X100.0Y-72.3
X100.3Y-70.1
X103.1Y-77.7
X103.8Y-67.5
X104.0Y-57.401
X104.0Y-66.0
X104.0Y-95.2
X104.0Y-111.6
X104.0Y-130.6
X107.9Y-83.8
X108.1Y-82.1
X109.5Y-77.4
X109.5Y-108.1
X109.5Y-121.5
X109.5Y-140.506
X115.2Y-65.95
X120.195Y-65.105
X123.0Y-57.2
X123.0Y-76.2
X123.0Y-88.5
X123.0Y-95.2
X123.0Y-114.2
X123.0Y-130.6
X124.1Y-63.8
X125.1Y-60.3
X139.9Y-76.2
X139.9Y-114.2
T3
X115.4Y-70.0
T4
X60.4Y-90.5
X60.4Y-109.5
X139.6Y-90.5
X139.6Y-109.5
T5
X58.9Y-61.3
X58.9Y-63.3
X143.0Y-141.1
X143.0Y-143.1
T6
X71.5Y-97.48
X71.5Y-100.02
X71.5Y-102.56
X128.5Y-97.48
X128.5Y-100.02
X128.5Y-102.56
X128.6Y-56.24
X128.6Y-58.78
X128.6Y-61.32
X128.6Y-63.86
X128.6Y-66.4
T7
X106.6Y-88.3
X106.6Y-92.8
X113.1Y-88.3
X113.1Y-92.8
T8
X57.0Y-58.2
X57.0Y-77.2
X57.0Y-96.2
X57.0Y-115.2
X57.0Y-134.2
X62.0Y-56.1
X62.0Y-75.1
X62.0Y-94.1
X62.0Y-113.1
X62.0Y-132.1
X76.0Y-58.2
X76.0Y-77.2
X76.0Y-96.2
X76.0Y-115.2
X76.0Y-134.2
X81.0Y-56.1
X81.0Y-75.1
X81.0Y-94.1
X81.0Y-113.1
X81.0Y-132.1
X95.0Y-58.2
X95.0Y-77.2
X95.0Y-96.2
X95.0Y-115.2
X95.0Y-134.2
X100.0Y-56.1
X100.0Y-75.1
X100.0Y-94.1
X100.0Y-113.1
X100.0Y-132.1
X114.0Y-58.2
X114.0Y-77.2
X114.0Y-96.2
X114.0Y-115.2
X114.0Y-134.2
X119.0Y-56.1
X119.0Y-75.1
X119.0Y-94.1
X119.0Y-113.1
X119.0Y-132.1
X133.0Y-58.2
X133.0Y-77.2
X133.0Y-96.2
X133.0Y-115.2
X133.0Y-134.2
X138.0Y-56.1
X138.0Y-75.1
X138.0Y-94.1
X138.0Y-113.1
X138.0Y-132.1
M30
