%TF.GenerationSoftware,KiCad,Pcbnew,9.0.2*%
%TF.CreationDate,2026-01-27T21:16:03+01:00*%
%TF.ProjectId,Keymodule,4b65796d-6f64-4756-9c65-2e6b69636164,rev?*%
%TF.SameCoordinates,Original*%
%TF.FileFunction,Copper,L4,Bot*%
%TF.FilePolarity,Positive*%
%FSLAX46Y46*%
G04 Gerber Fmt 4.6, Leading zero omitted, Abs format (unit mm)*
G04 Created by KiCad (PCBNEW 9.0.2) date 2026-01-27 21:16:03*
%MOMM*%
%LPD*%
G01*
G04 APERTURE LIST*
%TA.AperFunction,ComponentPad*%
%ADD10R,1.700000X1.700000*%
%TD*%
%TA.AperFunction,ComponentPad*%
%ADD11C,1.700000*%
%TD*%
%TA.AperFunction,ComponentPad*%
%ADD12R,1.000000X1.000000*%
%TD*%
%TA.AperFunction,ComponentPad*%
%ADD13C,2.000000*%
%TD*%
%TA.AperFunction,ViaPad*%
%ADD14C,0.600000*%
%TD*%
%TA.AperFunction,ViaPad*%
%ADD15C,1.000000*%
%TD*%
%TA.AperFunction,ViaPad*%
%ADD16C,0.350000*%
%TD*%
%TA.AperFunction,Conductor*%
%ADD17C,0.200000*%
%TD*%
%TA.AperFunction,Conductor*%
%ADD18C,0.500000*%
%TD*%
%TA.AperFunction,Conductor*%
%ADD19C,1.000000*%
%TD*%
%TA.AperFunction,Conductor*%
%ADD20C,0.400000*%
%TD*%
G04 APERTURE END LIST*
D10*
%TO.P,J3,1,Pin_1*%
%TO.N,potSig*%
X71500000Y-102560000D03*
D11*
%TO.P,J3,2,Pin_2*%
%TO.N,SDA*%
X71500000Y-100020000D03*
%TO.P,J3,3,Pin_3*%
%TO.N,SCL*%
X71500000Y-97480000D03*
%TD*%
D12*
%TO.P,GND,1,Pin_1*%
%TO.N,GND*%
X139600000Y-109500000D03*
%TD*%
%TO.P,5V,1,Pin_1*%
%TO.N,+5V*%
X139600000Y-90500000D03*
%TD*%
%TO.P,5V,1,Pin_1*%
%TO.N,+5V*%
X67900000Y-90500000D03*
%TD*%
D10*
%TO.P,REF\u002A\u002A,1*%
%TO.N,+5V*%
X128600000Y-66400000D03*
D11*
%TO.P,REF\u002A\u002A,2*%
%TO.N,Net-(J11-Pin_4)*%
X128600000Y-63860000D03*
%TO.P,REF\u002A\u002A,3*%
%TO.N,Net-(J11-Pin_3)*%
X128600000Y-61320000D03*
%TO.P,REF\u002A\u002A,4*%
%TO.N,GND*%
X128600000Y-58780000D03*
%TO.P,REF\u002A\u002A,5*%
%TO.N,N/C*%
X128600000Y-56240000D03*
%TD*%
D12*
%TO.P,GND,1,Pin_1*%
%TO.N,GND*%
X60400000Y-109500000D03*
%TD*%
D13*
%TO.P,M_SW18,1*%
%TO.N,Net-(D20-K)*%
X81000000Y-94100000D03*
%TO.P,M_SW18,2*%
%TO.N,col2*%
X76000000Y-96200000D03*
%TD*%
%TO.P,M_SW2,1*%
%TO.N,Net-(D4-K)*%
X138000000Y-75100000D03*
%TO.P,M_SW2,2*%
%TO.N,col1*%
X133000000Y-77200000D03*
%TD*%
%TO.P,M_SW21,1*%
%TO.N,Net-(D23-K)*%
X62000000Y-56100000D03*
%TO.P,M_SW21,2*%
%TO.N,col0*%
X57000000Y-58200000D03*
%TD*%
%TO.P,M_SW20,1*%
%TO.N,Net-(D22-K)*%
X81000000Y-132100000D03*
%TO.P,M_SW20,2*%
%TO.N,col4*%
X76000000Y-134200000D03*
%TD*%
%TO.P,M_SW9,1*%
%TO.N,Net-(D11-K)*%
X119000000Y-113100000D03*
%TO.P,M_SW9,2*%
%TO.N,col3*%
X114000000Y-115200000D03*
%TD*%
%TO.P,M_SW6,1*%
%TO.N,Net-(D8-K)*%
X119000000Y-56100000D03*
%TO.P,M_SW6,2*%
%TO.N,col0*%
X114000000Y-58200000D03*
%TD*%
%TO.P,M_SW5,1*%
%TO.N,Net-(D7-K)*%
X138000000Y-132100000D03*
%TO.P,M_SW5,2*%
%TO.N,col4*%
X133000000Y-134200000D03*
%TD*%
%TO.P,M_SW19,1*%
%TO.N,Net-(D21-K)*%
X81000000Y-113100000D03*
%TO.P,M_SW19,2*%
%TO.N,col3*%
X76000000Y-115200000D03*
%TD*%
%TO.P,M_SW8,1*%
%TO.N,Net-(D10-K)*%
X119000000Y-94100000D03*
%TO.P,M_SW8,2*%
%TO.N,col2*%
X114000000Y-96200000D03*
%TD*%
%TO.P,M_SW12,1*%
%TO.N,Net-(D14-K)*%
X100000000Y-75100000D03*
%TO.P,M_SW12,2*%
%TO.N,col1*%
X95000000Y-77200000D03*
%TD*%
%TO.P,M_SW23,1*%
%TO.N,Net-(D25-K)*%
X62000000Y-94100000D03*
%TO.P,M_SW23,2*%
%TO.N,col2*%
X57000000Y-96200000D03*
%TD*%
%TO.P,M_SW11,1*%
%TO.N,Net-(D13-K)*%
X100000000Y-56100000D03*
%TO.P,M_SW11,2*%
%TO.N,col0*%
X95000000Y-58200000D03*
%TD*%
%TO.P,M_SW16,1*%
%TO.N,Net-(D18-K)*%
X81000000Y-56100000D03*
%TO.P,M_SW16,2*%
%TO.N,col0*%
X76000000Y-58200000D03*
%TD*%
%TO.P,M_SW7,1*%
%TO.N,Net-(D9-K)*%
X119000000Y-75100000D03*
%TO.P,M_SW7,2*%
%TO.N,col1*%
X114000000Y-77200000D03*
%TD*%
%TO.P,M_SW3,1*%
%TO.N,Net-(D5-K)*%
X138000000Y-94100000D03*
%TO.P,M_SW3,2*%
%TO.N,col2*%
X133000000Y-96200000D03*
%TD*%
%TO.P,M_SW24,1*%
%TO.N,Net-(D26-K)*%
X62000000Y-113100000D03*
%TO.P,M_SW24,2*%
%TO.N,col3*%
X57000000Y-115200000D03*
%TD*%
%TO.P,M_SW14,1*%
%TO.N,Net-(D16-K)*%
X100000000Y-113100000D03*
%TO.P,M_SW14,2*%
%TO.N,col3*%
X95000000Y-115200000D03*
%TD*%
D10*
%TO.P,J6,1,Pin_1*%
%TO.N,potSig*%
X128500000Y-102560000D03*
D11*
%TO.P,J6,2,Pin_2*%
%TO.N,SDA*%
X128500000Y-100020000D03*
%TO.P,J6,3,Pin_3*%
%TO.N,SCL*%
X128500000Y-97480000D03*
%TD*%
D13*
%TO.P,M_SW25,1*%
%TO.N,Net-(D50-K)*%
X62000000Y-132100000D03*
%TO.P,M_SW25,2*%
%TO.N,col4*%
X57000000Y-134200000D03*
%TD*%
%TO.P,M_SW15,1*%
%TO.N,Net-(D17-K)*%
X100000000Y-132100000D03*
%TO.P,M_SW15,2*%
%TO.N,col4*%
X95000000Y-134200000D03*
%TD*%
%TO.P,M_SW4,1*%
%TO.N,Net-(D6-K)*%
X138000000Y-113100000D03*
%TO.P,M_SW4,2*%
%TO.N,col3*%
X133000000Y-115200000D03*
%TD*%
%TO.P,M_SW13,1*%
%TO.N,Net-(D15-K)*%
X100000000Y-94100000D03*
%TO.P,M_SW13,2*%
%TO.N,col2*%
X95000000Y-96200000D03*
%TD*%
%TO.P,M_SW1,1*%
%TO.N,Net-(D3-K)*%
X138000000Y-56100000D03*
%TO.P,M_SW1,2*%
%TO.N,col0*%
X133000000Y-58200000D03*
%TD*%
%TO.P,M_SW10,1*%
%TO.N,Net-(D12-K)*%
X119000000Y-132100000D03*
%TO.P,M_SW10,2*%
%TO.N,col4*%
X114000000Y-134200000D03*
%TD*%
%TO.P,M_SW17,1*%
%TO.N,Net-(D19-K)*%
X81000000Y-75100000D03*
%TO.P,M_SW17,2*%
%TO.N,col1*%
X76000000Y-77200000D03*
%TD*%
%TO.P,M_SW22,1*%
%TO.N,Net-(D24-K)*%
X62000000Y-75100000D03*
%TO.P,M_SW22,2*%
%TO.N,col1*%
X57000000Y-77200000D03*
%TD*%
D14*
%TO.N,GND*%
X118800000Y-64700000D03*
%TO.N,+5V*%
X115400000Y-70000000D03*
X96600000Y-67100000D03*
X77400000Y-68501000D03*
X71300000Y-87600000D03*
X90500000Y-106900000D03*
X90500000Y-144600000D03*
X59800000Y-73600000D03*
X60800000Y-68900000D03*
X90500000Y-125700000D03*
%TO.N,GND*%
X104000000Y-66000000D03*
X71000000Y-67200000D03*
X91464156Y-83034315D03*
X74100000Y-64700000D03*
X107900000Y-83800000D03*
D15*
X109500000Y-108100000D03*
D14*
X83700000Y-64700000D03*
D15*
X109500000Y-77400000D03*
D14*
X83100000Y-83700000D03*
X109500000Y-140506161D03*
X109500000Y-121500000D03*
X88211465Y-84589950D03*
X90300000Y-74800000D03*
X100200000Y-70800000D03*
X88600000Y-59800000D03*
X88000000Y-70700000D03*
X97200000Y-73600000D03*
%TO.N,+3.3V*%
X80200000Y-59100000D03*
X94400000Y-64000000D03*
%TO.N,row0*%
X115200000Y-73800000D03*
X142000000Y-130600000D03*
X142000000Y-57200000D03*
X142000000Y-88300000D03*
X142000000Y-114200000D03*
X142000000Y-95200000D03*
D16*
X83575000Y-71600000D03*
D14*
X142000000Y-73800000D03*
%TO.N,row1*%
X106400000Y-79300000D03*
D16*
X83594742Y-70819742D03*
D14*
X123000000Y-95200000D03*
X123000000Y-76200000D03*
X123000000Y-57200000D03*
X123000000Y-130600000D03*
X123000000Y-114200000D03*
X123000000Y-88500000D03*
D16*
%TO.N,row2*%
X84226000Y-70400000D03*
D14*
X104000000Y-111600000D03*
X104000000Y-76700000D03*
X104000000Y-95200000D03*
X104000000Y-57401000D03*
X104000000Y-130600000D03*
%TO.N,row3*%
X76100000Y-74900000D03*
X85000000Y-130600000D03*
X85000000Y-111600000D03*
D16*
X83100000Y-69800000D03*
D14*
X85000000Y-95200000D03*
X86300000Y-56200000D03*
%TO.N,row4*%
X66000000Y-57200000D03*
X66000000Y-95200000D03*
X66000000Y-76200000D03*
X66000000Y-130600000D03*
X66000000Y-111600000D03*
D16*
X81700000Y-68800000D03*
D14*
%TO.N,potSig*%
X76600000Y-88500000D03*
X88900000Y-79300000D03*
%TO.N,SCL*%
X79500000Y-78800000D03*
X87900000Y-79100000D03*
%TO.N,SDA*%
X86500000Y-78500000D03*
X78700000Y-78100000D03*
%TO.N,Net-(L2-DOUT)*%
X84800000Y-66100000D03*
X96300000Y-66000000D03*
%TO.N,Net-(L3-DOUT)*%
X103800000Y-67500000D03*
X115200000Y-65950000D03*
D16*
%TO.N,col0*%
X87300000Y-68100000D03*
%TO.N,col1*%
X86600000Y-67900000D03*
%TO.N,col2*%
X85900000Y-67700000D03*
%TO.N,col3*%
X85200000Y-67600000D03*
%TO.N,col4*%
X84400000Y-68000000D03*
D14*
%TO.N,USB_D+*%
X125100000Y-60300000D03*
X94900000Y-69300000D03*
%TO.N,USB_D-*%
X95800000Y-69800000D03*
X124100000Y-63800000D03*
%TD*%
D17*
%TO.N,+5V*%
X113900000Y-68500000D02*
X98000000Y-68500000D01*
X71300000Y-87600000D02*
X74200000Y-84700000D01*
X60800000Y-68900000D02*
X61000000Y-68700000D01*
D18*
X122500000Y-70000000D02*
X115400000Y-70000000D01*
X128700000Y-88400000D02*
X128700000Y-76200000D01*
D17*
X98000000Y-68500000D02*
X96600000Y-67100000D01*
X126600000Y-90500000D02*
X125900000Y-90500000D01*
D19*
X71300000Y-90500000D02*
X88700000Y-90500000D01*
D17*
X61199000Y-68501000D02*
X60800000Y-68900000D01*
X60800000Y-68900000D02*
X60800000Y-72600000D01*
D18*
X126600000Y-90500000D02*
X128700000Y-88400000D01*
X128700000Y-76200000D02*
X122500000Y-70000000D01*
D17*
X115400000Y-70000000D02*
X113900000Y-68500000D01*
D18*
X126100000Y-66400000D02*
X128600000Y-66400000D01*
D19*
X125900000Y-90500000D02*
X139600000Y-90500000D01*
X68000000Y-90500000D02*
X71300000Y-90500000D01*
D17*
X71300000Y-87600000D02*
X68400000Y-90500000D01*
D20*
X90500000Y-92300000D02*
X88700000Y-90500000D01*
D17*
X73200000Y-68501000D02*
X73100000Y-68501000D01*
X74200000Y-69501000D02*
X73200000Y-68501000D01*
D20*
X90500000Y-144600000D02*
X90500000Y-92300000D01*
D17*
X77400000Y-68501000D02*
X61199000Y-68501000D01*
X60800000Y-72600000D02*
X59800000Y-73600000D01*
D18*
X122500000Y-70000000D02*
X126100000Y-66400000D01*
D17*
X74200000Y-84700000D02*
X74200000Y-69501000D01*
D19*
X88700000Y-90500000D02*
X125900000Y-90500000D01*
D17*
%TO.N,GND*%
X86773166Y-66900000D02*
X84750057Y-66900000D01*
X89908521Y-84589950D02*
X91464156Y-83034315D01*
D20*
X96000000Y-74800000D02*
X97200000Y-73600000D01*
D17*
X88000000Y-70700000D02*
X88000000Y-68126834D01*
X88211465Y-84589950D02*
X89908521Y-84589950D01*
X83700000Y-65849943D02*
X83700000Y-64700000D01*
X84750057Y-66900000D02*
X83700000Y-65849943D01*
X71000000Y-67200000D02*
X73500000Y-64700000D01*
X73500000Y-64700000D02*
X74100000Y-64700000D01*
D20*
X90300000Y-74800000D02*
X96000000Y-74800000D01*
D17*
X88000000Y-68126834D02*
X86773166Y-66900000D01*
%TO.N,+3.3V*%
X80200000Y-59100000D02*
X89500000Y-59100000D01*
X89500000Y-59100000D02*
X94400000Y-64000000D01*
%TO.N,row0*%
X115200000Y-73800000D02*
X113000000Y-71600000D01*
X113000000Y-71600000D02*
X83575000Y-71600000D01*
%TO.N,row1*%
X116450000Y-79300000D02*
X117750000Y-78000000D01*
X121200000Y-78000000D02*
X123000000Y-76200000D01*
X117750000Y-78000000D02*
X121200000Y-78000000D01*
X106400000Y-79300000D02*
X116450000Y-79300000D01*
%TO.N,potSig*%
X80839892Y-88500000D02*
X76600000Y-88500000D01*
X88900000Y-80439892D02*
X80839892Y-88500000D01*
X88900000Y-79300000D02*
X88900000Y-80439892D01*
%TO.N,Net-(L2-DOUT)*%
X84800000Y-66100000D02*
X84900000Y-66000000D01*
%TO.N,Net-(L3-DOUT)*%
X113600000Y-67500000D02*
X103800000Y-67500000D01*
X115150000Y-65950000D02*
X113600000Y-67500000D01*
X115200000Y-65950000D02*
X115150000Y-65950000D01*
%TO.N,col0*%
X76000000Y-58200000D02*
X95000000Y-58200000D01*
X57000000Y-58200000D02*
X76000000Y-58200000D01*
%TO.N,col1*%
X95000000Y-77200000D02*
X96100000Y-78300000D01*
X96100000Y-78300000D02*
X112900000Y-78300000D01*
X112900000Y-78300000D02*
X114000000Y-77200000D01*
X76242422Y-77442422D02*
X94757578Y-77442422D01*
%TO.N,USB_D+*%
X94900000Y-69300000D02*
X95298000Y-68902000D01*
X98750000Y-59650000D02*
X124450000Y-59650000D01*
X95298000Y-68902000D02*
X95298000Y-63102000D01*
X124450000Y-59650000D02*
X125100000Y-60300000D01*
X95298000Y-63102000D02*
X98750000Y-59650000D01*
%TO.N,USB_D-*%
X95699000Y-69699000D02*
X95699000Y-64201000D01*
X95699000Y-64201000D02*
X95899000Y-64001000D01*
X95899000Y-64001000D02*
X123899000Y-64001000D01*
X95800000Y-69800000D02*
X95699000Y-69699000D01*
X123899000Y-64001000D02*
X124100000Y-63800000D01*
%TD*%
M02*
