M48
; DRILL file {KiCad 9.0.2} date 2026-01-27T21:16:00+0100
; FORMAT={-:-/ absolute / metric / decimal}
; #@! TF.CreationDate,2026-01-27T21:16:00+01:00
; #@! TF.GenerationSoftware,Kicad,Pcbnew,9.0.2
; #@! TF.FileFunction,NonPlated,1,4,NPTH
FMAT,2
METRIC
; #@! TA.AperFunction,NonPlated,NPTH,ComponentDrill
T1C1.900
; #@! TA.AperFunction,NonPlated,NPTH,ComponentDrill
T2C2.200
; #@! TA.AperFunction,NonPlated,NPTH,ComponentDrill
T3C3.400
%
G90
G05
T1
X56.5Y-62.0
X56.5Y-81.0
X56.5Y-100.0
X56.5Y-119.0
X56.5Y-138.0
X67.5Y-62.0
X67.5Y-81.0
X67.5Y-100.0
X67.5Y-119.0
X67.5Y-138.0
X75.5Y-62.0
X75.5Y-81.0
X75.5Y-100.0
X75.5Y-119.0
X75.5Y-138.0
X86.5Y-62.0
X86.5Y-81.0
X86.5Y-100.0
X86.5Y-119.0
X86.5Y-138.0
X94.5Y-62.0
X94.5Y-81.0
X94.5Y-100.0
X94.5Y-119.0
X94.5Y-138.0
X105.5Y-62.0
X105.5Y-81.0
X105.5Y-100.0
X105.5Y-119.0
X105.5Y-138.0
X113.5Y-62.0
X113.5Y-81.0
X113.5Y-100.0
X113.5Y-119.0
X113.5Y-138.0
X124.5Y-62.0
X124.5Y-81.0
X124.5Y-100.0
X124.5Y-119.0
X124.5Y-138.0
X132.5Y-62.0
X132.5Y-81.0
X132.5Y-100.0
X132.5Y-119.0
X132.5Y-138.0
X143.5Y-62.0
X143.5Y-81.0
X143.5Y-100.0
X143.5Y-119.0
X143.5Y-138.0
T2
X62.0Y-66.7
X62.0Y-85.7
X62.0Y-104.7
X62.0Y-123.7
X62.2Y-142.5
X71.5Y-71.5
X71.5Y-128.5
X81.0Y-66.7
X81.0Y-85.7
X81.0Y-104.7
X81.0Y-123.7
X81.2Y-142.5
X100.0Y-66.7
X100.0Y-85.7
X100.0Y-104.7
X100.0Y-123.7
X100.0Y-142.7
X119.0Y-66.7
X119.0Y-85.7
X119.0Y-104.7
X119.0Y-123.7
X119.0Y-142.7
X128.5Y-71.5
X128.5Y-128.5
X138.0Y-66.7
X138.0Y-85.7
X138.0Y-104.7
X138.0Y-142.7
X138.2Y-123.5
T3
X62.0Y-62.0
X62.0Y-81.0
X62.0Y-100.0
X62.0Y-119.0
X62.0Y-138.0
X81.0Y-62.0
X81.0Y-81.0
X81.0Y-100.0
X81.0Y-119.0
X81.0Y-138.0
X100.0Y-62.0
X100.0Y-81.0
X100.0Y-100.0
X100.0Y-119.0
X100.0Y-138.0
X119.0Y-62.0
X119.0Y-81.0
X119.0Y-100.0
X119.0Y-119.0
X119.0Y-138.0
X138.0Y-62.0
X138.0Y-81.0
X138.0Y-100.0
X138.0Y-119.0
X138.0Y-138.0
M30
