%TF.GenerationSoftware,KiCad,Pcbnew,9.0.2*%
%TF.CreationDate,2026-01-27T21:16:03+01:00*%
%TF.ProjectId,Keymodule,4b65796d-6f64-4756-9c65-2e6b69636164,rev?*%
%TF.SameCoordinates,Original*%
%TF.FileFunction,Legend,Top*%
%TF.FilePolarity,Positive*%
%FSLAX46Y46*%
G04 Gerber Fmt 4.6, Leading zero omitted, Abs format (unit mm)*
G04 Created by KiCad (PCBNEW 9.0.2) date 2026-01-27 21:16:03*
%MOMM*%
%LPD*%
G01*
G04 APERTURE LIST*
%ADD10C,0.155000*%
%ADD11C,0.100000*%
%ADD12C,0.152400*%
%ADD13C,0.150000*%
%ADD14C,0.120000*%
G04 APERTURE END LIST*
D10*
X105200000Y-89400000D02*
X118900000Y-89400000D01*
X118900000Y-91900000D01*
X105200000Y-91900000D01*
X105200000Y-89400000D01*
D11*
X106203884Y-91072419D02*
X106203884Y-90072419D01*
X106775312Y-91072419D02*
X106346741Y-90500990D01*
X106775312Y-90072419D02*
X106203884Y-90643847D01*
X107584836Y-91024800D02*
X107489598Y-91072419D01*
X107489598Y-91072419D02*
X107299122Y-91072419D01*
X107299122Y-91072419D02*
X107203884Y-91024800D01*
X107203884Y-91024800D02*
X107156265Y-90929561D01*
X107156265Y-90929561D02*
X107156265Y-90548609D01*
X107156265Y-90548609D02*
X107203884Y-90453371D01*
X107203884Y-90453371D02*
X107299122Y-90405752D01*
X107299122Y-90405752D02*
X107489598Y-90405752D01*
X107489598Y-90405752D02*
X107584836Y-90453371D01*
X107584836Y-90453371D02*
X107632455Y-90548609D01*
X107632455Y-90548609D02*
X107632455Y-90643847D01*
X107632455Y-90643847D02*
X107156265Y-90739085D01*
X107965789Y-90405752D02*
X108203884Y-91072419D01*
X108441979Y-90405752D02*
X108203884Y-91072419D01*
X108203884Y-91072419D02*
X108108646Y-91310514D01*
X108108646Y-91310514D02*
X108061027Y-91358133D01*
X108061027Y-91358133D02*
X107965789Y-91405752D01*
X108822932Y-91072419D02*
X108822932Y-90405752D01*
X108822932Y-90500990D02*
X108870551Y-90453371D01*
X108870551Y-90453371D02*
X108965789Y-90405752D01*
X108965789Y-90405752D02*
X109108646Y-90405752D01*
X109108646Y-90405752D02*
X109203884Y-90453371D01*
X109203884Y-90453371D02*
X109251503Y-90548609D01*
X109251503Y-90548609D02*
X109251503Y-91072419D01*
X109251503Y-90548609D02*
X109299122Y-90453371D01*
X109299122Y-90453371D02*
X109394360Y-90405752D01*
X109394360Y-90405752D02*
X109537217Y-90405752D01*
X109537217Y-90405752D02*
X109632456Y-90453371D01*
X109632456Y-90453371D02*
X109680075Y-90548609D01*
X109680075Y-90548609D02*
X109680075Y-91072419D01*
X110299122Y-91072419D02*
X110203884Y-91024800D01*
X110203884Y-91024800D02*
X110156265Y-90977180D01*
X110156265Y-90977180D02*
X110108646Y-90881942D01*
X110108646Y-90881942D02*
X110108646Y-90596228D01*
X110108646Y-90596228D02*
X110156265Y-90500990D01*
X110156265Y-90500990D02*
X110203884Y-90453371D01*
X110203884Y-90453371D02*
X110299122Y-90405752D01*
X110299122Y-90405752D02*
X110441979Y-90405752D01*
X110441979Y-90405752D02*
X110537217Y-90453371D01*
X110537217Y-90453371D02*
X110584836Y-90500990D01*
X110584836Y-90500990D02*
X110632455Y-90596228D01*
X110632455Y-90596228D02*
X110632455Y-90881942D01*
X110632455Y-90881942D02*
X110584836Y-90977180D01*
X110584836Y-90977180D02*
X110537217Y-91024800D01*
X110537217Y-91024800D02*
X110441979Y-91072419D01*
X110441979Y-91072419D02*
X110299122Y-91072419D01*
X111489598Y-91072419D02*
X111489598Y-90072419D01*
X111489598Y-91024800D02*
X111394360Y-91072419D01*
X111394360Y-91072419D02*
X111203884Y-91072419D01*
X111203884Y-91072419D02*
X111108646Y-91024800D01*
X111108646Y-91024800D02*
X111061027Y-90977180D01*
X111061027Y-90977180D02*
X111013408Y-90881942D01*
X111013408Y-90881942D02*
X111013408Y-90596228D01*
X111013408Y-90596228D02*
X111061027Y-90500990D01*
X111061027Y-90500990D02*
X111108646Y-90453371D01*
X111108646Y-90453371D02*
X111203884Y-90405752D01*
X111203884Y-90405752D02*
X111394360Y-90405752D01*
X111394360Y-90405752D02*
X111489598Y-90453371D01*
X112394360Y-90405752D02*
X112394360Y-91072419D01*
X111965789Y-90405752D02*
X111965789Y-90929561D01*
X111965789Y-90929561D02*
X112013408Y-91024800D01*
X112013408Y-91024800D02*
X112108646Y-91072419D01*
X112108646Y-91072419D02*
X112251503Y-91072419D01*
X112251503Y-91072419D02*
X112346741Y-91024800D01*
X112346741Y-91024800D02*
X112394360Y-90977180D01*
X113013408Y-91072419D02*
X112918170Y-91024800D01*
X112918170Y-91024800D02*
X112870551Y-90929561D01*
X112870551Y-90929561D02*
X112870551Y-90072419D01*
X113775313Y-91024800D02*
X113680075Y-91072419D01*
X113680075Y-91072419D02*
X113489599Y-91072419D01*
X113489599Y-91072419D02*
X113394361Y-91024800D01*
X113394361Y-91024800D02*
X113346742Y-90929561D01*
X113346742Y-90929561D02*
X113346742Y-90548609D01*
X113346742Y-90548609D02*
X113394361Y-90453371D01*
X113394361Y-90453371D02*
X113489599Y-90405752D01*
X113489599Y-90405752D02*
X113680075Y-90405752D01*
X113680075Y-90405752D02*
X113775313Y-90453371D01*
X113775313Y-90453371D02*
X113822932Y-90548609D01*
X113822932Y-90548609D02*
X113822932Y-90643847D01*
X113822932Y-90643847D02*
X113346742Y-90739085D01*
X114870552Y-90072419D02*
X115203885Y-91072419D01*
X115203885Y-91072419D02*
X115537218Y-90072419D01*
X116394361Y-91072419D02*
X115822933Y-91072419D01*
X116108647Y-91072419D02*
X116108647Y-90072419D01*
X116108647Y-90072419D02*
X116013409Y-90215276D01*
X116013409Y-90215276D02*
X115918171Y-90310514D01*
X115918171Y-90310514D02*
X115822933Y-90358133D01*
X116822933Y-90977180D02*
X116870552Y-91024800D01*
X116870552Y-91024800D02*
X116822933Y-91072419D01*
X116822933Y-91072419D02*
X116775314Y-91024800D01*
X116775314Y-91024800D02*
X116822933Y-90977180D01*
X116822933Y-90977180D02*
X116822933Y-91072419D01*
X117822932Y-91072419D02*
X117251504Y-91072419D01*
X117537218Y-91072419D02*
X117537218Y-90072419D01*
X117537218Y-90072419D02*
X117441980Y-90215276D01*
X117441980Y-90215276D02*
X117346742Y-90310514D01*
X117346742Y-90310514D02*
X117251504Y-90358133D01*
D12*
X72300000Y-62200000D02*
X70600000Y-62200000D01*
X70600000Y-62200000D02*
X70600000Y-57500000D01*
X72300000Y-57600000D02*
X72300000Y-62200000D01*
X119000000Y-70000000D02*
X121900000Y-70000000D01*
X113000000Y-67300000D02*
X108800000Y-67300000D01*
X97600000Y-80200000D02*
X97600000Y-83900000D01*
X108894427Y-65600000D02*
X113000000Y-65600000D01*
X116500000Y-112700000D02*
X112600000Y-112700000D01*
X97600000Y-83900000D02*
X95900000Y-83900000D01*
X139800000Y-108600000D02*
X143800000Y-108600000D01*
X116500000Y-111000000D02*
X116500000Y-112700000D01*
X138700000Y-89600000D02*
X144400000Y-89600000D01*
X144400000Y-89600000D02*
X144400000Y-91300000D01*
X112500000Y-111000000D02*
X116500000Y-111000000D01*
X95900000Y-83900000D02*
X95900000Y-80100000D01*
X121900000Y-70000000D02*
X121900000Y-71700000D01*
X143800000Y-108600000D02*
X143800000Y-110300000D01*
X68700000Y-91300000D02*
X63000000Y-91300000D01*
X144400000Y-91300000D02*
X139900000Y-91300000D01*
X60200000Y-110300000D02*
X56200000Y-110300000D01*
X121900000Y-71700000D02*
X119100000Y-71700000D01*
X63000000Y-91300000D02*
X63000000Y-89600000D01*
X143800000Y-110300000D02*
X139900000Y-110300000D01*
X63000000Y-89600000D02*
X67500000Y-89600000D01*
X56200000Y-110300000D02*
X56200000Y-108600000D01*
X56200000Y-108600000D02*
X60100000Y-108600000D01*
X113000000Y-65600000D02*
X113000000Y-67300000D01*
D11*
X130103884Y-63891466D02*
X130865789Y-63891466D01*
X130003884Y-61391466D02*
X130765789Y-61391466D01*
X130384836Y-61772419D02*
X130384836Y-61010514D01*
X130627693Y-58420038D02*
X130532455Y-58372419D01*
X130532455Y-58372419D02*
X130389598Y-58372419D01*
X130389598Y-58372419D02*
X130246741Y-58420038D01*
X130246741Y-58420038D02*
X130151503Y-58515276D01*
X130151503Y-58515276D02*
X130103884Y-58610514D01*
X130103884Y-58610514D02*
X130056265Y-58800990D01*
X130056265Y-58800990D02*
X130056265Y-58943847D01*
X130056265Y-58943847D02*
X130103884Y-59134323D01*
X130103884Y-59134323D02*
X130151503Y-59229561D01*
X130151503Y-59229561D02*
X130246741Y-59324800D01*
X130246741Y-59324800D02*
X130389598Y-59372419D01*
X130389598Y-59372419D02*
X130484836Y-59372419D01*
X130484836Y-59372419D02*
X130627693Y-59324800D01*
X130627693Y-59324800D02*
X130675312Y-59277180D01*
X130675312Y-59277180D02*
X130675312Y-58943847D01*
X130675312Y-58943847D02*
X130484836Y-58943847D01*
X130580074Y-65972419D02*
X130103884Y-65972419D01*
X130103884Y-65972419D02*
X130056265Y-66448609D01*
X130056265Y-66448609D02*
X130103884Y-66400990D01*
X130103884Y-66400990D02*
X130199122Y-66353371D01*
X130199122Y-66353371D02*
X130437217Y-66353371D01*
X130437217Y-66353371D02*
X130532455Y-66400990D01*
X130532455Y-66400990D02*
X130580074Y-66448609D01*
X130580074Y-66448609D02*
X130627693Y-66543847D01*
X130627693Y-66543847D02*
X130627693Y-66781942D01*
X130627693Y-66781942D02*
X130580074Y-66877180D01*
X130580074Y-66877180D02*
X130532455Y-66924800D01*
X130532455Y-66924800D02*
X130437217Y-66972419D01*
X130437217Y-66972419D02*
X130199122Y-66972419D01*
X130199122Y-66972419D02*
X130103884Y-66924800D01*
X130103884Y-66924800D02*
X130056265Y-66877180D01*
X130913408Y-65972419D02*
X131246741Y-66972419D01*
X131246741Y-66972419D02*
X131580074Y-65972419D01*
D13*
X71431009Y-61457142D02*
X71478628Y-61314285D01*
X71478628Y-61314285D02*
X71526247Y-61266666D01*
X71526247Y-61266666D02*
X71621485Y-61219047D01*
X71621485Y-61219047D02*
X71764342Y-61219047D01*
X71764342Y-61219047D02*
X71859580Y-61266666D01*
X71859580Y-61266666D02*
X71907200Y-61314285D01*
X71907200Y-61314285D02*
X71954819Y-61409523D01*
X71954819Y-61409523D02*
X71954819Y-61790475D01*
X71954819Y-61790475D02*
X70954819Y-61790475D01*
X70954819Y-61790475D02*
X70954819Y-61457142D01*
X70954819Y-61457142D02*
X71002438Y-61361904D01*
X71002438Y-61361904D02*
X71050057Y-61314285D01*
X71050057Y-61314285D02*
X71145295Y-61266666D01*
X71145295Y-61266666D02*
X71240533Y-61266666D01*
X71240533Y-61266666D02*
X71335771Y-61314285D01*
X71335771Y-61314285D02*
X71383390Y-61361904D01*
X71383390Y-61361904D02*
X71431009Y-61457142D01*
X71431009Y-61457142D02*
X71431009Y-61790475D01*
X70954819Y-60599999D02*
X70954819Y-60409523D01*
X70954819Y-60409523D02*
X71002438Y-60314285D01*
X71002438Y-60314285D02*
X71097676Y-60219047D01*
X71097676Y-60219047D02*
X71288152Y-60171428D01*
X71288152Y-60171428D02*
X71621485Y-60171428D01*
X71621485Y-60171428D02*
X71811961Y-60219047D01*
X71811961Y-60219047D02*
X71907200Y-60314285D01*
X71907200Y-60314285D02*
X71954819Y-60409523D01*
X71954819Y-60409523D02*
X71954819Y-60599999D01*
X71954819Y-60599999D02*
X71907200Y-60695237D01*
X71907200Y-60695237D02*
X71811961Y-60790475D01*
X71811961Y-60790475D02*
X71621485Y-60838094D01*
X71621485Y-60838094D02*
X71288152Y-60838094D01*
X71288152Y-60838094D02*
X71097676Y-60790475D01*
X71097676Y-60790475D02*
X71002438Y-60695237D01*
X71002438Y-60695237D02*
X70954819Y-60599999D01*
X70954819Y-59552380D02*
X70954819Y-59361904D01*
X70954819Y-59361904D02*
X71002438Y-59266666D01*
X71002438Y-59266666D02*
X71097676Y-59171428D01*
X71097676Y-59171428D02*
X71288152Y-59123809D01*
X71288152Y-59123809D02*
X71621485Y-59123809D01*
X71621485Y-59123809D02*
X71811961Y-59171428D01*
X71811961Y-59171428D02*
X71907200Y-59266666D01*
X71907200Y-59266666D02*
X71954819Y-59361904D01*
X71954819Y-59361904D02*
X71954819Y-59552380D01*
X71954819Y-59552380D02*
X71907200Y-59647618D01*
X71907200Y-59647618D02*
X71811961Y-59742856D01*
X71811961Y-59742856D02*
X71621485Y-59790475D01*
X71621485Y-59790475D02*
X71288152Y-59790475D01*
X71288152Y-59790475D02*
X71097676Y-59742856D01*
X71097676Y-59742856D02*
X71002438Y-59647618D01*
X71002438Y-59647618D02*
X70954819Y-59552380D01*
X70954819Y-58838094D02*
X70954819Y-58266666D01*
X71954819Y-58552380D02*
X70954819Y-58552380D01*
X96314286Y-60354819D02*
X96314286Y-59354819D01*
X96314286Y-59354819D02*
X96552381Y-59354819D01*
X96552381Y-59354819D02*
X96695238Y-59402438D01*
X96695238Y-59402438D02*
X96790476Y-59497676D01*
X96790476Y-59497676D02*
X96838095Y-59592914D01*
X96838095Y-59592914D02*
X96885714Y-59783390D01*
X96885714Y-59783390D02*
X96885714Y-59926247D01*
X96885714Y-59926247D02*
X96838095Y-60116723D01*
X96838095Y-60116723D02*
X96790476Y-60211961D01*
X96790476Y-60211961D02*
X96695238Y-60307200D01*
X96695238Y-60307200D02*
X96552381Y-60354819D01*
X96552381Y-60354819D02*
X96314286Y-60354819D01*
X97314286Y-60354819D02*
X97314286Y-59354819D01*
X97314286Y-59354819D02*
X97885714Y-60354819D01*
X97885714Y-60354819D02*
X97885714Y-59354819D01*
X141268095Y-109002438D02*
X141172857Y-108954819D01*
X141172857Y-108954819D02*
X141030000Y-108954819D01*
X141030000Y-108954819D02*
X140887143Y-109002438D01*
X140887143Y-109002438D02*
X140791905Y-109097676D01*
X140791905Y-109097676D02*
X140744286Y-109192914D01*
X140744286Y-109192914D02*
X140696667Y-109383390D01*
X140696667Y-109383390D02*
X140696667Y-109526247D01*
X140696667Y-109526247D02*
X140744286Y-109716723D01*
X140744286Y-109716723D02*
X140791905Y-109811961D01*
X140791905Y-109811961D02*
X140887143Y-109907200D01*
X140887143Y-109907200D02*
X141030000Y-109954819D01*
X141030000Y-109954819D02*
X141125238Y-109954819D01*
X141125238Y-109954819D02*
X141268095Y-109907200D01*
X141268095Y-109907200D02*
X141315714Y-109859580D01*
X141315714Y-109859580D02*
X141315714Y-109526247D01*
X141315714Y-109526247D02*
X141125238Y-109526247D01*
X141744286Y-109954819D02*
X141744286Y-108954819D01*
X141744286Y-108954819D02*
X142315714Y-109954819D01*
X142315714Y-109954819D02*
X142315714Y-108954819D01*
X142791905Y-109954819D02*
X142791905Y-108954819D01*
X142791905Y-108954819D02*
X143030000Y-108954819D01*
X143030000Y-108954819D02*
X143172857Y-109002438D01*
X143172857Y-109002438D02*
X143268095Y-109097676D01*
X143268095Y-109097676D02*
X143315714Y-109192914D01*
X143315714Y-109192914D02*
X143363333Y-109383390D01*
X143363333Y-109383390D02*
X143363333Y-109526247D01*
X143363333Y-109526247D02*
X143315714Y-109716723D01*
X143315714Y-109716723D02*
X143268095Y-109811961D01*
X143268095Y-109811961D02*
X143172857Y-109907200D01*
X143172857Y-109907200D02*
X143030000Y-109954819D01*
X143030000Y-109954819D02*
X142791905Y-109954819D01*
X143109523Y-89954819D02*
X142633333Y-89954819D01*
X142633333Y-89954819D02*
X142585714Y-90431009D01*
X142585714Y-90431009D02*
X142633333Y-90383390D01*
X142633333Y-90383390D02*
X142728571Y-90335771D01*
X142728571Y-90335771D02*
X142966666Y-90335771D01*
X142966666Y-90335771D02*
X143061904Y-90383390D01*
X143061904Y-90383390D02*
X143109523Y-90431009D01*
X143109523Y-90431009D02*
X143157142Y-90526247D01*
X143157142Y-90526247D02*
X143157142Y-90764342D01*
X143157142Y-90764342D02*
X143109523Y-90859580D01*
X143109523Y-90859580D02*
X143061904Y-90907200D01*
X143061904Y-90907200D02*
X142966666Y-90954819D01*
X142966666Y-90954819D02*
X142728571Y-90954819D01*
X142728571Y-90954819D02*
X142633333Y-90907200D01*
X142633333Y-90907200D02*
X142585714Y-90859580D01*
X143442857Y-89954819D02*
X143776190Y-90954819D01*
X143776190Y-90954819D02*
X144109523Y-89954819D01*
X64509523Y-89954819D02*
X64033333Y-89954819D01*
X64033333Y-89954819D02*
X63985714Y-90431009D01*
X63985714Y-90431009D02*
X64033333Y-90383390D01*
X64033333Y-90383390D02*
X64128571Y-90335771D01*
X64128571Y-90335771D02*
X64366666Y-90335771D01*
X64366666Y-90335771D02*
X64461904Y-90383390D01*
X64461904Y-90383390D02*
X64509523Y-90431009D01*
X64509523Y-90431009D02*
X64557142Y-90526247D01*
X64557142Y-90526247D02*
X64557142Y-90764342D01*
X64557142Y-90764342D02*
X64509523Y-90859580D01*
X64509523Y-90859580D02*
X64461904Y-90907200D01*
X64461904Y-90907200D02*
X64366666Y-90954819D01*
X64366666Y-90954819D02*
X64128571Y-90954819D01*
X64128571Y-90954819D02*
X64033333Y-90907200D01*
X64033333Y-90907200D02*
X63985714Y-90859580D01*
X64842857Y-89954819D02*
X65176190Y-90954819D01*
X65176190Y-90954819D02*
X65509523Y-89954819D01*
X78114286Y-59554819D02*
X78114286Y-58554819D01*
X78114286Y-58554819D02*
X78352381Y-58554819D01*
X78352381Y-58554819D02*
X78495238Y-58602438D01*
X78495238Y-58602438D02*
X78590476Y-58697676D01*
X78590476Y-58697676D02*
X78638095Y-58792914D01*
X78638095Y-58792914D02*
X78685714Y-58983390D01*
X78685714Y-58983390D02*
X78685714Y-59126247D01*
X78685714Y-59126247D02*
X78638095Y-59316723D01*
X78638095Y-59316723D02*
X78590476Y-59411961D01*
X78590476Y-59411961D02*
X78495238Y-59507200D01*
X78495238Y-59507200D02*
X78352381Y-59554819D01*
X78352381Y-59554819D02*
X78114286Y-59554819D01*
X79114286Y-59554819D02*
X79114286Y-58554819D01*
X79114286Y-58554819D02*
X79685714Y-59554819D01*
X79685714Y-59554819D02*
X79685714Y-58554819D01*
X114038095Y-111402438D02*
X113942857Y-111354819D01*
X113942857Y-111354819D02*
X113800000Y-111354819D01*
X113800000Y-111354819D02*
X113657143Y-111402438D01*
X113657143Y-111402438D02*
X113561905Y-111497676D01*
X113561905Y-111497676D02*
X113514286Y-111592914D01*
X113514286Y-111592914D02*
X113466667Y-111783390D01*
X113466667Y-111783390D02*
X113466667Y-111926247D01*
X113466667Y-111926247D02*
X113514286Y-112116723D01*
X113514286Y-112116723D02*
X113561905Y-112211961D01*
X113561905Y-112211961D02*
X113657143Y-112307200D01*
X113657143Y-112307200D02*
X113800000Y-112354819D01*
X113800000Y-112354819D02*
X113895238Y-112354819D01*
X113895238Y-112354819D02*
X114038095Y-112307200D01*
X114038095Y-112307200D02*
X114085714Y-112259580D01*
X114085714Y-112259580D02*
X114085714Y-111926247D01*
X114085714Y-111926247D02*
X113895238Y-111926247D01*
X114514286Y-112354819D02*
X114514286Y-111354819D01*
X114514286Y-111354819D02*
X115085714Y-112354819D01*
X115085714Y-112354819D02*
X115085714Y-111354819D01*
X115561905Y-112354819D02*
X115561905Y-111354819D01*
X115561905Y-111354819D02*
X115800000Y-111354819D01*
X115800000Y-111354819D02*
X115942857Y-111402438D01*
X115942857Y-111402438D02*
X116038095Y-111497676D01*
X116038095Y-111497676D02*
X116085714Y-111592914D01*
X116085714Y-111592914D02*
X116133333Y-111783390D01*
X116133333Y-111783390D02*
X116133333Y-111926247D01*
X116133333Y-111926247D02*
X116085714Y-112116723D01*
X116085714Y-112116723D02*
X116038095Y-112211961D01*
X116038095Y-112211961D02*
X115942857Y-112307200D01*
X115942857Y-112307200D02*
X115800000Y-112354819D01*
X115800000Y-112354819D02*
X115561905Y-112354819D01*
X120609523Y-70354819D02*
X120133333Y-70354819D01*
X120133333Y-70354819D02*
X120085714Y-70831009D01*
X120085714Y-70831009D02*
X120133333Y-70783390D01*
X120133333Y-70783390D02*
X120228571Y-70735771D01*
X120228571Y-70735771D02*
X120466666Y-70735771D01*
X120466666Y-70735771D02*
X120561904Y-70783390D01*
X120561904Y-70783390D02*
X120609523Y-70831009D01*
X120609523Y-70831009D02*
X120657142Y-70926247D01*
X120657142Y-70926247D02*
X120657142Y-71164342D01*
X120657142Y-71164342D02*
X120609523Y-71259580D01*
X120609523Y-71259580D02*
X120561904Y-71307200D01*
X120561904Y-71307200D02*
X120466666Y-71354819D01*
X120466666Y-71354819D02*
X120228571Y-71354819D01*
X120228571Y-71354819D02*
X120133333Y-71307200D01*
X120133333Y-71307200D02*
X120085714Y-71259580D01*
X120942857Y-70354819D02*
X121276190Y-71354819D01*
X121276190Y-71354819D02*
X121609523Y-70354819D01*
X109723810Y-65954819D02*
X110342857Y-65954819D01*
X110342857Y-65954819D02*
X110009524Y-66335771D01*
X110009524Y-66335771D02*
X110152381Y-66335771D01*
X110152381Y-66335771D02*
X110247619Y-66383390D01*
X110247619Y-66383390D02*
X110295238Y-66431009D01*
X110295238Y-66431009D02*
X110342857Y-66526247D01*
X110342857Y-66526247D02*
X110342857Y-66764342D01*
X110342857Y-66764342D02*
X110295238Y-66859580D01*
X110295238Y-66859580D02*
X110247619Y-66907200D01*
X110247619Y-66907200D02*
X110152381Y-66954819D01*
X110152381Y-66954819D02*
X109866667Y-66954819D01*
X109866667Y-66954819D02*
X109771429Y-66907200D01*
X109771429Y-66907200D02*
X109723810Y-66859580D01*
X110771429Y-66859580D02*
X110819048Y-66907200D01*
X110819048Y-66907200D02*
X110771429Y-66954819D01*
X110771429Y-66954819D02*
X110723810Y-66907200D01*
X110723810Y-66907200D02*
X110771429Y-66859580D01*
X110771429Y-66859580D02*
X110771429Y-66954819D01*
X111152381Y-65954819D02*
X111771428Y-65954819D01*
X111771428Y-65954819D02*
X111438095Y-66335771D01*
X111438095Y-66335771D02*
X111580952Y-66335771D01*
X111580952Y-66335771D02*
X111676190Y-66383390D01*
X111676190Y-66383390D02*
X111723809Y-66431009D01*
X111723809Y-66431009D02*
X111771428Y-66526247D01*
X111771428Y-66526247D02*
X111771428Y-66764342D01*
X111771428Y-66764342D02*
X111723809Y-66859580D01*
X111723809Y-66859580D02*
X111676190Y-66907200D01*
X111676190Y-66907200D02*
X111580952Y-66954819D01*
X111580952Y-66954819D02*
X111295238Y-66954819D01*
X111295238Y-66954819D02*
X111200000Y-66907200D01*
X111200000Y-66907200D02*
X111152381Y-66859580D01*
X112057143Y-65954819D02*
X112390476Y-66954819D01*
X112390476Y-66954819D02*
X112723809Y-65954819D01*
X97254819Y-82938095D02*
X96778628Y-83271428D01*
X97254819Y-83509523D02*
X96254819Y-83509523D01*
X96254819Y-83509523D02*
X96254819Y-83128571D01*
X96254819Y-83128571D02*
X96302438Y-83033333D01*
X96302438Y-83033333D02*
X96350057Y-82985714D01*
X96350057Y-82985714D02*
X96445295Y-82938095D01*
X96445295Y-82938095D02*
X96588152Y-82938095D01*
X96588152Y-82938095D02*
X96683390Y-82985714D01*
X96683390Y-82985714D02*
X96731009Y-83033333D01*
X96731009Y-83033333D02*
X96778628Y-83128571D01*
X96778628Y-83128571D02*
X96778628Y-83509523D01*
X96254819Y-82509523D02*
X97064342Y-82509523D01*
X97064342Y-82509523D02*
X97159580Y-82461904D01*
X97159580Y-82461904D02*
X97207200Y-82414285D01*
X97207200Y-82414285D02*
X97254819Y-82319047D01*
X97254819Y-82319047D02*
X97254819Y-82128571D01*
X97254819Y-82128571D02*
X97207200Y-82033333D01*
X97207200Y-82033333D02*
X97159580Y-81985714D01*
X97159580Y-81985714D02*
X97064342Y-81938095D01*
X97064342Y-81938095D02*
X96254819Y-81938095D01*
X97254819Y-81461904D02*
X96254819Y-81461904D01*
X96254819Y-81461904D02*
X97254819Y-80890476D01*
X97254819Y-80890476D02*
X96254819Y-80890476D01*
X57208095Y-109002438D02*
X57112857Y-108954819D01*
X57112857Y-108954819D02*
X56970000Y-108954819D01*
X56970000Y-108954819D02*
X56827143Y-109002438D01*
X56827143Y-109002438D02*
X56731905Y-109097676D01*
X56731905Y-109097676D02*
X56684286Y-109192914D01*
X56684286Y-109192914D02*
X56636667Y-109383390D01*
X56636667Y-109383390D02*
X56636667Y-109526247D01*
X56636667Y-109526247D02*
X56684286Y-109716723D01*
X56684286Y-109716723D02*
X56731905Y-109811961D01*
X56731905Y-109811961D02*
X56827143Y-109907200D01*
X56827143Y-109907200D02*
X56970000Y-109954819D01*
X56970000Y-109954819D02*
X57065238Y-109954819D01*
X57065238Y-109954819D02*
X57208095Y-109907200D01*
X57208095Y-109907200D02*
X57255714Y-109859580D01*
X57255714Y-109859580D02*
X57255714Y-109526247D01*
X57255714Y-109526247D02*
X57065238Y-109526247D01*
X57684286Y-109954819D02*
X57684286Y-108954819D01*
X57684286Y-108954819D02*
X58255714Y-109954819D01*
X58255714Y-109954819D02*
X58255714Y-108954819D01*
X58731905Y-109954819D02*
X58731905Y-108954819D01*
X58731905Y-108954819D02*
X58970000Y-108954819D01*
X58970000Y-108954819D02*
X59112857Y-109002438D01*
X59112857Y-109002438D02*
X59208095Y-109097676D01*
X59208095Y-109097676D02*
X59255714Y-109192914D01*
X59255714Y-109192914D02*
X59303333Y-109383390D01*
X59303333Y-109383390D02*
X59303333Y-109526247D01*
X59303333Y-109526247D02*
X59255714Y-109716723D01*
X59255714Y-109716723D02*
X59208095Y-109811961D01*
X59208095Y-109811961D02*
X59112857Y-109907200D01*
X59112857Y-109907200D02*
X58970000Y-109954819D01*
X58970000Y-109954819D02*
X58731905Y-109954819D01*
D14*
%TO.C,BOOT*%
X72700000Y-56638892D02*
G75*
G02*
X70300000Y-56638892I-1200000J0D01*
G01*
X70300000Y-56638892D02*
G75*
G02*
X72700000Y-56638892I1200000J0D01*
G01*
%TO.C,DN*%
X96420000Y-61436359D02*
X96420000Y-61743641D01*
X97180000Y-61436359D02*
X97180000Y-61743641D01*
%TO.C,D16*%
X101565000Y-112385000D02*
X101565000Y-113855000D01*
X101565000Y-113855000D02*
X103850000Y-113855000D01*
X103850000Y-112385000D02*
X101565000Y-112385000D01*
D11*
%TO.C,L3*%
X96600000Y-67800000D02*
X97400000Y-68600000D01*
D14*
%TO.C,D17*%
X101565000Y-131385000D02*
X101565000Y-132855000D01*
X101565000Y-132855000D02*
X103850000Y-132855000D01*
X103850000Y-131385000D02*
X101565000Y-131385000D01*
%TO.C,U2*%
X61237500Y-69690000D02*
X60437500Y-69690000D01*
X61237500Y-69690000D02*
X62037500Y-69690000D01*
X61237500Y-72810000D02*
X60437500Y-72810000D01*
X61237500Y-72810000D02*
X62037500Y-72810000D01*
X62777500Y-73090000D02*
X62297500Y-73090000D01*
X62537500Y-72760000D01*
X62777500Y-73090000D01*
G36*
X62777500Y-73090000D02*
G01*
X62297500Y-73090000D01*
X62537500Y-72760000D01*
X62777500Y-73090000D01*
G37*
%TO.C,C13*%
X90648039Y-81385226D02*
X90495536Y-81232723D01*
X91157156Y-80876109D02*
X91004653Y-80723606D01*
%TO.C,D21*%
X82565000Y-112385000D02*
X82565000Y-113855000D01*
X82565000Y-113855000D02*
X84850000Y-113855000D01*
X84850000Y-112385000D02*
X82565000Y-112385000D01*
D11*
%TO.C,L11*%
X58600000Y-105800000D02*
X59400000Y-106600000D01*
D14*
%TO.C,GND*%
X138790000Y-108690000D02*
X139600000Y-108690000D01*
X138790000Y-109500000D02*
X138790000Y-108690000D01*
%TO.C,U1*%
X83574060Y-73154944D02*
X84033679Y-72695325D01*
X84033679Y-73614563D02*
X83574060Y-73154944D01*
X88219752Y-68509252D02*
X88509665Y-68219339D01*
X88219752Y-77800636D02*
X88679371Y-78260255D01*
X88679371Y-78260255D02*
X89138990Y-77800636D01*
X89138990Y-68509252D02*
X88891503Y-68261765D01*
X93325063Y-72695325D02*
X93784682Y-73154944D01*
X93784682Y-73154944D02*
X93325063Y-73614563D01*
X89082422Y-67985993D02*
X88679371Y-68049633D01*
X88743011Y-67646582D01*
X89082422Y-67985993D01*
G36*
X89082422Y-67985993D02*
G01*
X88679371Y-68049633D01*
X88743011Y-67646582D01*
X89082422Y-67985993D01*
G37*
%TO.C,D26*%
X63515000Y-112385000D02*
X63515000Y-113855000D01*
X63515000Y-113855000D02*
X65800000Y-113855000D01*
X65800000Y-112385000D02*
X63515000Y-112385000D01*
%TO.C,C11*%
X93009150Y-67784678D02*
X93161653Y-67632175D01*
X93518267Y-68293795D02*
X93670770Y-68141292D01*
D11*
%TO.C,L19*%
X115600000Y-124800000D02*
X116400000Y-125600000D01*
D14*
%TO.C,D13*%
X101565000Y-55385000D02*
X101565000Y-56855000D01*
X101565000Y-56855000D02*
X103850000Y-56855000D01*
X103850000Y-55385000D02*
X101565000Y-55385000D01*
%TO.C,D5*%
X139565000Y-93385000D02*
X139565000Y-94855000D01*
X139565000Y-94855000D02*
X141850000Y-94855000D01*
X141850000Y-93385000D02*
X139565000Y-93385000D01*
%TO.C,D7*%
X139565000Y-131385000D02*
X139565000Y-132855000D01*
X139565000Y-132855000D02*
X141850000Y-132855000D01*
X141850000Y-131385000D02*
X139565000Y-131385000D01*
%TO.C,U3*%
X106090000Y-68890000D02*
X106090000Y-70150000D01*
X106090000Y-75710000D02*
X106090000Y-74450000D01*
X109850000Y-68890000D02*
X106090000Y-68890000D01*
X109850000Y-75710000D02*
X106090000Y-75710000D01*
X111370000Y-75940000D02*
X110890000Y-75940000D01*
X111130000Y-75610000D01*
X111370000Y-75940000D01*
G36*
X111370000Y-75940000D02*
G01*
X110890000Y-75940000D01*
X111130000Y-75610000D01*
X111370000Y-75940000D01*
G37*
D11*
%TO.C,L7*%
X77600000Y-86800000D02*
X78400000Y-87600000D01*
%TO.C,L24*%
X115600000Y-143800000D02*
X116400000Y-144600000D01*
D14*
%TO.C,D20*%
X82565000Y-93385000D02*
X82565000Y-94855000D01*
X82565000Y-94855000D02*
X84850000Y-94855000D01*
X84850000Y-93385000D02*
X82565000Y-93385000D01*
D11*
%TO.C,L14*%
X115600000Y-105800000D02*
X116400000Y-106600000D01*
%TO.C,L20*%
X134800000Y-124600000D02*
X135600000Y-125400000D01*
D14*
%TO.C,D14*%
X101265000Y-74427500D02*
X101265000Y-76712500D01*
X102735000Y-74427500D02*
X101265000Y-74427500D01*
X102735000Y-76712500D02*
X102735000Y-74427500D01*
%TO.C,D3*%
X139565000Y-55385000D02*
X139565000Y-56855000D01*
X139565000Y-56855000D02*
X141850000Y-56855000D01*
X141850000Y-55385000D02*
X139565000Y-55385000D01*
D11*
%TO.C,L13*%
X96600000Y-105800000D02*
X97400000Y-106600000D01*
%TO.C,L15*%
X134600000Y-105800000D02*
X135400000Y-106600000D01*
%TO.C,L4*%
X115600000Y-67800000D02*
X116400000Y-68600000D01*
D14*
%TO.C,C12*%
X95661653Y-70832175D02*
X95509150Y-70984678D01*
X96170770Y-71341292D02*
X96018267Y-71493795D01*
D11*
%TO.C,L18*%
X96600000Y-124800000D02*
X97400000Y-125600000D01*
D14*
%TO.C,D15*%
X101565000Y-93385000D02*
X101565000Y-94855000D01*
X101565000Y-94855000D02*
X103850000Y-94855000D01*
X103850000Y-93385000D02*
X101565000Y-93385000D01*
D11*
%TO.C,L8*%
X96600000Y-86800000D02*
X97400000Y-87600000D01*
D14*
%TO.C,5V*%
X68710000Y-90500000D02*
X68710000Y-91310000D01*
X68710000Y-91310000D02*
X67900000Y-91310000D01*
D11*
%TO.C,L17*%
X77600000Y-124800000D02*
X78400000Y-125600000D01*
D14*
%TO.C,U4*%
X87745304Y-59165724D02*
X88015304Y-59165724D01*
X87745304Y-61925724D02*
X87745304Y-59165724D01*
X87745304Y-61925724D02*
X87745304Y-64685724D01*
X87745304Y-64685724D02*
X88015304Y-64685724D01*
X93265304Y-59165724D02*
X92995304Y-59165724D01*
X93265304Y-61925724D02*
X93265304Y-59165724D01*
X93265304Y-61925724D02*
X93265304Y-64685724D01*
X93265304Y-64685724D02*
X92995304Y-64685724D01*
X93325304Y-58640724D02*
X92995303Y-58400724D01*
X93325304Y-58160724D01*
X93325304Y-58640724D01*
G36*
X93325304Y-58640724D02*
G01*
X92995303Y-58400724D01*
X93325304Y-58160724D01*
X93325304Y-58640724D01*
G37*
%TO.C,DN*%
X81743641Y-58620000D02*
X81436359Y-58620000D01*
X81743641Y-59380000D02*
X81436359Y-59380000D01*
D11*
%TO.C,L22*%
X77800000Y-143600000D02*
X78600000Y-144400000D01*
D14*
%TO.C,D22*%
X82565000Y-131385000D02*
X82565000Y-132855000D01*
X82565000Y-132855000D02*
X84850000Y-132855000D01*
X84850000Y-131385000D02*
X82565000Y-131385000D01*
%TO.C,C8*%
X93382282Y-74708601D02*
X93229779Y-74861104D01*
X93891399Y-75217718D02*
X93738896Y-75370221D01*
%TO.C,D10*%
X120565000Y-93385000D02*
X120565000Y-94855000D01*
X120565000Y-94855000D02*
X122850000Y-94855000D01*
X122850000Y-93385000D02*
X120565000Y-93385000D01*
%TO.C,R6*%
X125920000Y-60856358D02*
X125920000Y-61163640D01*
X126680000Y-60856358D02*
X126680000Y-61163640D01*
%TO.C,GND*%
X112900000Y-111900000D02*
G75*
G02*
X110500000Y-111900000I-1200000J0D01*
G01*
X110500000Y-111900000D02*
G75*
G02*
X112900000Y-111900000I1200000J0D01*
G01*
%TO.C,D25*%
X63515000Y-93385000D02*
X63515000Y-94855000D01*
X63515000Y-94855000D02*
X65800000Y-94855000D01*
X65800000Y-93385000D02*
X63515000Y-93385000D01*
%TO.C,C15*%
X57940000Y-71787836D02*
X57940000Y-71572164D01*
X58660000Y-71787836D02*
X58660000Y-71572164D01*
%TO.C,D23*%
X63515000Y-55385000D02*
X63515000Y-56855000D01*
X63515000Y-56855000D02*
X65800000Y-56855000D01*
X65800000Y-55385000D02*
X63515000Y-55385000D01*
D11*
%TO.C,L10*%
X134600000Y-86800000D02*
X135400000Y-87600000D01*
%TO.C,L21*%
X58800000Y-143600000D02*
X59600000Y-144400000D01*
D14*
%TO.C,D50*%
X63515000Y-131385000D02*
X63515000Y-132855000D01*
X63515000Y-132855000D02*
X65800000Y-132855000D01*
X65800000Y-131385000D02*
X63515000Y-131385000D01*
%TO.C,D18*%
X82565000Y-55385000D02*
X82565000Y-56855000D01*
X82565000Y-56855000D02*
X84850000Y-56855000D01*
X84850000Y-55385000D02*
X82565000Y-55385000D01*
%TO.C,C4*%
X94509150Y-73962470D02*
X94661653Y-74114973D01*
X95018267Y-73453353D02*
X95170770Y-73605856D01*
%TO.C,D11*%
X120565000Y-112385000D02*
X120565000Y-113855000D01*
X120565000Y-113855000D02*
X122850000Y-113855000D01*
X122850000Y-112385000D02*
X120565000Y-112385000D01*
%TO.C,D4*%
X139565000Y-74385000D02*
X139565000Y-75855000D01*
X139565000Y-75855000D02*
X141850000Y-75855000D01*
X141850000Y-74385000D02*
X139565000Y-74385000D01*
D11*
%TO.C,L23*%
X96600000Y-143800000D02*
X97400000Y-144600000D01*
D14*
%TO.C,C9*%
X95309150Y-73162469D02*
X95461653Y-73314972D01*
X95818267Y-72653352D02*
X95970770Y-72805855D01*
%TO.C,D19*%
X77312500Y-75635000D02*
X79597500Y-75635000D01*
X79597500Y-74165000D02*
X77312500Y-74165000D01*
X79597500Y-75635000D02*
X79597500Y-74165000D01*
%TO.C,C5*%
X93809150Y-68384678D02*
X93961653Y-68232175D01*
X94318267Y-68893795D02*
X94470770Y-68741292D01*
%TO.C,R2*%
X83636359Y-57620000D02*
X83943641Y-57620000D01*
X83636359Y-58380000D02*
X83943641Y-58380000D01*
D11*
%TO.C,L9*%
X115600000Y-86800000D02*
X116400000Y-87600000D01*
D14*
%TO.C,5V*%
X119400000Y-70900000D02*
G75*
G02*
X117000000Y-70900000I-1200000J0D01*
G01*
X117000000Y-70900000D02*
G75*
G02*
X119400000Y-70900000I1200000J0D01*
G01*
%TO.C,C1*%
X112865000Y-71211252D02*
X112865000Y-70688748D01*
X114335000Y-71211252D02*
X114335000Y-70688748D01*
%TO.C,R4*%
X90983283Y-78079316D02*
X91200564Y-77862035D01*
X91520684Y-78616717D02*
X91737965Y-78399436D01*
%TO.C,Y1*%
X87382736Y-82786827D02*
X89164645Y-84568736D01*
X89164645Y-84568736D02*
X91229396Y-82503985D01*
%TO.C,C14*%
X87027652Y-83919729D02*
X86875149Y-84072232D01*
X87536769Y-84428846D02*
X87384266Y-84581349D01*
%TO.C,D6*%
X139565000Y-112385000D02*
X139565000Y-113855000D01*
X139565000Y-113855000D02*
X141850000Y-113855000D01*
X141850000Y-112385000D02*
X139565000Y-112385000D01*
D11*
%TO.C,L6*%
X58600000Y-86800000D02*
X59400000Y-87600000D01*
D14*
%TO.C,R5*%
X86072014Y-83291448D02*
X86289295Y-83074167D01*
X86609415Y-83828849D02*
X86826696Y-83611568D01*
%TO.C,3.3V*%
X109200000Y-66400000D02*
G75*
G02*
X106800000Y-66400000I-1200000J0D01*
G01*
X106800000Y-66400000D02*
G75*
G02*
X109200000Y-66400000I1200000J0D01*
G01*
D11*
%TO.C,L5*%
X134600000Y-67800000D02*
X135400000Y-68600000D01*
D14*
%TO.C,C10*%
X93790000Y-65977836D02*
X93790000Y-65762164D01*
X94510000Y-65977836D02*
X94510000Y-65762164D01*
%TO.C,C2*%
X101165000Y-71788748D02*
X101165000Y-72311252D01*
X102635000Y-71788748D02*
X102635000Y-72311252D01*
D11*
%TO.C,L2*%
X77600000Y-67800000D02*
X78400000Y-68600000D01*
D14*
%TO.C,D12*%
X120565000Y-131385000D02*
X120565000Y-132855000D01*
X120565000Y-132855000D02*
X122850000Y-132855000D01*
X122850000Y-131385000D02*
X120565000Y-131385000D01*
%TO.C,D9*%
X120502500Y-74265000D02*
X120502500Y-75735000D01*
X120502500Y-75735000D02*
X122787500Y-75735000D01*
X122787500Y-74265000D02*
X120502500Y-74265000D01*
%TO.C,D8*%
X120565000Y-55385000D02*
X120565000Y-56855000D01*
X120565000Y-56855000D02*
X122850000Y-56855000D01*
X122850000Y-55385000D02*
X120565000Y-55385000D01*
%TO.C,R7*%
X125636360Y-63420000D02*
X125943642Y-63420000D01*
X125636360Y-64180000D02*
X125943642Y-64180000D01*
D11*
%TO.C,L12*%
X77600000Y-105800000D02*
X78400000Y-106600000D01*
D14*
%TO.C,D24*%
X63515000Y-74385000D02*
X63515000Y-75855000D01*
X63515000Y-75855000D02*
X65800000Y-75855000D01*
X65800000Y-74385000D02*
X63515000Y-74385000D01*
D11*
%TO.C,L1*%
X58600000Y-67800000D02*
X59400000Y-68600000D01*
%TO.C,L16*%
X58600000Y-124800000D02*
X59400000Y-125600000D01*
D14*
%TO.C,RUN*%
X98000000Y-79300000D02*
G75*
G02*
X95600000Y-79300000I-1200000J0D01*
G01*
X95600000Y-79300000D02*
G75*
G02*
X98000000Y-79300000I1200000J0D01*
G01*
D11*
%TO.C,L25*%
X134600000Y-143800000D02*
X135400000Y-144600000D01*
D14*
%TO.C,GND*%
X61210000Y-109500000D02*
X61210000Y-110310000D01*
X61210000Y-110310000D02*
X60400000Y-110310000D01*
%TD*%
M02*
