%TF.GenerationSoftware,KiCad,Pcbnew,9.0.2*%
%TF.CreationDate,2026-02-16T21:11:57+01:00*%
%TF.ProjectId,Keymodule,4b65796d-6f64-4756-9c65-2e6b69636164,rev?*%
%TF.SameCoordinates,Original*%
%TF.FileFunction,Copper,L3,Inr*%
%TF.FilePolarity,Positive*%
%FSLAX46Y46*%
G04 Gerber Fmt 4.6, Leading zero omitted, Abs format (unit mm)*
G04 Created by KiCad (PCBNEW 9.0.2) date 2026-02-16 21:11:57*
%MOMM*%
%LPD*%
G01*
G04 APERTURE LIST*
%TA.AperFunction,ComponentPad*%
%ADD10R,1.700000X1.700000*%
%TD*%
%TA.AperFunction,ComponentPad*%
%ADD11C,1.700000*%
%TD*%
%TA.AperFunction,ComponentPad*%
%ADD12R,1.000000X1.000000*%
%TD*%
%TA.AperFunction,ComponentPad*%
%ADD13C,1.400000*%
%TD*%
%TA.AperFunction,ComponentPad*%
%ADD14C,2.000000*%
%TD*%
%TA.AperFunction,ViaPad*%
%ADD15C,0.450000*%
%TD*%
%TA.AperFunction,ViaPad*%
%ADD16C,0.600000*%
%TD*%
%TA.AperFunction,ViaPad*%
%ADD17C,1.000000*%
%TD*%
%TA.AperFunction,Conductor*%
%ADD18C,1.000000*%
%TD*%
%TA.AperFunction,Conductor*%
%ADD19C,0.200000*%
%TD*%
%TA.AperFunction,Conductor*%
%ADD20C,0.600000*%
%TD*%
%TA.AperFunction,Conductor*%
%ADD21C,0.400000*%
%TD*%
%TA.AperFunction,Conductor*%
%ADD22C,0.300000*%
%TD*%
G04 APERTURE END LIST*
D10*
%TO.N,potSig*%
%TO.C,J3*%
X71500000Y-102560000D03*
D11*
%TO.N,SDA*%
X71500000Y-100020000D03*
%TO.N,SCL*%
X71500000Y-97480000D03*
%TD*%
D12*
%TO.N,GND*%
%TO.C,GND*%
X139600000Y-109500000D03*
%TD*%
%TO.N,+5V*%
%TO.C,5V*%
X139600000Y-90500000D03*
%TD*%
%TO.N,+5V*%
%TO.C,5V*%
X60400000Y-90500000D03*
%TD*%
D10*
%TO.N,+5V*%
%TO.C,REF\u002A\u002A*%
X128600000Y-66400000D03*
D11*
%TO.N,Net-(J11-Pin_4)*%
X128600000Y-63860000D03*
%TO.N,Net-(J11-Pin_3)*%
X128600000Y-61320000D03*
%TO.N,GND*%
X128600000Y-58780000D03*
%TO.N,N/C*%
X128600000Y-56240000D03*
%TD*%
D13*
%TO.N,WS2812bData*%
%TO.C,REF\u002A\u002A*%
X58900000Y-61300000D03*
X58900000Y-63300000D03*
%TD*%
D14*
%TO.N,N/C*%
%TO.C,RESET*%
X113100000Y-92800000D03*
%TO.N,GND*%
X106600000Y-92800000D03*
%TO.N,N/C*%
X113100000Y-88300000D03*
%TO.N,/run*%
X106600000Y-88300000D03*
%TD*%
D13*
%TO.N,GND*%
%TO.C,REF\u002A\u002A*%
X143000000Y-141100000D03*
%TO.N,unconnected-(L25-DOUT-Pad2)*%
X143000000Y-143100000D03*
%TD*%
D12*
%TO.N,GND*%
%TO.C,GND*%
X60400000Y-109500000D03*
%TD*%
D14*
%TO.N,Net-(D20-K)*%
%TO.C,M_SW18*%
X81000000Y-94100000D03*
%TO.N,col2*%
X76000000Y-96200000D03*
%TD*%
%TO.N,Net-(D4-K)*%
%TO.C,M_SW2*%
X138000000Y-75100000D03*
%TO.N,col1*%
X133000000Y-77200000D03*
%TD*%
%TO.N,Net-(D23-K)*%
%TO.C,M_SW21*%
X62000000Y-56100000D03*
%TO.N,col0*%
X57000000Y-58200000D03*
%TD*%
%TO.N,Net-(D22-K)*%
%TO.C,M_SW20*%
X81000000Y-132100000D03*
%TO.N,col4*%
X76000000Y-134200000D03*
%TD*%
%TO.N,Net-(D11-K)*%
%TO.C,M_SW9*%
X119000000Y-113100000D03*
%TO.N,col3*%
X114000000Y-115200000D03*
%TD*%
%TO.N,Net-(D8-K)*%
%TO.C,M_SW6*%
X119000000Y-56100000D03*
%TO.N,col0*%
X114000000Y-58200000D03*
%TD*%
%TO.N,Net-(D7-K)*%
%TO.C,M_SW5*%
X138000000Y-132100000D03*
%TO.N,col4*%
X133000000Y-134200000D03*
%TD*%
%TO.N,Net-(D21-K)*%
%TO.C,M_SW19*%
X81000000Y-113100000D03*
%TO.N,col3*%
X76000000Y-115200000D03*
%TD*%
%TO.N,Net-(D10-K)*%
%TO.C,M_SW8*%
X119000000Y-94100000D03*
%TO.N,col2*%
X114000000Y-96200000D03*
%TD*%
%TO.N,Net-(D14-K)*%
%TO.C,M_SW12*%
X100000000Y-75100000D03*
%TO.N,col1*%
X95000000Y-77200000D03*
%TD*%
%TO.N,Net-(D25-K)*%
%TO.C,M_SW23*%
X62000000Y-94100000D03*
%TO.N,col2*%
X57000000Y-96200000D03*
%TD*%
%TO.N,Net-(D13-K)*%
%TO.C,M_SW11*%
X100000000Y-56100000D03*
%TO.N,col0*%
X95000000Y-58200000D03*
%TD*%
%TO.N,Net-(D18-K)*%
%TO.C,M_SW16*%
X81000000Y-56100000D03*
%TO.N,col0*%
X76000000Y-58200000D03*
%TD*%
%TO.N,Net-(D9-K)*%
%TO.C,M_SW7*%
X119000000Y-75100000D03*
%TO.N,col1*%
X114000000Y-77200000D03*
%TD*%
%TO.N,Net-(D5-K)*%
%TO.C,M_SW3*%
X138000000Y-94100000D03*
%TO.N,col2*%
X133000000Y-96200000D03*
%TD*%
%TO.N,Net-(D26-K)*%
%TO.C,M_SW24*%
X62000000Y-113100000D03*
%TO.N,col3*%
X57000000Y-115200000D03*
%TD*%
%TO.N,Net-(D16-K)*%
%TO.C,M_SW14*%
X100000000Y-113100000D03*
%TO.N,col3*%
X95000000Y-115200000D03*
%TD*%
D10*
%TO.N,potSig*%
%TO.C,J6*%
X128500000Y-102560000D03*
D11*
%TO.N,SDA*%
X128500000Y-100020000D03*
%TO.N,SCL*%
X128500000Y-97480000D03*
%TD*%
D14*
%TO.N,Net-(D50-K)*%
%TO.C,M_SW25*%
X62000000Y-132100000D03*
%TO.N,col4*%
X57000000Y-134200000D03*
%TD*%
%TO.N,Net-(D17-K)*%
%TO.C,M_SW15*%
X100000000Y-132100000D03*
%TO.N,col4*%
X95000000Y-134200000D03*
%TD*%
%TO.N,Net-(D6-K)*%
%TO.C,M_SW4*%
X138000000Y-113100000D03*
%TO.N,col3*%
X133000000Y-115200000D03*
%TD*%
%TO.N,Net-(D15-K)*%
%TO.C,M_SW13*%
X100000000Y-94100000D03*
%TO.N,col2*%
X95000000Y-96200000D03*
%TD*%
%TO.N,Net-(D3-K)*%
%TO.C,M_SW1*%
X138000000Y-56100000D03*
%TO.N,col0*%
X133000000Y-58200000D03*
%TD*%
%TO.N,Net-(D12-K)*%
%TO.C,M_SW10*%
X119000000Y-132100000D03*
%TO.N,col4*%
X114000000Y-134200000D03*
%TD*%
%TO.N,Net-(D19-K)*%
%TO.C,M_SW17*%
X81000000Y-75100000D03*
%TO.N,col1*%
X76000000Y-77200000D03*
%TD*%
%TO.N,Net-(D24-K)*%
%TO.C,M_SW22*%
X62000000Y-75100000D03*
%TO.N,col1*%
X57000000Y-77200000D03*
%TD*%
D15*
%TO.N,/run*%
X91600000Y-79700000D03*
D16*
X108100000Y-82100000D03*
D17*
%TO.N,+5V*%
X115400000Y-70000000D03*
D16*
X99100000Y-68500000D03*
X77400000Y-68501000D03*
X68800000Y-87600000D03*
X90500000Y-106900000D03*
X90500000Y-144600000D03*
X60400000Y-73400000D03*
X60800000Y-68900000D03*
X90500000Y-125700000D03*
%TO.N,GND*%
X104000000Y-66000000D03*
X71000000Y-67200000D03*
X91464156Y-83034315D03*
X81800000Y-72300000D03*
X89400000Y-75500000D03*
X74100000Y-64700000D03*
X107900000Y-83800000D03*
D17*
X109500000Y-108100000D03*
D16*
X83700000Y-64700000D03*
D17*
X109500000Y-77400000D03*
D15*
X105600000Y-104000000D03*
D16*
X83100000Y-83700000D03*
X109500000Y-140506161D03*
X109500000Y-121500000D03*
X120195000Y-65105000D03*
X88211465Y-84589950D03*
X98400000Y-73600000D03*
X100300000Y-70100000D03*
X90850000Y-74150000D03*
X86160051Y-74260051D03*
X88600000Y-59800000D03*
X87500000Y-71100000D03*
X86200000Y-72400000D03*
%TO.N,+3.3V*%
X80200000Y-59100000D03*
X94400000Y-64000000D03*
%TO.N,Net-(U1-ADC_AVDD)*%
X100000000Y-72300000D03*
X81706762Y-71306762D03*
X90975735Y-79024265D03*
D15*
X83000000Y-75200000D03*
D16*
X89875735Y-70924265D03*
D15*
X87100000Y-75100000D03*
D16*
%TO.N,+1V1*%
X85923637Y-76842422D03*
D15*
X95100000Y-71400000D03*
X92800000Y-68400000D03*
D16*
%TO.N,row0*%
X139899999Y-76199999D03*
D15*
X86745700Y-67713987D03*
X142000000Y-130600000D03*
X142000000Y-57200000D03*
D16*
X139900000Y-114200000D03*
D15*
X142000000Y-95200000D03*
%TO.N,row1*%
X87404561Y-67995439D03*
D16*
X123000000Y-95200000D03*
X123000000Y-76200000D03*
X123000000Y-57200000D03*
X123000000Y-130600000D03*
X123000000Y-114200000D03*
X123000000Y-88500000D03*
%TO.N,row2*%
X104000000Y-111600000D03*
D15*
X84600000Y-68000000D03*
D16*
X103100000Y-77700000D03*
X104000000Y-95200000D03*
X104000000Y-57401000D03*
X104000000Y-130600000D03*
D15*
%TO.N,row3*%
X82700000Y-68800000D03*
D16*
X76100000Y-74900000D03*
X85000000Y-130600000D03*
X85000000Y-111600000D03*
X85000000Y-95200000D03*
X86300000Y-56200000D03*
%TO.N,row4*%
X66000000Y-57200000D03*
D15*
X82000000Y-70125000D03*
D16*
X66000000Y-95200000D03*
X66000000Y-76200000D03*
X66000000Y-130600000D03*
X66000000Y-111600000D03*
%TO.N,potSig*%
X76600000Y-88500000D03*
X92500000Y-76100000D03*
%TO.N,SCL*%
X87600000Y-78800000D03*
%TO.N,SDA*%
X86700000Y-78100000D03*
%TO.N,Net-(L2-DOUT)*%
X84800000Y-66100000D03*
X96600000Y-66000000D03*
%TO.N,Net-(L3-DOUT)*%
X103800000Y-67500000D03*
X115200000Y-65950000D03*
D15*
%TO.N,col0*%
X82700000Y-69600000D03*
%TO.N,col1*%
X84600000Y-67349997D03*
%TO.N,col2*%
X82700000Y-71200000D03*
%TO.N,col3*%
X82700000Y-72000000D03*
%TO.N,col4*%
X82700000Y-72800000D03*
D16*
%TO.N,USB_D+*%
X125100000Y-60300000D03*
X94900000Y-69300000D03*
%TO.N,USB_D-*%
X95700000Y-69600000D03*
X124100000Y-63800000D03*
%TD*%
D18*
%TO.N,GND*%
X98900000Y-90500000D02*
X76400000Y-90500000D01*
D19*
%TO.N,+1V1*%
X92850000Y-70250000D02*
X87474000Y-75626000D01*
X92850000Y-69850000D02*
X92850000Y-70250000D01*
X85957578Y-76842422D02*
X85923637Y-76842422D01*
X87174000Y-75626000D02*
X85957578Y-76842422D01*
X87317877Y-75626000D02*
X87174000Y-75626000D01*
%TO.N,GND*%
X108900000Y-90500000D02*
X109500000Y-90500000D01*
X106600000Y-92800000D02*
X108900000Y-90500000D01*
D20*
%TO.N,+5V*%
X90500000Y-106900000D02*
X90500000Y-125700000D01*
D19*
%TO.N,GND*%
X108000000Y-83800000D02*
X109500000Y-85300000D01*
D21*
X91464156Y-83064156D02*
X92000000Y-83600000D01*
D19*
X107900000Y-83800000D02*
X108000000Y-83800000D01*
D21*
X109500000Y-108100000D02*
X109500000Y-121500000D01*
D18*
X109500000Y-108100000D02*
X109500000Y-90500000D01*
D21*
X83100000Y-83700000D02*
X89200000Y-83700000D01*
D19*
X91464156Y-83034315D02*
X91464156Y-83064156D01*
X104000000Y-66000000D02*
X104000000Y-65800000D01*
D18*
X109500000Y-90500000D02*
X137000000Y-90500000D01*
D21*
X89300000Y-83600000D02*
X92000000Y-83600000D01*
D19*
X86160051Y-74260051D02*
X86160051Y-74260408D01*
D18*
X109500000Y-90500000D02*
X109500000Y-85300000D01*
D21*
X88310050Y-84589950D02*
X89300000Y-83600000D01*
X89200000Y-83700000D02*
X89300000Y-83600000D01*
X109500000Y-121500000D02*
X109500000Y-140506161D01*
D19*
X88211465Y-84589950D02*
X88310050Y-84589950D01*
D18*
X109500000Y-85300000D02*
X109500000Y-77400000D01*
D19*
%TO.N,+1V1*%
X93550000Y-69850000D02*
X92850000Y-69850000D01*
X92850000Y-68450000D02*
X92850000Y-69850000D01*
X92800000Y-68400000D02*
X92850000Y-68450000D01*
X95100000Y-71400000D02*
X93550000Y-69850000D01*
%TO.N,row1*%
X123000000Y-76200000D02*
X123000000Y-88500000D01*
X123000000Y-76200000D02*
X123000000Y-57200000D01*
%TO.N,row2*%
X103100000Y-77700000D02*
X102300000Y-76900000D01*
X104000000Y-64649943D02*
X104000000Y-57401000D01*
X102300000Y-70000000D02*
X104601000Y-67699000D01*
X104601000Y-65250943D02*
X104000000Y-64649943D01*
X102300000Y-76900000D02*
X102300000Y-70000000D01*
X104601000Y-67699000D02*
X104601000Y-65250943D01*
%TO.N,row3*%
X76200000Y-74900000D02*
X76100000Y-74900000D01*
X82000000Y-68800000D02*
X82700000Y-68800000D01*
X78650000Y-59650000D02*
X80300000Y-58000000D01*
X82000000Y-68800000D02*
X76200000Y-74600000D01*
X84500000Y-58000000D02*
X86300000Y-56200000D01*
X78650000Y-72150000D02*
X78650000Y-59650000D01*
X80300000Y-58000000D02*
X84500000Y-58000000D01*
X76200000Y-74600000D02*
X76200000Y-74900000D01*
D22*
%TO.N,SCL*%
X78100000Y-82100000D02*
X78100000Y-80200000D01*
X73600000Y-86600000D02*
X78100000Y-82100000D01*
X73600000Y-95380000D02*
X73600000Y-86600000D01*
X87600000Y-78800000D02*
X79500000Y-78800000D01*
X71500000Y-97480000D02*
X73600000Y-95380000D01*
X78100000Y-80200000D02*
X79500000Y-78800000D01*
%TO.N,SDA*%
X86700000Y-78100000D02*
X86600000Y-78200000D01*
X70000000Y-98520000D02*
X71500000Y-100020000D01*
D19*
X86407578Y-78150000D02*
X86400000Y-78142422D01*
D22*
X72700000Y-93100000D02*
X70000000Y-95800000D01*
X77400000Y-79400000D02*
X77400000Y-81500000D01*
X86600000Y-78200000D02*
X78600000Y-78200000D01*
X70000000Y-95800000D02*
X70000000Y-98520000D01*
X72700000Y-86200000D02*
X72700000Y-93100000D01*
X78600000Y-78200000D02*
X77400000Y-79400000D01*
D19*
X86700000Y-78100000D02*
X86650000Y-78150000D01*
D22*
X77400000Y-81500000D02*
X72700000Y-86200000D01*
D19*
%TO.N,col1*%
X76242422Y-77442422D02*
X94757578Y-77442422D01*
%TO.N,col4*%
X57000000Y-134200000D02*
X76000000Y-134200000D01*
%TO.N,+1V1*%
X87474000Y-75626000D02*
X87317877Y-75626000D01*
D18*
%TO.N,GND*%
X98900000Y-90500000D02*
X109500000Y-90500000D01*
D21*
X92000000Y-83600000D02*
X98900000Y-90500000D01*
%TD*%
M02*
