%TF.GenerationSoftware,KiCad,Pcbnew,9.0.2*%
%TF.CreationDate,2026-01-27T21:16:03+01:00*%
%TF.ProjectId,Keymodule,4b65796d-6f64-4756-9c65-2e6b69636164,rev?*%
%TF.SameCoordinates,Original*%
%TF.FileFunction,Copper,L1,Top*%
%TF.FilePolarity,Positive*%
%FSLAX46Y46*%
G04 Gerber Fmt 4.6, Leading zero omitted, Abs format (unit mm)*
G04 Created by KiCad (PCBNEW 9.0.2) date 2026-01-27 21:16:03*
%MOMM*%
%LPD*%
G01*
G04 APERTURE LIST*
G04 Aperture macros list*
%AMRoundRect*
0 Rectangle with rounded corners*
0 $1 Rounding radius*
0 $2 $3 $4 $5 $6 $7 $8 $9 X,Y pos of 4 corners*
0 Add a 4 corners polygon primitive as box body*
4,1,4,$2,$3,$4,$5,$6,$7,$8,$9,$2,$3,0*
0 Add four circle primitives for the rounded corners*
1,1,$1+$1,$2,$3*
1,1,$1+$1,$4,$5*
1,1,$1+$1,$6,$7*
1,1,$1+$1,$8,$9*
0 Add four rect primitives between the rounded corners*
20,1,$1+$1,$2,$3,$4,$5,0*
20,1,$1+$1,$4,$5,$6,$7,0*
20,1,$1+$1,$6,$7,$8,$9,0*
20,1,$1+$1,$8,$9,$2,$3,0*%
%AMRotRect*
0 Rectangle, with rotation*
0 The origin of the aperture is its center*
0 $1 length*
0 $2 width*
0 $3 Rotation angle, in degrees counterclockwise*
0 Add horizontal line*
21,1,$1,$2,0,0,$3*%
G04 Aperture macros list end*
%TA.AperFunction,SMDPad,CuDef*%
%ADD10C,2.000000*%
%TD*%
%TA.AperFunction,SMDPad,CuDef*%
%ADD11RoundRect,0.135000X-0.185000X0.135000X-0.185000X-0.135000X0.185000X-0.135000X0.185000X0.135000X0*%
%TD*%
%TA.AperFunction,SMDPad,CuDef*%
%ADD12RoundRect,0.218750X-0.218750X-0.256250X0.218750X-0.256250X0.218750X0.256250X-0.218750X0.256250X0*%
%TD*%
%TA.AperFunction,SMDPad,CuDef*%
%ADD13RoundRect,0.123000X-0.777000X-0.287000X0.777000X-0.287000X0.777000X0.287000X-0.777000X0.287000X0*%
%TD*%
%TA.AperFunction,SMDPad,CuDef*%
%ADD14RoundRect,0.150000X0.512500X0.150000X-0.512500X0.150000X-0.512500X-0.150000X0.512500X-0.150000X0*%
%TD*%
%TA.AperFunction,SMDPad,CuDef*%
%ADD15RoundRect,0.140000X0.219203X0.021213X0.021213X0.219203X-0.219203X-0.021213X-0.021213X-0.219203X0*%
%TD*%
%TA.AperFunction,ComponentPad*%
%ADD16R,1.700000X1.700000*%
%TD*%
%TA.AperFunction,ComponentPad*%
%ADD17C,1.700000*%
%TD*%
%TA.AperFunction,ComponentPad*%
%ADD18R,1.000000X1.000000*%
%TD*%
%TA.AperFunction,SMDPad,CuDef*%
%ADD19RoundRect,0.050000X-0.309359X0.238649X0.238649X-0.309359X0.309359X-0.238649X-0.238649X0.309359X0*%
%TD*%
%TA.AperFunction,SMDPad,CuDef*%
%ADD20RoundRect,0.050000X-0.309359X-0.238649X-0.238649X-0.309359X0.309359X0.238649X0.238649X0.309359X0*%
%TD*%
%TA.AperFunction,HeatsinkPad*%
%ADD21RotRect,3.200000X3.200000X315.000000*%
%TD*%
%TA.AperFunction,SMDPad,CuDef*%
%ADD22RoundRect,0.140000X0.021213X-0.219203X0.219203X-0.021213X-0.021213X0.219203X-0.219203X0.021213X0*%
%TD*%
%TA.AperFunction,SMDPad,CuDef*%
%ADD23RoundRect,0.375000X0.625000X0.375000X-0.625000X0.375000X-0.625000X-0.375000X0.625000X-0.375000X0*%
%TD*%
%TA.AperFunction,SMDPad,CuDef*%
%ADD24RoundRect,0.500000X0.500000X1.400000X-0.500000X1.400000X-0.500000X-1.400000X0.500000X-1.400000X0*%
%TD*%
%TA.AperFunction,SMDPad,CuDef*%
%ADD25RoundRect,0.218750X-0.256250X0.218750X-0.256250X-0.218750X0.256250X-0.218750X0.256250X0.218750X0*%
%TD*%
%TA.AperFunction,SMDPad,CuDef*%
%ADD26RoundRect,0.140000X-0.021213X0.219203X-0.219203X0.021213X0.021213X-0.219203X0.219203X-0.021213X0*%
%TD*%
%TA.AperFunction,SMDPad,CuDef*%
%ADD27RoundRect,0.162500X-0.162500X0.650000X-0.162500X-0.650000X0.162500X-0.650000X0.162500X0.650000X0*%
%TD*%
%TA.AperFunction,SMDPad,CuDef*%
%ADD28RoundRect,0.135000X0.135000X0.185000X-0.135000X0.185000X-0.135000X-0.185000X0.135000X-0.185000X0*%
%TD*%
%TA.AperFunction,SMDPad,CuDef*%
%ADD29RoundRect,0.140000X0.170000X-0.140000X0.170000X0.140000X-0.170000X0.140000X-0.170000X-0.140000X0*%
%TD*%
%TA.AperFunction,SMDPad,CuDef*%
%ADD30RoundRect,0.140000X-0.219203X-0.021213X-0.021213X-0.219203X0.219203X0.021213X0.021213X0.219203X0*%
%TD*%
%TA.AperFunction,SMDPad,CuDef*%
%ADD31RoundRect,0.218750X0.218750X0.256250X-0.218750X0.256250X-0.218750X-0.256250X0.218750X-0.256250X0*%
%TD*%
%TA.AperFunction,SMDPad,CuDef*%
%ADD32RoundRect,0.135000X-0.135000X-0.185000X0.135000X-0.185000X0.135000X0.185000X-0.135000X0.185000X0*%
%TD*%
%TA.AperFunction,SMDPad,CuDef*%
%ADD33RoundRect,0.250000X0.475000X-0.250000X0.475000X0.250000X-0.475000X0.250000X-0.475000X-0.250000X0*%
%TD*%
%TA.AperFunction,SMDPad,CuDef*%
%ADD34RoundRect,0.135000X0.035355X-0.226274X0.226274X-0.035355X-0.035355X0.226274X-0.226274X0.035355X0*%
%TD*%
%TA.AperFunction,SMDPad,CuDef*%
%ADD35RoundRect,0.200000X-0.035355X-0.318198X0.318198X0.035355X0.035355X0.318198X-0.318198X-0.035355X0*%
%TD*%
%TA.AperFunction,SMDPad,CuDef*%
%ADD36RoundRect,0.250000X-0.475000X0.250000X-0.475000X-0.250000X0.475000X-0.250000X0.475000X0.250000X0*%
%TD*%
%TA.AperFunction,ComponentPad*%
%ADD37C,2.000000*%
%TD*%
%TA.AperFunction,ViaPad*%
%ADD38C,0.600000*%
%TD*%
%TA.AperFunction,ViaPad*%
%ADD39C,1.000000*%
%TD*%
%TA.AperFunction,ViaPad*%
%ADD40C,0.350000*%
%TD*%
%TA.AperFunction,Conductor*%
%ADD41C,0.200000*%
%TD*%
%TA.AperFunction,Conductor*%
%ADD42C,0.400000*%
%TD*%
%TA.AperFunction,Conductor*%
%ADD43C,0.600000*%
%TD*%
%TA.AperFunction,Conductor*%
%ADD44C,1.000000*%
%TD*%
%TA.AperFunction,Conductor*%
%ADD45C,0.500000*%
%TD*%
G04 APERTURE END LIST*
D10*
%TO.P,BOOT,1,1*%
%TO.N,Net-(R2-Pad1)*%
X71500000Y-56638892D03*
%TD*%
D11*
%TO.P,DN,2*%
%TO.N,+3.3V*%
X96800000Y-62100000D03*
%TO.P,DN,1*%
%TO.N,Net-(U1-QSPI_SS)*%
X96800000Y-61080000D03*
%TD*%
D12*
%TO.P,D16,1,K*%
%TO.N,Net-(D16-K)*%
X102262500Y-113120000D03*
%TO.P,D16,2,A*%
%TO.N,row2*%
X103837500Y-113120000D03*
%TD*%
D13*
%TO.P,L3,1,VDD*%
%TO.N,GND*%
X102040000Y-65950000D03*
%TO.P,L3,2,DOUT*%
%TO.N,Net-(L3-DOUT)*%
X102040000Y-67450000D03*
%TO.P,L3,3,VSS*%
%TO.N,+5V*%
X97960000Y-67450000D03*
%TO.P,L3,4,DIN*%
%TO.N,Net-(L2-DOUT)*%
X97960000Y-65950000D03*
%TD*%
D12*
%TO.P,D17,1,K*%
%TO.N,Net-(D17-K)*%
X102262500Y-132120000D03*
%TO.P,D17,2,A*%
%TO.N,row2*%
X103837500Y-132120000D03*
%TD*%
D14*
%TO.P,U2,1,NC*%
%TO.N,unconnected-(U2-NC-Pad1)*%
X62375000Y-72200000D03*
%TO.P,U2,2,A*%
%TO.N,/ledDataOut*%
X62375000Y-71250000D03*
%TO.P,U2,3,GND*%
%TO.N,GND*%
X62375000Y-70300000D03*
%TO.P,U2,4,Y*%
%TO.N,WS2812bData*%
X60100000Y-70300000D03*
%TO.P,U2,5,VCC*%
%TO.N,+5V*%
X60100000Y-72200000D03*
%TD*%
D15*
%TO.P,C13,1*%
%TO.N,GND*%
X91165757Y-81393827D03*
%TO.P,C13,2*%
%TO.N,Net-(Y1-OUT)*%
X90486935Y-80715005D03*
%TD*%
D12*
%TO.P,D21,1,K*%
%TO.N,Net-(D21-K)*%
X83262500Y-113120000D03*
%TO.P,D21,2,A*%
%TO.N,row3*%
X84837500Y-113120000D03*
%TD*%
D13*
%TO.P,L11,1,VDD*%
%TO.N,GND*%
X64040000Y-103950000D03*
%TO.P,L11,2,DOUT*%
%TO.N,Net-(L11-DOUT)*%
X64040000Y-105450000D03*
%TO.P,L11,3,VSS*%
%TO.N,+5V*%
X59960000Y-105450000D03*
%TO.P,L11,4,DIN*%
%TO.N,Net-(L11-DIN)*%
X59960000Y-103950000D03*
%TD*%
D16*
%TO.P,J3,1,Pin_1*%
%TO.N,potSig*%
X71500000Y-102560000D03*
D17*
%TO.P,J3,2,Pin_2*%
%TO.N,SDA*%
X71500000Y-100020000D03*
%TO.P,J3,3,Pin_3*%
%TO.N,SCL*%
X71500000Y-97480000D03*
%TD*%
D18*
%TO.P,GND,1,Pin_1*%
%TO.N,GND*%
X139600000Y-109500000D03*
%TD*%
D19*
%TO.P,U1,1,IOVDD*%
%TO.N,Net-(U1-ADC_AVDD)*%
X88087169Y-68885787D03*
%TO.P,U1,2,GPIO0*%
%TO.N,col0*%
X87804326Y-69168630D03*
%TO.P,U1,3,GPIO1*%
%TO.N,col1*%
X87521484Y-69451472D03*
%TO.P,U1,4,GPIO2*%
%TO.N,col2*%
X87238641Y-69734315D03*
%TO.P,U1,5,GPIO3*%
%TO.N,col3*%
X86955798Y-70017158D03*
%TO.P,U1,6,GPIO4*%
%TO.N,col4*%
X86672956Y-70300000D03*
%TO.P,U1,7,GPIO5*%
%TO.N,unconnected-(U1-GPIO5-Pad7)*%
X86390113Y-70582843D03*
%TO.P,U1,8,GPIO6*%
%TO.N,row4*%
X86107270Y-70865686D03*
%TO.P,U1,9,GPIO7*%
%TO.N,row3*%
X85824427Y-71148529D03*
%TO.P,U1,10,IOVDD*%
%TO.N,Net-(U1-ADC_AVDD)*%
X85541585Y-71431371D03*
%TO.P,U1,11,GPIO8*%
%TO.N,row2*%
X85258742Y-71714214D03*
%TO.P,U1,12,GPIO9*%
%TO.N,row1*%
X84975899Y-71997057D03*
%TO.P,U1,13,GPIO10*%
%TO.N,row0*%
X84693057Y-72279899D03*
%TO.P,U1,14,GPIO11*%
%TO.N,unconnected-(U1-GPIO11-Pad14)*%
X84410214Y-72562742D03*
D20*
%TO.P,U1,15,GPIO12*%
%TO.N,unconnected-(U1-GPIO12-Pad15)*%
X84410214Y-73747146D03*
%TO.P,U1,16,GPIO13*%
%TO.N,unconnected-(U1-GPIO13-Pad16)*%
X84693057Y-74029989D03*
%TO.P,U1,17,GPIO14*%
%TO.N,unconnected-(U1-GPIO14-Pad17)*%
X84975899Y-74312831D03*
%TO.P,U1,18,GPIO15*%
%TO.N,/ledDataOut*%
X85258742Y-74595674D03*
%TO.P,U1,19,TESTEN*%
%TO.N,GND*%
X85541585Y-74878517D03*
%TO.P,U1,20,XIN*%
%TO.N,Xin*%
X85824427Y-75161359D03*
%TO.P,U1,21,XOUT*%
%TO.N,Xout*%
X86107270Y-75444202D03*
%TO.P,U1,22,IOVDD*%
%TO.N,Net-(U1-ADC_AVDD)*%
X86390113Y-75727045D03*
%TO.P,U1,23,DVDD*%
%TO.N,+1V1*%
X86672956Y-76009888D03*
%TO.P,U1,24,SWCLK*%
%TO.N,unconnected-(U1-SWCLK-Pad24)*%
X86955798Y-76292730D03*
%TO.P,U1,25,SWD*%
%TO.N,unconnected-(U1-SWD-Pad25)*%
X87238641Y-76575573D03*
%TO.P,U1,26,RUN*%
%TO.N,/run*%
X87521484Y-76858416D03*
%TO.P,U1,27,GPIO16*%
%TO.N,SDA*%
X87804326Y-77141258D03*
%TO.P,U1,28,GPIO17*%
%TO.N,SCL*%
X88087169Y-77424101D03*
D19*
%TO.P,U1,29,GPIO18*%
%TO.N,unconnected-(U1-GPIO18-Pad29)*%
X89271573Y-77424101D03*
%TO.P,U1,30,GPIO19*%
%TO.N,unconnected-(U1-GPIO19-Pad30)*%
X89554416Y-77141258D03*
%TO.P,U1,31,GPIO20*%
%TO.N,unconnected-(U1-GPIO20-Pad31)*%
X89837258Y-76858416D03*
%TO.P,U1,32,GPIO21*%
%TO.N,unconnected-(U1-GPIO21-Pad32)*%
X90120101Y-76575573D03*
%TO.P,U1,33,IOVDD*%
%TO.N,Net-(U1-ADC_AVDD)*%
X90402944Y-76292730D03*
%TO.P,U1,34,GPIO22*%
%TO.N,unconnected-(U1-GPIO22-Pad34)*%
X90685786Y-76009888D03*
%TO.P,U1,35,GPIO23*%
%TO.N,unconnected-(U1-GPIO23-Pad35)*%
X90968629Y-75727045D03*
%TO.P,U1,36,GPIO24*%
%TO.N,unconnected-(U1-GPIO24-Pad36)*%
X91251472Y-75444202D03*
%TO.P,U1,37,GPIO25*%
%TO.N,potSig*%
X91534315Y-75161359D03*
%TO.P,U1,38,GPIO26_ADC0*%
X91817157Y-74878517D03*
%TO.P,U1,39,GPIO27_ADC1*%
%TO.N,unconnected-(U1-GPIO27_ADC1-Pad39)*%
X92100000Y-74595674D03*
%TO.P,U1,40,GPIO28_ADC2*%
%TO.N,unconnected-(U1-GPIO28_ADC2-Pad40)*%
X92382843Y-74312831D03*
%TO.P,U1,41,GPIO29_ADC3*%
%TO.N,unconnected-(U1-GPIO29_ADC3-Pad41)*%
X92665685Y-74029989D03*
%TO.P,U1,42,IOVDD*%
%TO.N,Net-(U1-ADC_AVDD)*%
X92948528Y-73747146D03*
D20*
%TO.P,U1,43,ADC_AVDD*%
X92948528Y-72562742D03*
%TO.P,U1,44,VREG_IN*%
%TO.N,+3.3V*%
X92665685Y-72279899D03*
%TO.P,U1,45,VREG_VOUT*%
%TO.N,+1V1*%
X92382843Y-71997057D03*
%TO.P,U1,46,USB_DM*%
%TO.N,USB_D-*%
X92100000Y-71714214D03*
%TO.P,U1,47,USB_DP*%
%TO.N,USB_D+*%
X91817157Y-71431371D03*
%TO.P,U1,48,USB_VDD*%
%TO.N,Net-(U1-ADC_AVDD)*%
X91534315Y-71148529D03*
%TO.P,U1,49,IOVDD*%
X91251472Y-70865686D03*
%TO.P,U1,50,DVDD*%
%TO.N,+1V1*%
X90968629Y-70582843D03*
%TO.P,U1,51,QSPI_SD3*%
%TO.N,Net-(U1-QSPI_SD3)*%
X90685786Y-70300000D03*
%TO.P,U1,52,QSPI_SCLK*%
%TO.N,Net-(U1-QSPI_SCLK)*%
X90402944Y-70017158D03*
%TO.P,U1,53,QSPI_SD0*%
%TO.N,Net-(U1-QSPI_SD0)*%
X90120101Y-69734315D03*
%TO.P,U1,54,QSPI_SD2*%
%TO.N,Net-(U1-QSPI_SD2)*%
X89837258Y-69451472D03*
%TO.P,U1,55,QSPI_SD1*%
%TO.N,Net-(U1-QSPI_SD1)*%
X89554416Y-69168630D03*
%TO.P,U1,56,QSPI_SS*%
%TO.N,Net-(U1-QSPI_SS)*%
X89271573Y-68885787D03*
D21*
%TO.P,U1,57,GND*%
%TO.N,GND*%
X88679371Y-73154944D03*
%TD*%
D12*
%TO.P,D26,1,K*%
%TO.N,Net-(D26-K)*%
X64212500Y-113120000D03*
%TO.P,D26,2,A*%
%TO.N,row4*%
X65787500Y-113120000D03*
%TD*%
D22*
%TO.P,C11,1*%
%TO.N,+1V1*%
X93000549Y-68302396D03*
%TO.P,C11,2*%
%TO.N,GND*%
X93679371Y-67623574D03*
%TD*%
D13*
%TO.P,L19,1,VDD*%
%TO.N,GND*%
X121040000Y-122950000D03*
%TO.P,L19,2,DOUT*%
%TO.N,Net-(L19-DOUT)*%
X121040000Y-124450000D03*
%TO.P,L19,3,VSS*%
%TO.N,+5V*%
X116960000Y-124450000D03*
%TO.P,L19,4,DIN*%
%TO.N,Net-(L18-DOUT)*%
X116960000Y-122950000D03*
%TD*%
D12*
%TO.P,D13,1,K*%
%TO.N,Net-(D13-K)*%
X102262500Y-56120000D03*
%TO.P,D13,2,A*%
%TO.N,row2*%
X103837500Y-56120000D03*
%TD*%
%TO.P,D5,1,K*%
%TO.N,Net-(D5-K)*%
X140262500Y-94120000D03*
%TO.P,D5,2,A*%
%TO.N,row0*%
X141837500Y-94120000D03*
%TD*%
%TO.P,D7,1,K*%
%TO.N,Net-(D7-K)*%
X140262500Y-132120000D03*
%TO.P,D7,2,A*%
%TO.N,row0*%
X141837500Y-132120000D03*
%TD*%
D23*
%TO.P,U3,1,GND*%
%TO.N,GND*%
X111150000Y-74600000D03*
%TO.P,U3,2,VO*%
%TO.N,+3.3V*%
X111150000Y-72300000D03*
D24*
X104850000Y-72300000D03*
D23*
%TO.P,U3,3,VI*%
%TO.N,+5V*%
X111150000Y-70000000D03*
%TD*%
D13*
%TO.P,L7,1,VDD*%
%TO.N,GND*%
X83040000Y-84950000D03*
%TO.P,L7,2,DOUT*%
%TO.N,Net-(L7-DOUT)*%
X83040000Y-86450000D03*
%TO.P,L7,3,VSS*%
%TO.N,+5V*%
X78960000Y-86450000D03*
%TO.P,L7,4,DIN*%
%TO.N,Net-(L6-DOUT)*%
X78960000Y-84950000D03*
%TD*%
%TO.P,L24,1,VDD*%
%TO.N,GND*%
X121040000Y-141950000D03*
%TO.P,L24,2,DOUT*%
%TO.N,Net-(L24-DOUT)*%
X121040000Y-143450000D03*
%TO.P,L24,3,VSS*%
%TO.N,+5V*%
X116960000Y-143450000D03*
%TO.P,L24,4,DIN*%
%TO.N,Net-(L23-DOUT)*%
X116960000Y-141950000D03*
%TD*%
D12*
%TO.P,D20,1,K*%
%TO.N,Net-(D20-K)*%
X83262500Y-94120000D03*
%TO.P,D20,2,A*%
%TO.N,row3*%
X84837500Y-94120000D03*
%TD*%
D13*
%TO.P,L14,1,VDD*%
%TO.N,GND*%
X121040000Y-103950000D03*
%TO.P,L14,2,DOUT*%
%TO.N,Net-(L14-DOUT)*%
X121040000Y-105450000D03*
%TO.P,L14,3,VSS*%
%TO.N,+5V*%
X116960000Y-105450000D03*
%TO.P,L14,4,DIN*%
%TO.N,Net-(L13-DOUT)*%
X116960000Y-103950000D03*
%TD*%
%TO.P,L20,1,VDD*%
%TO.N,GND*%
X140240000Y-122750000D03*
%TO.P,L20,2,DOUT*%
%TO.N,Net-(L15-DOUT)*%
X140240000Y-124250000D03*
%TO.P,L20,3,VSS*%
%TO.N,+5V*%
X136160000Y-124250000D03*
%TO.P,L20,4,DIN*%
%TO.N,Net-(L19-DOUT)*%
X136160000Y-122750000D03*
%TD*%
D25*
%TO.P,D14,1,K*%
%TO.N,Net-(D14-K)*%
X102000000Y-75125000D03*
%TO.P,D14,2,A*%
%TO.N,row2*%
X102000000Y-76700000D03*
%TD*%
D12*
%TO.P,D3,1,K*%
%TO.N,Net-(D3-K)*%
X140262500Y-56120000D03*
%TO.P,D3,2,A*%
%TO.N,row0*%
X141837500Y-56120000D03*
%TD*%
D13*
%TO.P,L13,1,VDD*%
%TO.N,GND*%
X102040000Y-103950000D03*
%TO.P,L13,2,DOUT*%
%TO.N,Net-(L13-DOUT)*%
X102040000Y-105450000D03*
%TO.P,L13,3,VSS*%
%TO.N,+5V*%
X97960000Y-105450000D03*
%TO.P,L13,4,DIN*%
%TO.N,Net-(L12-DOUT)*%
X97960000Y-103950000D03*
%TD*%
%TO.P,L15,1,VDD*%
%TO.N,GND*%
X140040000Y-103950000D03*
%TO.P,L15,2,DOUT*%
%TO.N,Net-(L15-DOUT)*%
X140040000Y-105450000D03*
%TO.P,L15,3,VSS*%
%TO.N,+5V*%
X135960000Y-105450000D03*
%TO.P,L15,4,DIN*%
%TO.N,Net-(L14-DOUT)*%
X135960000Y-103950000D03*
%TD*%
%TO.P,L4,1,VDD*%
%TO.N,GND*%
X121040000Y-65950000D03*
%TO.P,L4,2,DOUT*%
%TO.N,Net-(L4-DOUT)*%
X121040000Y-67450000D03*
%TO.P,L4,3,VSS*%
%TO.N,+5V*%
X116960000Y-67450000D03*
%TO.P,L4,4,DIN*%
%TO.N,Net-(L3-DOUT)*%
X116960000Y-65950000D03*
%TD*%
D26*
%TO.P,C12,1*%
%TO.N,GND*%
X96179371Y-70823574D03*
%TO.P,C12,2*%
%TO.N,+1V1*%
X95500549Y-71502396D03*
%TD*%
D13*
%TO.P,L18,1,VDD*%
%TO.N,GND*%
X102040000Y-122950000D03*
%TO.P,L18,2,DOUT*%
%TO.N,Net-(L18-DOUT)*%
X102040000Y-124450000D03*
%TO.P,L18,3,VSS*%
%TO.N,+5V*%
X97960000Y-124450000D03*
%TO.P,L18,4,DIN*%
%TO.N,Net-(L17-DOUT)*%
X97960000Y-122950000D03*
%TD*%
D12*
%TO.P,D15,1,K*%
%TO.N,Net-(D15-K)*%
X102262500Y-94120000D03*
%TO.P,D15,2,A*%
%TO.N,row2*%
X103837500Y-94120000D03*
%TD*%
D18*
%TO.P,5V,1,Pin_1*%
%TO.N,+5V*%
X139600000Y-90500000D03*
%TD*%
D13*
%TO.P,L8,1,VDD*%
%TO.N,GND*%
X102040000Y-84950000D03*
%TO.P,L8,2,DOUT*%
%TO.N,Net-(L8-DOUT)*%
X102040000Y-86450000D03*
%TO.P,L8,3,VSS*%
%TO.N,+5V*%
X97960000Y-86450000D03*
%TO.P,L8,4,DIN*%
%TO.N,Net-(L7-DOUT)*%
X97960000Y-84950000D03*
%TD*%
D18*
%TO.P,5V,1,Pin_1*%
%TO.N,+5V*%
X67900000Y-90500000D03*
%TD*%
D13*
%TO.P,L17,1,VDD*%
%TO.N,GND*%
X83040000Y-122950000D03*
%TO.P,L17,2,DOUT*%
%TO.N,Net-(L17-DOUT)*%
X83040000Y-124450000D03*
%TO.P,L17,3,VSS*%
%TO.N,+5V*%
X78960000Y-124450000D03*
%TO.P,L17,4,DIN*%
%TO.N,Net-(L16-DOUT)*%
X78960000Y-122950000D03*
%TD*%
D16*
%TO.P,REF\u002A\u002A,1*%
%TO.N,+5V*%
X128600000Y-66400000D03*
D17*
%TO.P,REF\u002A\u002A,2*%
%TO.N,Net-(J11-Pin_4)*%
X128600000Y-63860000D03*
%TO.P,REF\u002A\u002A,3*%
%TO.N,Net-(J11-Pin_3)*%
X128600000Y-61320000D03*
%TO.P,REF\u002A\u002A,4*%
%TO.N,GND*%
X128600000Y-58780000D03*
%TO.P,REF\u002A\u002A,5*%
%TO.N,N/C*%
X128600000Y-56240000D03*
%TD*%
D27*
%TO.P,U4,1,~{CS}*%
%TO.N,Net-(U1-QSPI_SS)*%
X92410304Y-58338224D03*
%TO.P,U4,2,DO/IO_{1}*%
%TO.N,Net-(U1-QSPI_SD1)*%
X91140304Y-58338224D03*
%TO.P,U4,3,~{WP}/IO_{2}*%
%TO.N,Net-(U1-QSPI_SD2)*%
X89870304Y-58338224D03*
%TO.P,U4,4,GND*%
%TO.N,GND*%
X88600304Y-58338224D03*
%TO.P,U4,5,DI/IO_{0}*%
%TO.N,Net-(U1-QSPI_SD0)*%
X88600304Y-65513224D03*
%TO.P,U4,6,CLK*%
%TO.N,Net-(U1-QSPI_SCLK)*%
X89870304Y-65513224D03*
%TO.P,U4,7,~{HOLD}/~{RESET}/IO_{3}*%
%TO.N,Net-(U1-QSPI_SD3)*%
X91140304Y-65513224D03*
%TO.P,U4,8,VCC*%
%TO.N,+3.3V*%
X92410304Y-65513224D03*
%TD*%
D28*
%TO.P,DN,1*%
%TO.N,Net-(U1-QSPI_SS)*%
X82100000Y-59000000D03*
%TO.P,DN,2*%
%TO.N,+3.3V*%
X81080000Y-59000000D03*
%TD*%
D13*
%TO.P,L22,1,VDD*%
%TO.N,GND*%
X83240000Y-141750000D03*
%TO.P,L22,2,DOUT*%
%TO.N,Net-(L22-DOUT)*%
X83240000Y-143250000D03*
%TO.P,L22,3,VSS*%
%TO.N,+5V*%
X79160000Y-143250000D03*
%TO.P,L22,4,DIN*%
%TO.N,Net-(L21-DOUT)*%
X79160000Y-141750000D03*
%TD*%
D12*
%TO.P,D22,1,K*%
%TO.N,Net-(D22-K)*%
X83262500Y-132120000D03*
%TO.P,D22,2,A*%
%TO.N,row3*%
X84837500Y-132120000D03*
%TD*%
D26*
%TO.P,C8,1*%
%TO.N,Net-(U1-ADC_AVDD)*%
X93900000Y-74700000D03*
%TO.P,C8,2*%
%TO.N,GND*%
X93221178Y-75378822D03*
%TD*%
D12*
%TO.P,D10,1,K*%
%TO.N,Net-(D10-K)*%
X121262500Y-94120000D03*
%TO.P,D10,2,A*%
%TO.N,row1*%
X122837500Y-94120000D03*
%TD*%
D11*
%TO.P,R6,1*%
%TO.N,USB_D+*%
X126300000Y-60500000D03*
%TO.P,R6,2*%
%TO.N,Net-(J11-Pin_3)*%
X126300000Y-61519998D03*
%TD*%
D10*
%TO.P,GND,1*%
%TO.N,GND*%
X111700000Y-111900000D03*
%TD*%
D12*
%TO.P,D25,1,K*%
%TO.N,Net-(D25-K)*%
X64212500Y-94120000D03*
%TO.P,D25,2,A*%
%TO.N,row4*%
X65787500Y-94120000D03*
%TD*%
D29*
%TO.P,C15,1*%
%TO.N,+5V*%
X58300000Y-72160000D03*
%TO.P,C15,2*%
%TO.N,GND*%
X58300000Y-71200000D03*
%TD*%
D12*
%TO.P,D23,1,K*%
%TO.N,Net-(D23-K)*%
X64212500Y-56120000D03*
%TO.P,D23,2,A*%
%TO.N,row4*%
X65787500Y-56120000D03*
%TD*%
D13*
%TO.P,L10,1,VDD*%
%TO.N,GND*%
X140040000Y-84950000D03*
%TO.P,L10,2,DOUT*%
%TO.N,Net-(L10-DOUT)*%
X140040000Y-86450000D03*
%TO.P,L10,3,VSS*%
%TO.N,+5V*%
X135960000Y-86450000D03*
%TO.P,L10,4,DIN*%
%TO.N,Net-(L10-DIN)*%
X135960000Y-84950000D03*
%TD*%
%TO.P,L21,1,VDD*%
%TO.N,GND*%
X64240000Y-141750000D03*
%TO.P,L21,2,DOUT*%
%TO.N,Net-(L21-DOUT)*%
X64240000Y-143250000D03*
%TO.P,L21,3,VSS*%
%TO.N,+5V*%
X60160000Y-143250000D03*
%TO.P,L21,4,DIN*%
%TO.N,Net-(L16-DIN)*%
X60160000Y-141750000D03*
%TD*%
D12*
%TO.P,D50,1,K*%
%TO.N,Net-(D50-K)*%
X64212500Y-132120000D03*
%TO.P,D50,2,A*%
%TO.N,row4*%
X65787500Y-132120000D03*
%TD*%
%TO.P,D18,1,K*%
%TO.N,Net-(D18-K)*%
X83262500Y-56120000D03*
%TO.P,D18,2,A*%
%TO.N,row3*%
X84837500Y-56120000D03*
%TD*%
D30*
%TO.P,C4,1*%
%TO.N,Net-(U1-ADC_AVDD)*%
X94500549Y-73444752D03*
%TO.P,C4,2*%
%TO.N,GND*%
X95179371Y-74123574D03*
%TD*%
D12*
%TO.P,D11,1,K*%
%TO.N,Net-(D11-K)*%
X121262500Y-113120000D03*
%TO.P,D11,2,A*%
%TO.N,row1*%
X122837500Y-113120000D03*
%TD*%
%TO.P,D4,1,K*%
%TO.N,Net-(D4-K)*%
X140262500Y-75120000D03*
%TO.P,D4,2,A*%
%TO.N,row0*%
X141837500Y-75120000D03*
%TD*%
D13*
%TO.P,L23,1,VDD*%
%TO.N,GND*%
X102040000Y-141950000D03*
%TO.P,L23,2,DOUT*%
%TO.N,Net-(L23-DOUT)*%
X102040000Y-143450000D03*
%TO.P,L23,3,VSS*%
%TO.N,+5V*%
X97960000Y-143450000D03*
%TO.P,L23,4,DIN*%
%TO.N,Net-(L22-DOUT)*%
X97960000Y-141950000D03*
%TD*%
D30*
%TO.P,C9,1*%
%TO.N,+3.3V*%
X95300549Y-72644751D03*
%TO.P,C9,2*%
%TO.N,GND*%
X95979371Y-73323573D03*
%TD*%
D31*
%TO.P,D19,1,K*%
%TO.N,Net-(D19-K)*%
X78900000Y-74900000D03*
%TO.P,D19,2,A*%
%TO.N,row3*%
X77325000Y-74900000D03*
%TD*%
D22*
%TO.P,C5,1*%
%TO.N,Net-(U1-ADC_AVDD)*%
X93800549Y-68902396D03*
%TO.P,C5,2*%
%TO.N,GND*%
X94479371Y-68223574D03*
%TD*%
D32*
%TO.P,R2,1*%
%TO.N,Net-(R2-Pad1)*%
X83280000Y-58000000D03*
%TO.P,R2,2*%
%TO.N,Net-(U1-QSPI_SS)*%
X84300000Y-58000000D03*
%TD*%
D13*
%TO.P,L9,1,VDD*%
%TO.N,GND*%
X121040000Y-84950000D03*
%TO.P,L9,2,DOUT*%
%TO.N,Net-(L10-DIN)*%
X121040000Y-86450000D03*
%TO.P,L9,3,VSS*%
%TO.N,+5V*%
X116960000Y-86450000D03*
%TO.P,L9,4,DIN*%
%TO.N,Net-(L8-DOUT)*%
X116960000Y-84950000D03*
%TD*%
D10*
%TO.P,5V,1*%
%TO.N,+5V*%
X118200000Y-70900000D03*
%TD*%
D33*
%TO.P,C1,1*%
%TO.N,GND*%
X113600000Y-71900000D03*
%TO.P,C1,2*%
%TO.N,+5V*%
X113600000Y-70000000D03*
%TD*%
D34*
%TO.P,R4,1*%
%TO.N,/run*%
X91000000Y-78600000D03*
%TO.P,R4,2*%
%TO.N,+3.3V*%
X91721248Y-77878752D03*
%TD*%
D35*
%TO.P,Y1,1,~{ST}*%
%TO.N,Xin*%
X89200000Y-83600000D03*
%TO.P,Y1,2,GND*%
%TO.N,GND*%
X90260660Y-82539340D03*
%TO.P,Y1,3,OUT*%
%TO.N,Net-(Y1-OUT)*%
X89412132Y-81690812D03*
%TO.P,Y1,4,Vdd*%
%TO.N,unconnected-(Y1-Vdd-Pad4)*%
X88351472Y-82751472D03*
%TD*%
D26*
%TO.P,C14,1*%
%TO.N,GND*%
X87545370Y-83911128D03*
%TO.P,C14,2*%
%TO.N,Xin*%
X86866548Y-84589950D03*
%TD*%
D12*
%TO.P,D6,1,K*%
%TO.N,Net-(D6-K)*%
X140262500Y-113120000D03*
%TO.P,D6,2,A*%
%TO.N,row0*%
X141837500Y-113120000D03*
%TD*%
D13*
%TO.P,L6,1,VDD*%
%TO.N,GND*%
X64040000Y-84950000D03*
%TO.P,L6,2,DOUT*%
%TO.N,Net-(L6-DOUT)*%
X64040000Y-86450000D03*
%TO.P,L6,3,VSS*%
%TO.N,+5V*%
X59960000Y-86450000D03*
%TO.P,L6,4,DIN*%
%TO.N,Net-(L11-DIN)*%
X59960000Y-84950000D03*
%TD*%
D34*
%TO.P,R5,1*%
%TO.N,Xout*%
X86088731Y-83812132D03*
%TO.P,R5,2*%
%TO.N,Net-(Y1-OUT)*%
X86809979Y-83090884D03*
%TD*%
D10*
%TO.P,3.3V,1*%
%TO.N,+3.3V*%
X108000000Y-66400000D03*
%TD*%
D13*
%TO.P,L5,1,VDD*%
%TO.N,GND*%
X140040000Y-65950000D03*
%TO.P,L5,2,DOUT*%
%TO.N,Net-(L10-DOUT)*%
X140040000Y-67450000D03*
%TO.P,L5,3,VSS*%
%TO.N,+5V*%
X135960000Y-67450000D03*
%TO.P,L5,4,DIN*%
%TO.N,Net-(L4-DOUT)*%
X135960000Y-65950000D03*
%TD*%
D29*
%TO.P,C10,1*%
%TO.N,GND*%
X94150000Y-66350000D03*
%TO.P,C10,2*%
%TO.N,+3.3V*%
X94150000Y-65390000D03*
%TD*%
D36*
%TO.P,C2,1*%
%TO.N,GND*%
X101900000Y-71100000D03*
%TO.P,C2,2*%
%TO.N,+3.3V*%
X101900000Y-73000000D03*
%TD*%
D13*
%TO.P,L2,1,VDD*%
%TO.N,GND*%
X83040000Y-65950000D03*
%TO.P,L2,2,DOUT*%
%TO.N,Net-(L2-DOUT)*%
X83040000Y-67450000D03*
%TO.P,L2,3,VSS*%
%TO.N,+5V*%
X78960000Y-67450000D03*
%TO.P,L2,4,DIN*%
%TO.N,Net-(L1-DOUT)*%
X78960000Y-65950000D03*
%TD*%
D12*
%TO.P,D12,1,K*%
%TO.N,Net-(D12-K)*%
X121262500Y-132120000D03*
%TO.P,D12,2,A*%
%TO.N,row1*%
X122837500Y-132120000D03*
%TD*%
%TO.P,D9,1,K*%
%TO.N,Net-(D9-K)*%
X121200000Y-75000000D03*
%TO.P,D9,2,A*%
%TO.N,row1*%
X122775000Y-75000000D03*
%TD*%
%TO.P,D8,1,K*%
%TO.N,Net-(D8-K)*%
X121262500Y-56120000D03*
%TO.P,D8,2,A*%
%TO.N,row1*%
X122837500Y-56120000D03*
%TD*%
D32*
%TO.P,R7,1*%
%TO.N,USB_D-*%
X125280002Y-63800000D03*
%TO.P,R7,2*%
%TO.N,Net-(J11-Pin_4)*%
X126300000Y-63800000D03*
%TD*%
D13*
%TO.P,L12,1,VDD*%
%TO.N,GND*%
X83040000Y-103950000D03*
%TO.P,L12,2,DOUT*%
%TO.N,Net-(L12-DOUT)*%
X83040000Y-105450000D03*
%TO.P,L12,3,VSS*%
%TO.N,+5V*%
X78960000Y-105450000D03*
%TO.P,L12,4,DIN*%
%TO.N,Net-(L11-DOUT)*%
X78960000Y-103950000D03*
%TD*%
D12*
%TO.P,D24,1,K*%
%TO.N,Net-(D24-K)*%
X64212500Y-75120000D03*
%TO.P,D24,2,A*%
%TO.N,row4*%
X65787500Y-75120000D03*
%TD*%
D13*
%TO.P,L1,1,VDD*%
%TO.N,GND*%
X64040000Y-65950000D03*
%TO.P,L1,2,DOUT*%
%TO.N,Net-(L1-DOUT)*%
X64040000Y-67450000D03*
%TO.P,L1,3,VSS*%
%TO.N,+5V*%
X59960000Y-67450000D03*
%TO.P,L1,4,DIN*%
%TO.N,WS2812bData*%
X59960000Y-65950000D03*
%TD*%
%TO.P,L16,1,VDD*%
%TO.N,GND*%
X64040000Y-122950000D03*
%TO.P,L16,2,DOUT*%
%TO.N,Net-(L16-DOUT)*%
X64040000Y-124450000D03*
%TO.P,L16,3,VSS*%
%TO.N,+5V*%
X59960000Y-124450000D03*
%TO.P,L16,4,DIN*%
%TO.N,Net-(L16-DIN)*%
X59960000Y-122950000D03*
%TD*%
D10*
%TO.P,RUN,1,1*%
%TO.N,/run*%
X96800000Y-79300000D03*
%TD*%
D13*
%TO.P,L25,1,VDD*%
%TO.N,GND*%
X140040000Y-141950000D03*
%TO.P,L25,2,DOUT*%
%TO.N,unconnected-(L25-DOUT-Pad2)*%
X140040000Y-143450000D03*
%TO.P,L25,3,VSS*%
%TO.N,+5V*%
X135960000Y-143450000D03*
%TO.P,L25,4,DIN*%
%TO.N,Net-(L24-DOUT)*%
X135960000Y-141950000D03*
%TD*%
D18*
%TO.P,GND,1,Pin_1*%
%TO.N,GND*%
X60400000Y-109500000D03*
%TD*%
D37*
%TO.P,M_SW18,1*%
%TO.N,Net-(D20-K)*%
X81000000Y-94100000D03*
%TO.P,M_SW18,2*%
%TO.N,col2*%
X76000000Y-96200000D03*
%TD*%
%TO.P,M_SW2,1*%
%TO.N,Net-(D4-K)*%
X138000000Y-75100000D03*
%TO.P,M_SW2,2*%
%TO.N,col1*%
X133000000Y-77200000D03*
%TD*%
%TO.P,M_SW21,1*%
%TO.N,Net-(D23-K)*%
X62000000Y-56100000D03*
%TO.P,M_SW21,2*%
%TO.N,col0*%
X57000000Y-58200000D03*
%TD*%
%TO.P,M_SW20,1*%
%TO.N,Net-(D22-K)*%
X81000000Y-132100000D03*
%TO.P,M_SW20,2*%
%TO.N,col4*%
X76000000Y-134200000D03*
%TD*%
%TO.P,M_SW9,1*%
%TO.N,Net-(D11-K)*%
X119000000Y-113100000D03*
%TO.P,M_SW9,2*%
%TO.N,col3*%
X114000000Y-115200000D03*
%TD*%
%TO.P,M_SW6,1*%
%TO.N,Net-(D8-K)*%
X119000000Y-56100000D03*
%TO.P,M_SW6,2*%
%TO.N,col0*%
X114000000Y-58200000D03*
%TD*%
%TO.P,M_SW5,1*%
%TO.N,Net-(D7-K)*%
X138000000Y-132100000D03*
%TO.P,M_SW5,2*%
%TO.N,col4*%
X133000000Y-134200000D03*
%TD*%
%TO.P,M_SW19,1*%
%TO.N,Net-(D21-K)*%
X81000000Y-113100000D03*
%TO.P,M_SW19,2*%
%TO.N,col3*%
X76000000Y-115200000D03*
%TD*%
%TO.P,M_SW8,1*%
%TO.N,Net-(D10-K)*%
X119000000Y-94100000D03*
%TO.P,M_SW8,2*%
%TO.N,col2*%
X114000000Y-96200000D03*
%TD*%
%TO.P,M_SW12,1*%
%TO.N,Net-(D14-K)*%
X100000000Y-75100000D03*
%TO.P,M_SW12,2*%
%TO.N,col1*%
X95000000Y-77200000D03*
%TD*%
%TO.P,M_SW23,1*%
%TO.N,Net-(D25-K)*%
X62000000Y-94100000D03*
%TO.P,M_SW23,2*%
%TO.N,col2*%
X57000000Y-96200000D03*
%TD*%
%TO.P,M_SW11,1*%
%TO.N,Net-(D13-K)*%
X100000000Y-56100000D03*
%TO.P,M_SW11,2*%
%TO.N,col0*%
X95000000Y-58200000D03*
%TD*%
%TO.P,M_SW16,1*%
%TO.N,Net-(D18-K)*%
X81000000Y-56100000D03*
%TO.P,M_SW16,2*%
%TO.N,col0*%
X76000000Y-58200000D03*
%TD*%
%TO.P,M_SW7,1*%
%TO.N,Net-(D9-K)*%
X119000000Y-75100000D03*
%TO.P,M_SW7,2*%
%TO.N,col1*%
X114000000Y-77200000D03*
%TD*%
%TO.P,M_SW3,1*%
%TO.N,Net-(D5-K)*%
X138000000Y-94100000D03*
%TO.P,M_SW3,2*%
%TO.N,col2*%
X133000000Y-96200000D03*
%TD*%
%TO.P,M_SW24,1*%
%TO.N,Net-(D26-K)*%
X62000000Y-113100000D03*
%TO.P,M_SW24,2*%
%TO.N,col3*%
X57000000Y-115200000D03*
%TD*%
%TO.P,M_SW14,1*%
%TO.N,Net-(D16-K)*%
X100000000Y-113100000D03*
%TO.P,M_SW14,2*%
%TO.N,col3*%
X95000000Y-115200000D03*
%TD*%
D16*
%TO.P,J6,1,Pin_1*%
%TO.N,potSig*%
X128500000Y-102560000D03*
D17*
%TO.P,J6,2,Pin_2*%
%TO.N,SDA*%
X128500000Y-100020000D03*
%TO.P,J6,3,Pin_3*%
%TO.N,SCL*%
X128500000Y-97480000D03*
%TD*%
D37*
%TO.P,M_SW25,1*%
%TO.N,Net-(D50-K)*%
X62000000Y-132100000D03*
%TO.P,M_SW25,2*%
%TO.N,col4*%
X57000000Y-134200000D03*
%TD*%
%TO.P,M_SW15,1*%
%TO.N,Net-(D17-K)*%
X100000000Y-132100000D03*
%TO.P,M_SW15,2*%
%TO.N,col4*%
X95000000Y-134200000D03*
%TD*%
%TO.P,M_SW4,1*%
%TO.N,Net-(D6-K)*%
X138000000Y-113100000D03*
%TO.P,M_SW4,2*%
%TO.N,col3*%
X133000000Y-115200000D03*
%TD*%
%TO.P,M_SW13,1*%
%TO.N,Net-(D15-K)*%
X100000000Y-94100000D03*
%TO.P,M_SW13,2*%
%TO.N,col2*%
X95000000Y-96200000D03*
%TD*%
%TO.P,M_SW1,1*%
%TO.N,Net-(D3-K)*%
X138000000Y-56100000D03*
%TO.P,M_SW1,2*%
%TO.N,col0*%
X133000000Y-58200000D03*
%TD*%
%TO.P,M_SW10,1*%
%TO.N,Net-(D12-K)*%
X119000000Y-132100000D03*
%TO.P,M_SW10,2*%
%TO.N,col4*%
X114000000Y-134200000D03*
%TD*%
%TO.P,M_SW17,1*%
%TO.N,Net-(D19-K)*%
X81000000Y-75100000D03*
%TO.P,M_SW17,2*%
%TO.N,col1*%
X76000000Y-77200000D03*
%TD*%
%TO.P,M_SW22,1*%
%TO.N,Net-(D24-K)*%
X62000000Y-75100000D03*
%TO.P,M_SW22,2*%
%TO.N,col1*%
X57000000Y-77200000D03*
%TD*%
D38*
%TO.N,GND*%
X118800000Y-64700000D03*
%TO.N,+5V*%
X115400000Y-70000000D03*
X96600000Y-67100000D03*
X77400000Y-68501000D03*
X71300000Y-87600000D03*
X90500000Y-106900000D03*
X90500000Y-144600000D03*
X59800000Y-73600000D03*
X60800000Y-68900000D03*
X90500000Y-125700000D03*
%TO.N,GND*%
X104000000Y-66000000D03*
X71000000Y-67200000D03*
X91464156Y-83034315D03*
X74100000Y-64700000D03*
X107900000Y-83800000D03*
D39*
X109500000Y-108100000D03*
D38*
X83700000Y-64700000D03*
D39*
X109500000Y-77400000D03*
D38*
X83100000Y-83700000D03*
X109500000Y-140506161D03*
X109500000Y-121500000D03*
X88211465Y-84589950D03*
X90300000Y-74800000D03*
X100200000Y-70800000D03*
X88600000Y-59800000D03*
X88000000Y-70700000D03*
X97200000Y-73600000D03*
%TO.N,+3.3V*%
X80200000Y-59100000D03*
X94400000Y-64000000D03*
%TO.N,row0*%
X115200000Y-73800000D03*
X142000000Y-130600000D03*
X142000000Y-57200000D03*
X142000000Y-88300000D03*
X142000000Y-114200000D03*
X142000000Y-95200000D03*
D40*
X83575000Y-71600000D03*
D38*
X142000000Y-73800000D03*
%TO.N,row1*%
X106400000Y-79300000D03*
D40*
X83594742Y-70819742D03*
D38*
X123000000Y-95200000D03*
X123000000Y-76200000D03*
X123000000Y-57200000D03*
X123000000Y-130600000D03*
X123000000Y-114200000D03*
X123000000Y-88500000D03*
D40*
%TO.N,row2*%
X84226000Y-70400000D03*
D38*
X104000000Y-111600000D03*
X104000000Y-76700000D03*
X104000000Y-95200000D03*
X104000000Y-57401000D03*
X104000000Y-130600000D03*
%TO.N,row3*%
X76100000Y-74900000D03*
X85000000Y-130600000D03*
X85000000Y-111600000D03*
D40*
X83100000Y-69800000D03*
D38*
X85000000Y-95200000D03*
X86300000Y-56200000D03*
%TO.N,row4*%
X66000000Y-57200000D03*
X66000000Y-95200000D03*
X66000000Y-76200000D03*
X66000000Y-130600000D03*
X66000000Y-111600000D03*
D40*
X81700000Y-68800000D03*
D38*
%TO.N,potSig*%
X76600000Y-88500000D03*
X88900000Y-79300000D03*
%TO.N,SCL*%
X79500000Y-78800000D03*
X87900000Y-79100000D03*
%TO.N,SDA*%
X86500000Y-78500000D03*
X78700000Y-78100000D03*
%TO.N,Net-(L2-DOUT)*%
X84800000Y-66100000D03*
X96300000Y-66000000D03*
%TO.N,Net-(L3-DOUT)*%
X103800000Y-67500000D03*
X115200000Y-65950000D03*
D40*
%TO.N,col0*%
X87300000Y-68100000D03*
%TO.N,col1*%
X86600000Y-67900000D03*
%TO.N,col2*%
X85900000Y-67700000D03*
%TO.N,col3*%
X85200000Y-67600000D03*
%TO.N,col4*%
X84400000Y-68000000D03*
D38*
%TO.N,USB_D+*%
X125100000Y-60300000D03*
X94900000Y-69300000D03*
%TO.N,USB_D-*%
X95800000Y-69800000D03*
X124100000Y-63800000D03*
%TD*%
D41*
%TO.N,+3.3V*%
X96800000Y-63800000D02*
X97400000Y-64400000D01*
X96800000Y-62100000D02*
X96800000Y-63800000D01*
D42*
X97400000Y-64400000D02*
X95140000Y-64400000D01*
D41*
%TO.N,Net-(U1-QSPI_SS)*%
X96780000Y-61080000D02*
X96800000Y-61080000D01*
X96100000Y-60400000D02*
X96780000Y-61080000D01*
X93700000Y-60400000D02*
X96100000Y-60400000D01*
X92410304Y-59110304D02*
X93700000Y-60400000D01*
X92410304Y-58338224D02*
X92410304Y-59110304D01*
D42*
%TO.N,+3.3V*%
X95140000Y-64400000D02*
X94940000Y-64600000D01*
X103600000Y-64400000D02*
X97400000Y-64400000D01*
X104850000Y-65650000D02*
X103600000Y-64400000D01*
X104850000Y-68650000D02*
X104850000Y-65650000D01*
D41*
X105050000Y-68450000D02*
X104850000Y-68650000D01*
%TO.N,Net-(U1-ADC_AVDD)*%
X93600000Y-72400000D02*
X94500549Y-73300549D01*
X93111270Y-72400000D02*
X93600000Y-72400000D01*
X92948528Y-72562742D02*
X93111270Y-72400000D01*
X94500549Y-73300549D02*
X94500549Y-73444751D01*
%TO.N,GND*%
X94032900Y-75600000D02*
X95179371Y-74453529D01*
X95179371Y-74453529D02*
X95179371Y-74123574D01*
X93442356Y-75600000D02*
X94032900Y-75600000D01*
X93221178Y-75378822D02*
X93442356Y-75600000D01*
%TO.N,Net-(L7-DOUT)*%
X96750000Y-84950000D02*
X97960000Y-84950000D01*
X83040000Y-86450000D02*
X95250000Y-86450000D01*
X95250000Y-86450000D02*
X96750000Y-84950000D01*
%TO.N,GND*%
X100804424Y-102714424D02*
X100800000Y-102714424D01*
X102040000Y-103950000D02*
X100804424Y-102714424D01*
%TO.N,+5V*%
X90500000Y-125700000D02*
X61210000Y-125700000D01*
X116960000Y-124450000D02*
X115710000Y-125700000D01*
X77600000Y-144600000D02*
X90500000Y-144600000D01*
X118200000Y-70900000D02*
X116300000Y-70900000D01*
X134610000Y-68800000D02*
X135960000Y-67450000D01*
X77910000Y-68500000D02*
X78960000Y-67450000D01*
X134810000Y-87600000D02*
X135960000Y-86450000D01*
X77900000Y-87510000D02*
X77900000Y-87600000D01*
X77300000Y-106900000D02*
X90500000Y-106900000D01*
X58300000Y-72160000D02*
X60060000Y-72160000D01*
X134710000Y-125700000D02*
X90500000Y-125700000D01*
X78960000Y-105450000D02*
X77510000Y-106900000D01*
X77400000Y-68501000D02*
X74901000Y-68501000D01*
X96810000Y-87600000D02*
X97960000Y-86450000D01*
X95900000Y-106900000D02*
X115100000Y-106900000D01*
X115510000Y-106900000D02*
X115100000Y-106900000D01*
X77810000Y-144600000D02*
X77600000Y-144600000D01*
X61110000Y-87600000D02*
X70700000Y-87600000D01*
X135960000Y-105450000D02*
X134510000Y-106900000D01*
X77510000Y-106900000D02*
X77300000Y-106900000D01*
X97960000Y-124450000D02*
X96710000Y-125700000D01*
X90500000Y-106900000D02*
X95900000Y-106900000D01*
X97960000Y-105450000D02*
X96510000Y-106900000D01*
X61210000Y-125700000D02*
X60855000Y-125345000D01*
X116960000Y-143450000D02*
X115810000Y-144600000D01*
X59960000Y-86450000D02*
X61110000Y-87600000D01*
X59450000Y-143250000D02*
X60160000Y-143250000D01*
X61110000Y-144600000D02*
X77600000Y-144600000D01*
X77710000Y-125700000D02*
X77600000Y-125700000D01*
X59960000Y-105450000D02*
X61410000Y-106900000D01*
X116960000Y-86450000D02*
X115810000Y-87600000D01*
X60800000Y-68900000D02*
X60800000Y-68850000D01*
X78960000Y-143450000D02*
X77810000Y-144600000D01*
X77401000Y-68500000D02*
X77910000Y-68500000D01*
X96810000Y-87600000D02*
X134810000Y-87600000D01*
X61410000Y-106900000D02*
X77300000Y-106900000D01*
X90500000Y-125700000D02*
X90400000Y-125800000D01*
X59960000Y-124450000D02*
X60855000Y-125345000D01*
X71300000Y-87600000D02*
X70700000Y-87600000D01*
X116960000Y-105450000D02*
X115510000Y-106900000D01*
X116150000Y-67450000D02*
X113600000Y-70000000D01*
X115710000Y-125700000D02*
X115600000Y-125700000D01*
X96810000Y-144600000D02*
X96100000Y-144600000D01*
X115200000Y-68400000D02*
X115600000Y-68800000D01*
X116960000Y-67450000D02*
X116150000Y-67450000D01*
X90500000Y-144600000D02*
X96100000Y-144600000D01*
X77400000Y-68501000D02*
X77401000Y-68500000D01*
X115810000Y-87600000D02*
X115800000Y-87600000D01*
X60800000Y-68850000D02*
X59960000Y-68010000D01*
X60100000Y-73300000D02*
X59800000Y-73600000D01*
X59960000Y-68010000D02*
X59960000Y-67450000D01*
X115810000Y-144600000D02*
X115200000Y-144600000D01*
X115100000Y-106900000D02*
X134510000Y-106900000D01*
X135960000Y-124450000D02*
X134710000Y-125700000D01*
X96510000Y-106900000D02*
X95900000Y-106900000D01*
X59960000Y-143450000D02*
X61110000Y-144600000D01*
X96710000Y-125700000D02*
X96600000Y-125700000D01*
X78960000Y-86450000D02*
X77900000Y-87510000D01*
X96600000Y-67100000D02*
X96950000Y-67450000D01*
X96950000Y-67450000D02*
X97960000Y-67450000D01*
X134810000Y-144600000D02*
X135960000Y-143450000D01*
X70700000Y-87600000D02*
X96810000Y-87600000D01*
X115200000Y-144600000D02*
X134810000Y-144600000D01*
X78960000Y-124450000D02*
X77710000Y-125700000D01*
D43*
X111150000Y-70000000D02*
X113600000Y-70000000D01*
D41*
X96100000Y-144600000D02*
X115200000Y-144600000D01*
X116300000Y-70900000D02*
X115400000Y-70000000D01*
X60100000Y-72200000D02*
X60100000Y-73300000D01*
X60060000Y-72160000D02*
X60100000Y-72200000D01*
D42*
X115400000Y-70000000D02*
X113600000Y-70000000D01*
D41*
X115600000Y-68800000D02*
X134610000Y-68800000D01*
X97960000Y-143450000D02*
X96810000Y-144600000D01*
%TO.N,GND*%
X74100000Y-64700000D02*
X65600000Y-64700000D01*
D42*
X96179371Y-70823574D02*
X100176426Y-70823574D01*
D44*
X109500000Y-108100000D02*
X108100000Y-109500000D01*
D41*
X81804424Y-102714424D02*
X81700000Y-102714424D01*
X97200000Y-73600000D02*
X96400000Y-74400000D01*
D44*
X107700000Y-109500000D02*
X139551208Y-109500000D01*
X60500000Y-109500000D02*
X107700000Y-109500000D01*
D41*
X102040000Y-122950000D02*
X100590000Y-121500000D01*
X60700000Y-71200000D02*
X61600000Y-70300000D01*
X94150000Y-66350000D02*
X95800000Y-68000000D01*
D42*
X100200000Y-70800000D02*
X101600000Y-70800000D01*
D41*
X58300000Y-71200000D02*
X60700000Y-71200000D01*
D45*
X121001000Y-64299000D02*
X121001000Y-63199000D01*
D41*
X97155798Y-73644202D02*
X96300000Y-73644202D01*
X91165757Y-81393827D02*
X91464156Y-81692226D01*
D45*
X125420000Y-58780000D02*
X128600000Y-58780000D01*
D41*
X104000000Y-66000000D02*
X103950000Y-65950000D01*
X83700000Y-64700000D02*
X74100000Y-64700000D01*
X108100000Y-109500000D02*
X109300000Y-109500000D01*
X87265158Y-73154944D02*
X85659743Y-74760359D01*
X67900000Y-70300000D02*
X71000000Y-67200000D01*
X64040000Y-103950000D02*
X65275576Y-102714424D01*
X83040000Y-141950000D02*
X81590000Y-140500000D01*
X83040000Y-103950000D02*
X81804424Y-102714424D01*
D42*
X113600000Y-71900000D02*
X114500000Y-72800000D01*
D41*
X83040000Y-122950000D02*
X81590000Y-121500000D01*
X62375000Y-70300000D02*
X67900000Y-70300000D01*
X101600000Y-70800000D02*
X101900000Y-71100000D01*
X90300000Y-74775573D02*
X90300000Y-74800000D01*
X95400000Y-67600000D02*
X93702945Y-67600000D01*
X121040000Y-122950000D02*
X119590000Y-121500000D01*
X109500000Y-140506161D02*
X138583839Y-140506161D01*
X81790000Y-83700000D02*
X81600000Y-83700000D01*
X95455797Y-74400000D02*
X95179371Y-74123574D01*
X88600000Y-59800000D02*
X88600000Y-58338528D01*
X138804424Y-102714424D02*
X140040000Y-103950000D01*
X138590000Y-121500000D02*
X140040000Y-122950000D01*
X140040000Y-65950000D02*
X139190000Y-65100000D01*
X88679371Y-71379371D02*
X88000000Y-70700000D01*
X83040000Y-83760000D02*
X83100000Y-83700000D01*
X65483839Y-140506161D02*
X109500000Y-140506161D01*
X109300000Y-109500000D02*
X111700000Y-111900000D01*
X64040000Y-141950000D02*
X65483839Y-140506161D01*
X81600000Y-83700000D02*
X83100000Y-83700000D01*
X64040000Y-122950000D02*
X65483839Y-121506161D01*
X119804424Y-102714424D02*
X119800000Y-102714424D01*
X90260660Y-82539340D02*
X90755635Y-83034315D01*
D43*
X109500000Y-77400000D02*
X111150000Y-75750000D01*
D41*
X61600000Y-70300000D02*
X62375000Y-70300000D01*
X121040000Y-103950000D02*
X119804424Y-102714424D01*
X96300000Y-73644202D02*
X95979371Y-73323573D01*
X107955000Y-83855000D02*
X138945000Y-83855000D01*
X138945000Y-83855000D02*
X140040000Y-84950000D01*
D43*
X111150000Y-74600000D02*
X112900000Y-74600000D01*
X112900000Y-74600000D02*
X113600000Y-73900000D01*
D41*
X138590000Y-140500000D02*
X140040000Y-141950000D01*
X96400000Y-74400000D02*
X95455797Y-74400000D01*
X120200000Y-65100000D02*
X120195000Y-65105000D01*
X65600000Y-64700000D02*
X65290000Y-64700000D01*
X83040000Y-84950000D02*
X81790000Y-83700000D01*
X103190000Y-83800000D02*
X107900000Y-83800000D01*
X88211465Y-84577222D02*
X88211465Y-84589950D01*
X97200000Y-73600000D02*
X97155798Y-73644202D01*
X102040000Y-141950000D02*
X100590000Y-140500000D01*
D45*
X120195000Y-65105000D02*
X121001000Y-64299000D01*
D41*
X65483839Y-121506161D02*
X138583839Y-121506161D01*
D45*
X121001000Y-63199000D02*
X125420000Y-58780000D01*
D41*
X88679371Y-73154944D02*
X88679371Y-71379371D01*
D42*
X98823574Y-70423574D02*
X98823574Y-70823574D01*
X95800000Y-68000000D02*
X96400000Y-68000000D01*
D41*
X121040000Y-84950000D02*
X119945000Y-83855000D01*
X88679371Y-73154944D02*
X90554944Y-73154944D01*
D43*
X111150000Y-75750000D02*
X111150000Y-74600000D01*
D41*
X65275576Y-102714424D02*
X138804424Y-102714424D01*
X90755635Y-83034315D02*
X91464156Y-83034315D01*
X95900000Y-68100000D02*
X94602945Y-68100000D01*
X108100000Y-109500000D02*
X107700000Y-109500000D01*
X107955000Y-83855000D02*
X107900000Y-83800000D01*
X98823574Y-70823574D02*
X100176426Y-70823574D01*
X103950000Y-65950000D02*
X102040000Y-65950000D01*
X100176426Y-70823574D02*
X100200000Y-70800000D01*
X64040000Y-84950000D02*
X65290000Y-83700000D01*
X91464156Y-81692226D02*
X91464156Y-83034315D01*
X83040000Y-65360000D02*
X83040000Y-65950000D01*
X88679371Y-73154944D02*
X87265158Y-73154944D01*
X121040000Y-141950000D02*
X119590000Y-140500000D01*
X139190000Y-65100000D02*
X120200000Y-65100000D01*
X88679371Y-73154944D02*
X88679371Y-74579371D01*
X83700000Y-64700000D02*
X83040000Y-65360000D01*
D42*
X88679371Y-73154944D02*
X90300000Y-74775573D01*
D41*
X64040000Y-65950000D02*
X65290000Y-64700000D01*
X102040000Y-84950000D02*
X103190000Y-83800000D01*
X87545370Y-83911127D02*
X88211465Y-84577222D01*
X65290000Y-83700000D02*
X81600000Y-83700000D01*
D42*
X96400000Y-68000000D02*
X98823574Y-70423574D01*
D43*
X113600000Y-73900000D02*
X113600000Y-71900000D01*
D41*
%TO.N,+3.3V*%
X96339660Y-75500000D02*
X97969830Y-73869830D01*
D42*
X105050000Y-68450000D02*
X107100000Y-66400000D01*
D43*
X102125000Y-73000000D02*
X102700000Y-73000000D01*
D42*
X94940000Y-64600000D02*
X94150000Y-65390000D01*
D41*
X94700000Y-75500000D02*
X96339660Y-75500000D01*
X94140000Y-65400000D02*
X92523528Y-65400000D01*
X94555798Y-71900000D02*
X93045584Y-71900000D01*
X98839660Y-73000000D02*
X97969830Y-73869830D01*
D43*
X103300000Y-73000000D02*
X104475000Y-73000000D01*
D42*
X102700000Y-73000000D02*
X103250000Y-72450000D01*
D41*
X94940000Y-64540000D02*
X94940000Y-64600000D01*
D43*
X102700000Y-73000000D02*
X103300000Y-73000000D01*
D41*
X98484411Y-72644751D02*
X98839660Y-73000000D01*
X107100000Y-66400000D02*
X108000000Y-66400000D01*
D42*
X103250000Y-70250000D02*
X105050000Y-68450000D01*
D41*
X101900000Y-73000000D02*
X98839660Y-73000000D01*
X103300000Y-73000000D02*
X103200000Y-72900000D01*
X95300549Y-72644751D02*
X94555798Y-71900000D01*
X92321248Y-77878752D02*
X94700000Y-75500000D01*
X95300549Y-72644751D02*
X98484411Y-72644751D01*
D42*
X94400000Y-64000000D02*
X94940000Y-64540000D01*
D41*
X80300000Y-59000000D02*
X80200000Y-59100000D01*
X91721248Y-77878752D02*
X92321248Y-77878752D01*
X93045584Y-71900000D02*
X92665685Y-72279899D01*
X81080000Y-59000000D02*
X80300000Y-59000000D01*
D42*
X103250000Y-72450000D02*
X103250000Y-70250000D01*
D41*
%TO.N,Net-(U1-ADC_AVDD)*%
X91534315Y-71147114D02*
X91534315Y-71148529D01*
X93800549Y-68902396D02*
X93402945Y-69300000D01*
X92822816Y-69300000D02*
X92161408Y-69961408D01*
X93402945Y-69300000D02*
X92822816Y-69300000D01*
X93900000Y-74700000D02*
X93900000Y-74045301D01*
X92161408Y-69961408D02*
X92161408Y-70520021D01*
X91257130Y-70865686D02*
X91251472Y-70865686D01*
X93424955Y-74224955D02*
X93900000Y-74700000D01*
X92161408Y-70520021D02*
X91534315Y-71147114D01*
X92161408Y-69961408D02*
X91257130Y-70865686D01*
X93424955Y-74223574D02*
X92948528Y-73747146D01*
X93424955Y-74223574D02*
X93424955Y-74224955D01*
X93900000Y-74045301D02*
X94500549Y-73444752D01*
%TO.N,+1V1*%
X93079900Y-71300000D02*
X92382843Y-71997057D01*
X95298153Y-71300000D02*
X93079900Y-71300000D01*
X95500549Y-71502396D02*
X95298153Y-71300000D01*
X93000549Y-68402395D02*
X93000549Y-68556581D01*
X93000549Y-68402396D02*
X93000549Y-68555167D01*
X91091030Y-70464686D02*
X91088200Y-70464686D01*
X93000549Y-68555167D02*
X91091030Y-70464686D01*
%TO.N,Net-(Y1-OUT)*%
X88351472Y-81690812D02*
X86827276Y-83215008D01*
X89412132Y-81690812D02*
X88351472Y-81690812D01*
X89412132Y-81690812D02*
X90387940Y-80715005D01*
%TO.N,Xin*%
X86059031Y-84589950D02*
X85584540Y-84115460D01*
X85584540Y-84115460D02*
X84198000Y-82728919D01*
X89200000Y-83600000D02*
X89200000Y-84800000D01*
X84198000Y-76787786D02*
X85824427Y-75161359D01*
X88600000Y-85400000D02*
X86869080Y-85400000D01*
X86866548Y-84589950D02*
X86059031Y-84589950D01*
X86869080Y-85400000D02*
X85584540Y-84115460D01*
X89200000Y-84800000D02*
X88600000Y-85400000D01*
X84198000Y-82728919D02*
X84198000Y-76787786D01*
%TO.N,Net-(D3-K)*%
X140262500Y-56120000D02*
X138020000Y-56120000D01*
%TO.N,row0*%
X142000000Y-94270000D02*
X142000000Y-94900000D01*
X124300000Y-73800000D02*
X115200000Y-73800000D01*
X132837030Y-75000000D02*
X125500000Y-75000000D01*
X142000000Y-73800000D02*
X142000000Y-74957500D01*
X142000000Y-73800000D02*
X134037030Y-73800000D01*
X134037030Y-73800000D02*
X132837030Y-75000000D01*
X83575000Y-71600000D02*
X84011742Y-71600000D01*
X125500000Y-75000000D02*
X124300000Y-73800000D01*
X142000000Y-88300000D02*
X142000000Y-93970000D01*
X142000000Y-56270000D02*
X142000000Y-56900000D01*
X142000000Y-113270000D02*
X142000000Y-113900000D01*
X84011742Y-71600000D02*
X84692349Y-72280607D01*
X142000000Y-130600000D02*
X142000000Y-131970000D01*
%TO.N,Net-(D4-K)*%
X138050000Y-75100000D02*
X140305000Y-75100000D01*
X138000000Y-75100000D02*
X140242500Y-75100000D01*
%TO.N,Net-(D5-K)*%
X138050000Y-94100000D02*
X140305000Y-94100000D01*
X138000000Y-94100000D02*
X140242500Y-94100000D01*
%TO.N,Net-(D6-K)*%
X138050000Y-113100000D02*
X140305000Y-113100000D01*
%TO.N,Net-(D7-K)*%
X138000000Y-132100000D02*
X140242500Y-132100000D01*
X138050000Y-132100000D02*
X140305000Y-132100000D01*
%TO.N,row1*%
X123000000Y-113270000D02*
X123000000Y-113900000D01*
X83798584Y-70819742D02*
X84975899Y-71997057D01*
X123000000Y-94270000D02*
X123000000Y-94900000D01*
X83594742Y-70819742D02*
X83798584Y-70819742D01*
X123000000Y-76200000D02*
X123000000Y-75225000D01*
X123000000Y-56270000D02*
X123000000Y-56900000D01*
X123000000Y-88500000D02*
X123000000Y-93970000D01*
X123000000Y-130600000D02*
X123000000Y-131970000D01*
%TO.N,Net-(D8-K)*%
X121262500Y-56120000D02*
X119020000Y-56120000D01*
%TO.N,Net-(D9-K)*%
X121100000Y-75000000D02*
X119100000Y-75000000D01*
%TO.N,Net-(D10-K)*%
X121262500Y-94120000D02*
X119020000Y-94120000D01*
%TO.N,Net-(D11-K)*%
X121262500Y-113120000D02*
X119020000Y-113120000D01*
%TO.N,Net-(D12-K)*%
X121262500Y-132120000D02*
X119020000Y-132120000D01*
%TO.N,Net-(D13-K)*%
X100000000Y-56100000D02*
X102242500Y-56100000D01*
%TO.N,row2*%
X104000000Y-111600000D02*
X104000000Y-112970000D01*
X104000000Y-130600000D02*
X104000000Y-131970000D01*
X102000000Y-76700000D02*
X104000000Y-76700000D01*
X104000000Y-57401000D02*
X104000000Y-56282500D01*
X84226000Y-70681472D02*
X85247456Y-71702928D01*
X84226000Y-70400000D02*
X84226000Y-70681472D01*
X104000000Y-94270000D02*
X104000000Y-94900000D01*
X104000000Y-56282500D02*
X103837500Y-56120000D01*
%TO.N,Net-(D14-K)*%
X100125000Y-75125000D02*
X102000000Y-75125000D01*
%TO.N,Net-(D15-K)*%
X100000000Y-94100000D02*
X102242500Y-94100000D01*
%TO.N,Net-(D16-K)*%
X100000000Y-113100000D02*
X102242500Y-113100000D01*
X102242500Y-113100000D02*
X102262500Y-113120000D01*
%TO.N,Net-(D17-K)*%
X100000000Y-132100000D02*
X102242500Y-132100000D01*
%TO.N,Net-(D18-K)*%
X81000000Y-56100000D02*
X83242500Y-56100000D01*
%TO.N,row3*%
X83100000Y-69800000D02*
X84475898Y-69800000D01*
X85000000Y-94270000D02*
X85000000Y-94900000D01*
X84475898Y-69800000D02*
X85824427Y-71148529D01*
X85000000Y-111600000D02*
X85000000Y-112970000D01*
X84837500Y-56120000D02*
X86220000Y-56120000D01*
X77325000Y-74900000D02*
X76100000Y-74900000D01*
X85000000Y-130600000D02*
X85000000Y-131970000D01*
X86220000Y-56120000D02*
X86300000Y-56200000D01*
%TO.N,Net-(D19-K)*%
X78900000Y-74900000D02*
X80800000Y-74900000D01*
%TO.N,Net-(D20-K)*%
X81000000Y-94100000D02*
X83242500Y-94100000D01*
%TO.N,Net-(D21-K)*%
X83242500Y-113100000D02*
X83262500Y-113120000D01*
X81000000Y-113100000D02*
X83242500Y-113100000D01*
%TO.N,Net-(D22-K)*%
X81000000Y-132100000D02*
X83242500Y-132100000D01*
%TO.N,row4*%
X84400000Y-68800000D02*
X85600000Y-70000000D01*
X81700000Y-68800000D02*
X84400000Y-68800000D01*
X66000000Y-75270000D02*
X66000000Y-75900000D01*
X66000000Y-130600000D02*
X66000000Y-131970000D01*
X85600000Y-70358416D02*
X86107270Y-70865686D01*
X66000000Y-94270000D02*
X66000000Y-94900000D01*
X66000000Y-56270000D02*
X66000000Y-57200000D01*
X66000000Y-111600000D02*
X66000000Y-112970000D01*
X85600000Y-70000000D02*
X85600000Y-70358416D01*
%TO.N,Net-(D23-K)*%
X64212500Y-56120000D02*
X62020000Y-56120000D01*
%TO.N,Net-(D24-K)*%
X64212500Y-75120000D02*
X62020000Y-75120000D01*
%TO.N,Net-(D25-K)*%
X64212500Y-94120000D02*
X62020000Y-94120000D01*
%TO.N,Net-(D26-K)*%
X64212500Y-113120000D02*
X62020000Y-113120000D01*
%TO.N,Net-(D50-K)*%
X64212500Y-132120000D02*
X62020000Y-132120000D01*
%TO.N,Net-(J11-Pin_3)*%
X128400002Y-61519998D02*
X128600000Y-61320000D01*
D42*
X126300000Y-61519998D02*
X128400002Y-61519998D01*
D41*
%TO.N,Net-(J11-Pin_4)*%
X128540000Y-63800000D02*
X128600000Y-63860000D01*
X126300000Y-63800000D02*
X128540000Y-63800000D01*
%TO.N,potSig*%
X92200000Y-75261360D02*
X92200000Y-76000000D01*
X69800000Y-100860000D02*
X71253424Y-102313424D01*
X92200000Y-76000000D02*
X88900000Y-79300000D01*
X91817157Y-74878517D02*
X92200000Y-75261360D01*
X69800000Y-94500000D02*
X69800000Y-100860000D01*
X76600000Y-88500000D02*
X75800000Y-88500000D01*
X75800000Y-88500000D02*
X69800000Y-94500000D01*
X71253424Y-102313424D02*
X71500000Y-102313424D01*
%TO.N,SCL*%
X87600000Y-77911270D02*
X88087169Y-77424101D01*
X128500000Y-97480000D02*
X128079000Y-97901000D01*
X128079000Y-97901000D02*
X71921000Y-97901000D01*
X87900000Y-79100000D02*
X87600000Y-78800000D01*
X87600000Y-78800000D02*
X87600000Y-77911270D01*
X71921000Y-97901000D02*
X71500000Y-97480000D01*
%TO.N,SDA*%
X86500000Y-78500000D02*
X86500000Y-78445584D01*
X71500000Y-100020000D02*
X73481000Y-102001000D01*
X126519000Y-102001000D02*
X128500000Y-100020000D01*
X86500000Y-78500000D02*
X86500000Y-78400000D01*
X86500000Y-78445584D02*
X87804326Y-77141258D01*
X73481000Y-102001000D02*
X126519000Y-102001000D01*
%TO.N,Net-(L1-DOUT)*%
X64040000Y-67450000D02*
X67750000Y-67450000D01*
X69250000Y-65950000D02*
X78960000Y-65950000D01*
X67750000Y-67450000D02*
X69250000Y-65950000D01*
%TO.N,WS2812bData*%
X57800000Y-66700000D02*
X58550000Y-65950000D01*
X58550000Y-65950000D02*
X59960000Y-65950000D01*
X57800000Y-68800000D02*
X57800000Y-66700000D01*
X59300000Y-70300000D02*
X57800000Y-68800000D01*
X60100000Y-70300000D02*
X59300000Y-70300000D01*
%TO.N,Net-(L2-DOUT)*%
X84800000Y-66100000D02*
X83450000Y-67450000D01*
X96300000Y-66000000D02*
X97910000Y-66000000D01*
%TO.N,Net-(L3-DOUT)*%
X102040000Y-67450000D02*
X103750000Y-67450000D01*
X115200000Y-65950000D02*
X116960000Y-65950000D01*
X103750000Y-67450000D02*
X103800000Y-67500000D01*
%TO.N,Net-(L4-DOUT)*%
X133300000Y-67700000D02*
X135050000Y-65950000D01*
X121040000Y-67450000D02*
X121290000Y-67700000D01*
X121290000Y-67700000D02*
X133300000Y-67700000D01*
X135050000Y-65950000D02*
X135960000Y-65950000D01*
%TO.N,Net-(L11-DIN)*%
X59060000Y-84950000D02*
X58500000Y-85510000D01*
X59960000Y-84950000D02*
X59060000Y-84950000D01*
X58500000Y-85510000D02*
X58500000Y-103400000D01*
X58500000Y-103400000D02*
X59050000Y-103950000D01*
X59050000Y-103950000D02*
X59960000Y-103950000D01*
%TO.N,Net-(L6-DOUT)*%
X64940000Y-86450000D02*
X66440000Y-84950000D01*
X64040000Y-86450000D02*
X64940000Y-86450000D01*
X66440000Y-84950000D02*
X78960000Y-84950000D01*
%TO.N,Net-(L8-DOUT)*%
X104440000Y-84950000D02*
X116960000Y-84950000D01*
X102040000Y-86450000D02*
X102940000Y-86450000D01*
X102940000Y-86450000D02*
X104440000Y-84950000D01*
%TO.N,Net-(L10-DIN)*%
X123440000Y-84950000D02*
X135960000Y-84950000D01*
X121940000Y-86450000D02*
X123440000Y-84950000D01*
X121040000Y-86450000D02*
X121940000Y-86450000D01*
%TO.N,Net-(L10-DOUT)*%
X144800000Y-81857036D02*
X144800000Y-72210000D01*
X144800000Y-72210000D02*
X140040000Y-67450000D01*
X140207036Y-86450000D02*
X144800000Y-81857036D01*
%TO.N,Net-(L11-DOUT)*%
X66440000Y-103950000D02*
X78960000Y-103950000D01*
X64040000Y-105450000D02*
X64940000Y-105450000D01*
X64940000Y-105450000D02*
X66440000Y-103950000D01*
%TO.N,Net-(L12-DOUT)*%
X83040000Y-105450000D02*
X83940000Y-105450000D01*
X85440000Y-103950000D02*
X97960000Y-103950000D01*
X83940000Y-105450000D02*
X85440000Y-103950000D01*
%TO.N,Net-(L19-DOUT)*%
X121940000Y-124450000D02*
X123440000Y-122950000D01*
X121040000Y-124450000D02*
X121940000Y-124450000D01*
X123440000Y-122950000D02*
X135960000Y-122950000D01*
%TO.N,Net-(L13-DOUT)*%
X104440000Y-103950000D02*
X116960000Y-103950000D01*
X102940000Y-105450000D02*
X104440000Y-103950000D01*
X102040000Y-105450000D02*
X102940000Y-105450000D01*
%TO.N,Net-(L14-DOUT)*%
X123440000Y-103950000D02*
X135960000Y-103950000D01*
X121940000Y-105450000D02*
X123440000Y-103950000D01*
X121040000Y-105450000D02*
X121940000Y-105450000D01*
%TO.N,Net-(L15-DOUT)*%
X144900000Y-110310000D02*
X144900000Y-120490000D01*
X140040000Y-105450000D02*
X144900000Y-110310000D01*
X141140000Y-124250000D02*
X140240000Y-124250000D01*
X144900000Y-120490000D02*
X141140000Y-124250000D01*
%TO.N,Net-(L16-DOUT)*%
X64940000Y-124450000D02*
X66440000Y-122950000D01*
X64040000Y-124450000D02*
X64940000Y-124450000D01*
X66440000Y-122950000D02*
X78960000Y-122950000D01*
%TO.N,Net-(L17-DOUT)*%
X83940000Y-124450000D02*
X85440000Y-122950000D01*
X85440000Y-122950000D02*
X97960000Y-122950000D01*
X83040000Y-124450000D02*
X83940000Y-124450000D01*
%TO.N,Net-(L18-DOUT)*%
X102040000Y-124450000D02*
X102940000Y-124450000D01*
X104440000Y-122950000D02*
X116960000Y-122950000D01*
X102940000Y-124450000D02*
X104440000Y-122950000D01*
%TO.N,Net-(L16-DIN)*%
X58700000Y-123400000D02*
X59150000Y-122950000D01*
X59150000Y-122950000D02*
X59960000Y-122950000D01*
X58700000Y-140290000D02*
X58700000Y-123400000D01*
X60160000Y-141750000D02*
X58700000Y-140290000D01*
%TO.N,Net-(L21-DOUT)*%
X64940000Y-143450000D02*
X66440000Y-141950000D01*
X66440000Y-141950000D02*
X78960000Y-141950000D01*
%TO.N,Net-(L22-DOUT)*%
X85440000Y-141950000D02*
X97960000Y-141950000D01*
X83940000Y-143450000D02*
X85440000Y-141950000D01*
%TO.N,Net-(L23-DOUT)*%
X102040000Y-143450000D02*
X102940000Y-143450000D01*
X102940000Y-143450000D02*
X104440000Y-141950000D01*
X104440000Y-141950000D02*
X116960000Y-141950000D01*
%TO.N,Net-(L24-DOUT)*%
X121940000Y-143450000D02*
X123440000Y-141950000D01*
X121040000Y-143450000D02*
X121940000Y-143450000D01*
X123440000Y-141950000D02*
X135960000Y-141950000D01*
%TO.N,col0*%
X87804326Y-69168630D02*
X87300000Y-68664304D01*
X87300000Y-68664304D02*
X87300000Y-68100000D01*
X124400000Y-57500000D02*
X132300000Y-57500000D01*
X132300000Y-57500000D02*
X133000000Y-58200000D01*
X114000000Y-58200000D02*
X123700000Y-58200000D01*
X123700000Y-58200000D02*
X124400000Y-57500000D01*
X95000000Y-58200000D02*
X114000000Y-58200000D01*
%TO.N,col1*%
X86600000Y-67900000D02*
X86600000Y-68531404D01*
X57000000Y-77200000D02*
X76000000Y-77200000D01*
X86600000Y-68531404D02*
X87520776Y-69452180D01*
%TO.N,col2*%
X95000000Y-96200000D02*
X114000000Y-96200000D01*
X85900000Y-68398504D02*
X87237226Y-69735730D01*
X114000000Y-96200000D02*
X133000000Y-96200000D01*
X76000000Y-96200000D02*
X95000000Y-96200000D01*
X85900000Y-67700000D02*
X85900000Y-68398504D01*
%TO.N,col3*%
X76000000Y-115200000D02*
X95000000Y-115200000D01*
X85200000Y-68265604D02*
X86953676Y-70019280D01*
X57000000Y-115200000D02*
X76000000Y-115200000D01*
X95000000Y-115200000D02*
X114000000Y-115200000D01*
X114000000Y-115200000D02*
X133000000Y-115200000D01*
X85200000Y-67600000D02*
X85200000Y-68265604D01*
%TO.N,col4*%
X114000000Y-134200000D02*
X133000000Y-134200000D01*
X84400000Y-68000000D02*
X84667296Y-68267296D01*
X84667296Y-68300000D02*
X86667296Y-70300000D01*
X84667296Y-68267296D02*
X84667296Y-68300000D01*
X76000000Y-134200000D02*
X95000000Y-134200000D01*
X95000000Y-134200000D02*
X114000000Y-134200000D01*
%TO.N,Net-(U1-QSPI_SS)*%
X82100000Y-59000000D02*
X83515986Y-59000000D01*
X83515986Y-59000000D02*
X84298000Y-59782014D01*
X92410304Y-58090318D02*
X92410304Y-57210304D01*
X84298000Y-64146414D02*
X89033836Y-68882250D01*
X84298000Y-59782014D02*
X84298000Y-58002000D01*
X84298000Y-58002000D02*
X84300000Y-58000000D01*
X88367800Y-55712214D02*
X84298000Y-59782014D01*
X84298000Y-59782014D02*
X84298000Y-64146414D01*
X90912214Y-55712214D02*
X88367800Y-55712214D01*
X92410304Y-57210304D02*
X90912214Y-55712214D01*
%TO.N,Net-(R2-Pad1)*%
X77938892Y-56638892D02*
X79400000Y-58100000D01*
X72261108Y-56638892D02*
X77938892Y-56638892D01*
X79400000Y-58100000D02*
X83290000Y-58100000D01*
%TO.N,/run*%
X91000000Y-78600000D02*
X97300000Y-78600000D01*
%TO.N,Xout*%
X84599000Y-76952472D02*
X86107270Y-75444202D01*
X86088731Y-83812132D02*
X84599000Y-82322401D01*
X84599000Y-82322401D02*
X84599000Y-76952472D01*
%TO.N,USB_D+*%
X125300000Y-60500000D02*
X126300000Y-60500000D01*
X94900000Y-69300000D02*
X93825736Y-70374264D01*
X125100000Y-60300000D02*
X125300000Y-60500000D01*
X92874264Y-70374264D02*
X91817157Y-71431372D01*
X93825736Y-70374264D02*
X92874264Y-70374264D01*
%TO.N,USB_D-*%
X94692893Y-70807107D02*
X93007107Y-70807107D01*
X93007107Y-70807107D02*
X92100000Y-71714214D01*
X95700000Y-69800000D02*
X94692893Y-70807107D01*
X95800000Y-69800000D02*
X95700000Y-69800000D01*
X124100000Y-63800000D02*
X125280002Y-63800000D01*
%TO.N,Net-(U1-QSPI_SCLK)*%
X89870304Y-65784518D02*
X91700000Y-67614214D01*
X91700000Y-68718686D02*
X90402236Y-70016450D01*
X91700000Y-67614214D02*
X91700000Y-68718686D01*
%TO.N,Net-(U1-QSPI_SD3)*%
X92200000Y-67014214D02*
X92200000Y-68785786D01*
X91140304Y-65954518D02*
X92200000Y-67014214D01*
X90685786Y-70300000D02*
X92200000Y-68785786D01*
%TO.N,Net-(U1-QSPI_SD1)*%
X89999000Y-68718386D02*
X89551586Y-69165800D01*
X88533900Y-56113214D02*
X84699000Y-59948114D01*
X91140304Y-57040304D02*
X90213214Y-56113214D01*
X84699000Y-59948114D02*
X84699000Y-63980314D01*
X90213214Y-56113214D02*
X88533900Y-56113214D01*
X89999000Y-68513214D02*
X89999000Y-68718386D01*
X88332900Y-67614214D02*
X89100000Y-67614214D01*
X89100000Y-67614214D02*
X89999000Y-68513214D01*
X84699000Y-63980314D02*
X88332900Y-67614214D01*
X91140304Y-58338224D02*
X91140304Y-57040304D01*
%TO.N,Net-(U1-QSPI_SD0)*%
X91100000Y-68214214D02*
X91100000Y-68751586D01*
X88600304Y-65714518D02*
X91100000Y-68214214D01*
X91100000Y-68751586D02*
X90118686Y-69732900D01*
%TO.N,Net-(U1-QSPI_SD2)*%
X88700000Y-56514214D02*
X85100000Y-60114214D01*
X89532900Y-67214214D02*
X90400000Y-68081314D01*
X89870304Y-58338224D02*
X89870304Y-56970304D01*
X90400000Y-68081314D02*
X90400000Y-68884486D01*
X90400000Y-68884486D02*
X89835136Y-69449350D01*
X85100000Y-63814214D02*
X88500000Y-67214214D01*
X85100000Y-60114214D02*
X85100000Y-63814214D01*
X89870304Y-56970304D02*
X89414214Y-56514214D01*
X89414214Y-56514214D02*
X88700000Y-56514214D01*
X88500000Y-67214214D02*
X89532900Y-67214214D01*
%TO.N,/ledDataOut*%
X66850000Y-71250000D02*
X69800000Y-74200000D01*
X74500000Y-73000000D02*
X81900000Y-73000000D01*
X83900000Y-75000000D02*
X84854416Y-75000000D01*
X81900000Y-73000000D02*
X83900000Y-75000000D01*
X84854416Y-75000000D02*
X85258742Y-74595674D01*
X69800000Y-74200000D02*
X73300000Y-74200000D01*
X62375000Y-71250000D02*
X66850000Y-71250000D01*
X73300000Y-74200000D02*
X74500000Y-73000000D01*
D45*
%TO.N,GND*%
X119790000Y-64700000D02*
X121040000Y-65950000D01*
X118800000Y-64700000D02*
X119790000Y-64700000D01*
%TD*%
M02*
