M48
; DRILL file {KiCad 9.0.2} date 2026-01-27T21:16:00+0100
; FORMAT={-:-/ absolute / metric / decimal}
; #@! TF.CreationDate,2026-01-27T21:16:00+01:00
; #@! TF.GenerationSoftware,Kicad,Pcbnew,9.0.2
; #@! TF.FileFunction,Plated,1,4,PTH
FMAT,2
METRIC
; #@! TA.AperFunction,Plated,PTH,ViaDrill
T1C0.200
; #@! TA.AperFunction,Plated,PTH,ViaDrill
T2C0.300
; #@! TA.AperFunction,Plated,PTH,ComponentDrill
T3C0.650
; #@! TA.AperFunction,Plated,PTH,ComponentDrill
T4C1.000
; #@! TA.AperFunction,Plated,PTH,ComponentDrill
T5C1.200
%
G90
G05
T1
X81.7Y-68.8
X83.1Y-69.8
X83.575Y-71.6
X83.595Y-70.82
X84.226Y-70.4
X84.4Y-68.0
X85.2Y-67.6
X85.9Y-67.7
X86.6Y-67.9
X87.3Y-68.1
T2
X59.8Y-73.6
X60.8Y-68.9
X66.0Y-57.2
X66.0Y-76.2
X66.0Y-95.2
X66.0Y-111.6
X66.0Y-130.6
X71.0Y-67.2
X71.3Y-87.6
X74.1Y-64.7
X76.1Y-74.9
X76.6Y-88.5
X77.4Y-68.501
X78.7Y-78.1
X79.5Y-78.8
X80.2Y-59.1
X83.1Y-83.7
X83.7Y-64.7
X84.8Y-66.1
X85.0Y-95.2
X85.0Y-111.6
X85.0Y-130.6
X86.3Y-56.2
X86.5Y-78.5
X87.9Y-79.1
X88.0Y-70.7
X88.211Y-84.59
X88.6Y-59.8
X88.9Y-79.3
X90.3Y-74.8
X90.5Y-106.9
X90.5Y-125.7
X90.5Y-144.6
X91.464Y-83.034
X94.4Y-64.0
X94.9Y-69.3
X95.8Y-69.8
X96.3Y-66.0
X96.6Y-67.1
X97.2Y-73.6
X100.2Y-70.8
X103.8Y-67.5
X104.0Y-57.401
X104.0Y-66.0
X104.0Y-76.7
X104.0Y-95.2
X104.0Y-111.6
X104.0Y-130.6
X106.4Y-79.3
X107.9Y-83.8
X109.5Y-77.4
X109.5Y-108.1
X109.5Y-121.5
X109.5Y-140.506
X115.2Y-65.95
X115.2Y-73.8
X115.4Y-70.0
X118.8Y-64.7
X123.0Y-57.2
X123.0Y-76.2
X123.0Y-88.5
X123.0Y-95.2
X123.0Y-114.2
X123.0Y-130.6
X124.1Y-63.8
X125.1Y-60.3
X142.0Y-57.2
X142.0Y-73.8
X142.0Y-88.3
X142.0Y-95.2
X142.0Y-114.2
X142.0Y-130.6
T3
X60.4Y-109.5
X67.9Y-90.5
X139.6Y-90.5
X139.6Y-109.5
T4
X71.5Y-97.48
X71.5Y-100.02
X71.5Y-102.56
X128.5Y-97.48
X128.5Y-100.02
X128.5Y-102.56
X128.6Y-56.24
X128.6Y-58.78
X128.6Y-61.32
X128.6Y-63.86
X128.6Y-66.4
T5
X57.0Y-58.2
X57.0Y-77.2
X57.0Y-96.2
X57.0Y-115.2
X57.0Y-134.2
X62.0Y-56.1
X62.0Y-75.1
X62.0Y-94.1
X62.0Y-113.1
X62.0Y-132.1
X76.0Y-58.2
X76.0Y-77.2
X76.0Y-96.2
X76.0Y-115.2
X76.0Y-134.2
X81.0Y-56.1
X81.0Y-75.1
X81.0Y-94.1
X81.0Y-113.1
X81.0Y-132.1
X95.0Y-58.2
X95.0Y-77.2
X95.0Y-96.2
X95.0Y-115.2
X95.0Y-134.2
X100.0Y-56.1
X100.0Y-75.1
X100.0Y-94.1
X100.0Y-113.1
X100.0Y-132.1
X114.0Y-58.2
X114.0Y-77.2
X114.0Y-96.2
X114.0Y-115.2
X114.0Y-134.2
X119.0Y-56.1
X119.0Y-75.1
X119.0Y-94.1
X119.0Y-113.1
X119.0Y-132.1
X133.0Y-58.2
X133.0Y-77.2
X133.0Y-96.2
X133.0Y-115.2
X133.0Y-134.2
X138.0Y-56.1
X138.0Y-75.1
X138.0Y-94.1
X138.0Y-113.1
X138.0Y-132.1
M30
