%TF.GenerationSoftware,KiCad,Pcbnew,9.0.2*%
%TF.CreationDate,2026-01-24T20:07:03+01:00*%
%TF.ProjectId,Keymodule,4b65796d-6f64-4756-9c65-2e6b69636164,rev?*%
%TF.SameCoordinates,Original*%
%TF.FileFunction,Soldermask,Top*%
%TF.FilePolarity,Negative*%
%FSLAX46Y46*%
G04 Gerber Fmt 4.6, Leading zero omitted, Abs format (unit mm)*
G04 Created by KiCad (PCBNEW 9.0.2) date 2026-01-24 20:07:03*
%MOMM*%
%LPD*%
G01*
G04 APERTURE LIST*
G04 Aperture macros list*
%AMRoundRect*
0 Rectangle with rounded corners*
0 $1 Rounding radius*
0 $2 $3 $4 $5 $6 $7 $8 $9 X,Y pos of 4 corners*
0 Add a 4 corners polygon primitive as box body*
4,1,4,$2,$3,$4,$5,$6,$7,$8,$9,$2,$3,0*
0 Add four circle primitives for the rounded corners*
1,1,$1+$1,$2,$3*
1,1,$1+$1,$4,$5*
1,1,$1+$1,$6,$7*
1,1,$1+$1,$8,$9*
0 Add four rect primitives between the rounded corners*
20,1,$1+$1,$2,$3,$4,$5,0*
20,1,$1+$1,$4,$5,$6,$7,0*
20,1,$1+$1,$6,$7,$8,$9,0*
20,1,$1+$1,$8,$9,$2,$3,0*%
%AMRotRect*
0 Rectangle, with rotation*
0 The origin of the aperture is its center*
0 $1 length*
0 $2 width*
0 $3 Rotation angle, in degrees counterclockwise*
0 Add horizontal line*
21,1,$1,$2,0,0,$3*%
G04 Aperture macros list end*
%ADD10RoundRect,0.218750X-0.218750X-0.256250X0.218750X-0.256250X0.218750X0.256250X-0.218750X0.256250X0*%
%ADD11C,2.200000*%
%ADD12RoundRect,0.123000X-0.777000X-0.287000X0.777000X-0.287000X0.777000X0.287000X-0.777000X0.287000X0*%
%ADD13RoundRect,0.150000X0.150000X-0.512500X0.150000X0.512500X-0.150000X0.512500X-0.150000X-0.512500X0*%
%ADD14RoundRect,0.140000X0.219203X0.021213X0.021213X0.219203X-0.219203X-0.021213X-0.021213X-0.219203X0*%
%ADD15R,1.000000X1.000000*%
%ADD16C,1.000000*%
%ADD17RoundRect,0.050000X-0.309359X0.238649X0.238649X-0.309359X0.309359X-0.238649X-0.238649X0.309359X0*%
%ADD18RoundRect,0.050000X-0.309359X-0.238649X-0.238649X-0.309359X0.309359X0.238649X0.238649X0.309359X0*%
%ADD19RotRect,3.200000X3.200000X315.000000*%
%ADD20RoundRect,0.140000X0.021213X-0.219203X0.219203X-0.021213X-0.021213X0.219203X-0.219203X0.021213X0*%
%ADD21RoundRect,0.375000X0.625000X0.375000X-0.625000X0.375000X-0.625000X-0.375000X0.625000X-0.375000X0*%
%ADD22RoundRect,0.500000X0.500000X1.400000X-0.500000X1.400000X-0.500000X-1.400000X0.500000X-1.400000X0*%
%ADD23RoundRect,0.218750X-0.256250X0.218750X-0.256250X-0.218750X0.256250X-0.218750X0.256250X0.218750X0*%
%ADD24RoundRect,0.140000X-0.021213X0.219203X-0.219203X0.021213X0.021213X-0.219203X0.219203X-0.021213X0*%
%ADD25RoundRect,0.162500X-0.162500X0.650000X-0.162500X-0.650000X0.162500X-0.650000X0.162500X0.650000X0*%
%ADD26RoundRect,0.135000X-0.135000X-0.185000X0.135000X-0.185000X0.135000X0.185000X-0.135000X0.185000X0*%
%ADD27RoundRect,0.140000X-0.140000X-0.170000X0.140000X-0.170000X0.140000X0.170000X-0.140000X0.170000X0*%
%ADD28C,2.000000*%
%ADD29RoundRect,0.135000X0.035355X-0.226274X0.226274X-0.035355X-0.035355X0.226274X-0.226274X0.035355X0*%
%ADD30RoundRect,0.140000X-0.219203X-0.021213X-0.021213X-0.219203X0.219203X0.021213X0.021213X0.219203X0*%
%ADD31RoundRect,0.218750X0.218750X0.256250X-0.218750X0.256250X-0.218750X-0.256250X0.218750X-0.256250X0*%
%ADD32R,1.700000X1.700000*%
%ADD33C,1.700000*%
%ADD34RoundRect,0.250000X0.475000X-0.250000X0.475000X0.250000X-0.475000X0.250000X-0.475000X-0.250000X0*%
%ADD35RoundRect,0.200000X-0.035355X-0.318198X0.318198X0.035355X0.035355X0.318198X-0.318198X-0.035355X0*%
%ADD36RoundRect,0.140000X0.170000X-0.140000X0.170000X0.140000X-0.170000X0.140000X-0.170000X-0.140000X0*%
%ADD37RoundRect,0.250000X-0.475000X0.250000X-0.475000X-0.250000X0.475000X-0.250000X0.475000X0.250000X0*%
%ADD38C,1.900000*%
%ADD39C,3.400000*%
G04 APERTURE END LIST*
D10*
%TO.C,D16*%
X102262500Y-113120000D03*
X103837500Y-113120000D03*
%TD*%
D11*
%TO.C,L3*%
X100000000Y-66700000D03*
D12*
X102040000Y-65950000D03*
X102040000Y-67450000D03*
X97960000Y-67450000D03*
X97960000Y-65950000D03*
%TD*%
D10*
%TO.C,D17*%
X102262500Y-132120000D03*
X103837500Y-132120000D03*
%TD*%
D13*
%TO.C,U2*%
X55900000Y-68300000D03*
X56850000Y-68300000D03*
X57800000Y-68300000D03*
X57800000Y-66025000D03*
X55900000Y-66025000D03*
%TD*%
D14*
%TO.C,C13*%
X91165757Y-81393827D03*
X90486935Y-80715005D03*
%TD*%
D10*
%TO.C,D21*%
X83262500Y-113120000D03*
X84837500Y-113120000D03*
%TD*%
D11*
%TO.C,L11*%
X62000000Y-104700000D03*
D12*
X64040000Y-103950000D03*
X64040000Y-105450000D03*
X59960000Y-105450000D03*
X59960000Y-103950000D03*
%TD*%
D15*
%TO.C,J3*%
X72100000Y-101100000D03*
D16*
X72100000Y-99830000D03*
X72100000Y-98560000D03*
%TD*%
D15*
%TO.C,J5*%
X139600000Y-109500000D03*
%TD*%
D17*
%TO.C,U1*%
X88087169Y-68885787D03*
X87804326Y-69168630D03*
X87521484Y-69451472D03*
X87238641Y-69734315D03*
X86955798Y-70017158D03*
X86672956Y-70300000D03*
X86390113Y-70582843D03*
X86107270Y-70865686D03*
X85824427Y-71148529D03*
X85541585Y-71431371D03*
X85258742Y-71714214D03*
X84975899Y-71997057D03*
X84693057Y-72279899D03*
X84410214Y-72562742D03*
D18*
X84410214Y-73747146D03*
X84693057Y-74029989D03*
X84975899Y-74312831D03*
X85258742Y-74595674D03*
X85541585Y-74878517D03*
X85824427Y-75161359D03*
X86107270Y-75444202D03*
X86390113Y-75727045D03*
X86672956Y-76009888D03*
X86955798Y-76292730D03*
X87238641Y-76575573D03*
X87521484Y-76858416D03*
X87804326Y-77141258D03*
X88087169Y-77424101D03*
D17*
X89271573Y-77424101D03*
X89554416Y-77141258D03*
X89837258Y-76858416D03*
X90120101Y-76575573D03*
X90402944Y-76292730D03*
X90685786Y-76009888D03*
X90968629Y-75727045D03*
X91251472Y-75444202D03*
X91534315Y-75161359D03*
X91817157Y-74878517D03*
X92100000Y-74595674D03*
X92382843Y-74312831D03*
X92665685Y-74029989D03*
X92948528Y-73747146D03*
D18*
X92948528Y-72562742D03*
X92665685Y-72279899D03*
X92382843Y-71997057D03*
X92100000Y-71714214D03*
X91817157Y-71431371D03*
X91534315Y-71148529D03*
X91251472Y-70865686D03*
X90968629Y-70582843D03*
X90685786Y-70300000D03*
X90402944Y-70017158D03*
X90120101Y-69734315D03*
X89837258Y-69451472D03*
X89554416Y-69168630D03*
X89271573Y-68885787D03*
D19*
X88679371Y-73154944D03*
%TD*%
D10*
%TO.C,D26*%
X64212500Y-113120000D03*
X65787500Y-113120000D03*
%TD*%
D20*
%TO.C,C11*%
X93000549Y-68302396D03*
X93679371Y-67623574D03*
%TD*%
D11*
%TO.C,L19*%
X119000000Y-123700000D03*
D12*
X121040000Y-122950000D03*
X121040000Y-124450000D03*
X116960000Y-124450000D03*
X116960000Y-122950000D03*
%TD*%
D10*
%TO.C,D13*%
X102262500Y-56120000D03*
X103837500Y-56120000D03*
%TD*%
%TO.C,D5*%
X140262500Y-94120000D03*
X141837500Y-94120000D03*
%TD*%
%TO.C,D7*%
X140262500Y-132120000D03*
X141837500Y-132120000D03*
%TD*%
D21*
%TO.C,U3*%
X111150000Y-74600000D03*
X111150000Y-72300000D03*
D22*
X104850000Y-72300000D03*
D21*
X111150000Y-70000000D03*
%TD*%
D11*
%TO.C,L7*%
X81000000Y-85700000D03*
D12*
X83040000Y-84950000D03*
X83040000Y-86450000D03*
X78960000Y-86450000D03*
X78960000Y-84950000D03*
%TD*%
D11*
%TO.C,L24*%
X119000000Y-142700000D03*
D12*
X121040000Y-141950000D03*
X121040000Y-143450000D03*
X116960000Y-143450000D03*
X116960000Y-141950000D03*
%TD*%
D10*
%TO.C,D20*%
X83262500Y-94120000D03*
X84837500Y-94120000D03*
%TD*%
D11*
%TO.C,L14*%
X119000000Y-104700000D03*
D12*
X121040000Y-103950000D03*
X121040000Y-105450000D03*
X116960000Y-105450000D03*
X116960000Y-103950000D03*
%TD*%
D11*
%TO.C,L20*%
X138200000Y-123500000D03*
D12*
X140240000Y-122750000D03*
X140240000Y-124250000D03*
X136160000Y-124250000D03*
X136160000Y-122750000D03*
%TD*%
D23*
%TO.C,D14*%
X102000000Y-75125000D03*
X102000000Y-76700000D03*
%TD*%
D10*
%TO.C,D3*%
X140262500Y-56120000D03*
X141837500Y-56120000D03*
%TD*%
D11*
%TO.C,L13*%
X100000000Y-104700000D03*
D12*
X102040000Y-103950000D03*
X102040000Y-105450000D03*
X97960000Y-105450000D03*
X97960000Y-103950000D03*
%TD*%
D11*
%TO.C,L15*%
X138000000Y-104700000D03*
D12*
X140040000Y-103950000D03*
X140040000Y-105450000D03*
X135960000Y-105450000D03*
X135960000Y-103950000D03*
%TD*%
D11*
%TO.C,L4*%
X119000000Y-66700000D03*
D12*
X121040000Y-65950000D03*
X121040000Y-67450000D03*
X116960000Y-67450000D03*
X116960000Y-65950000D03*
%TD*%
D24*
%TO.C,C12*%
X96179371Y-70823574D03*
X95500549Y-71502396D03*
%TD*%
D11*
%TO.C,L18*%
X100000000Y-123700000D03*
D12*
X102040000Y-122950000D03*
X102040000Y-124450000D03*
X97960000Y-124450000D03*
X97960000Y-122950000D03*
%TD*%
D10*
%TO.C,D15*%
X102262500Y-94120000D03*
X103837500Y-94120000D03*
%TD*%
D15*
%TO.C,J4*%
X139600000Y-90500000D03*
%TD*%
D11*
%TO.C,L8*%
X100000000Y-85700000D03*
D12*
X102040000Y-84950000D03*
X102040000Y-86450000D03*
X97960000Y-86450000D03*
X97960000Y-84950000D03*
%TD*%
D15*
%TO.C,J1*%
X60400000Y-90500000D03*
%TD*%
D11*
%TO.C,L17*%
X81000000Y-123700000D03*
D12*
X83040000Y-122950000D03*
X83040000Y-124450000D03*
X78960000Y-124450000D03*
X78960000Y-122950000D03*
%TD*%
D25*
%TO.C,U4*%
X92410304Y-58338224D03*
X91140304Y-58338224D03*
X89870304Y-58338224D03*
X88600304Y-58338224D03*
X88600304Y-65513224D03*
X89870304Y-65513224D03*
X91140304Y-65513224D03*
X92410304Y-65513224D03*
%TD*%
D26*
%TO.C,R3*%
X99980000Y-73200000D03*
X101000000Y-73200000D03*
%TD*%
D11*
%TO.C,L22*%
X81200000Y-142500000D03*
D12*
X83240000Y-141750000D03*
X83240000Y-143250000D03*
X79160000Y-143250000D03*
X79160000Y-141750000D03*
%TD*%
D10*
%TO.C,D22*%
X83262500Y-132120000D03*
X84837500Y-132120000D03*
%TD*%
D27*
%TO.C,C8*%
X173710000Y-142290000D03*
X174670000Y-142290000D03*
%TD*%
D28*
%TO.C,TP2*%
X71400000Y-57500000D03*
%TD*%
D10*
%TO.C,D10*%
X121262500Y-94120000D03*
X122837500Y-94120000D03*
%TD*%
D29*
%TO.C,R6*%
X94458123Y-69644821D03*
X95179371Y-68923573D03*
%TD*%
D10*
%TO.C,D25*%
X64212500Y-94120000D03*
X65787500Y-94120000D03*
%TD*%
D27*
%TO.C,C15*%
X176580000Y-148200000D03*
X177540000Y-148200000D03*
%TD*%
D10*
%TO.C,D23*%
X64212500Y-56120000D03*
X65787500Y-56120000D03*
%TD*%
D11*
%TO.C,L10*%
X138000000Y-85700000D03*
D12*
X140040000Y-84950000D03*
X140040000Y-86450000D03*
X135960000Y-86450000D03*
X135960000Y-84950000D03*
%TD*%
D11*
%TO.C,L21*%
X62200000Y-142500000D03*
D12*
X64240000Y-141750000D03*
X64240000Y-143250000D03*
X60160000Y-143250000D03*
X60160000Y-141750000D03*
%TD*%
D10*
%TO.C,D50*%
X64212500Y-132120000D03*
X65787500Y-132120000D03*
%TD*%
%TO.C,D18*%
X83262500Y-56120000D03*
X84837500Y-56120000D03*
%TD*%
D30*
%TO.C,C4*%
X94500549Y-73444752D03*
X95179371Y-74123574D03*
%TD*%
D10*
%TO.C,D11*%
X121262500Y-113120000D03*
X122837500Y-113120000D03*
%TD*%
%TO.C,D4*%
X140262500Y-75120000D03*
X141837500Y-75120000D03*
%TD*%
D11*
%TO.C,L23*%
X100000000Y-142700000D03*
D12*
X102040000Y-141950000D03*
X102040000Y-143450000D03*
X97960000Y-143450000D03*
X97960000Y-141950000D03*
%TD*%
D30*
%TO.C,C9*%
X95300549Y-72644751D03*
X95979371Y-73323573D03*
%TD*%
D31*
%TO.C,D19*%
X78900000Y-74900000D03*
X77325000Y-74900000D03*
%TD*%
D20*
%TO.C,C5*%
X93800549Y-68902396D03*
X94479371Y-68223574D03*
%TD*%
D26*
%TO.C,R2*%
X83290000Y-58600000D03*
X84310000Y-58600000D03*
%TD*%
D11*
%TO.C,L9*%
X119000000Y-85700000D03*
D12*
X121040000Y-84950000D03*
X121040000Y-86450000D03*
X116960000Y-86450000D03*
X116960000Y-84950000D03*
%TD*%
D32*
%TO.C,J11*%
X33070000Y-150750000D03*
D33*
X33070000Y-153290000D03*
X33070000Y-155830000D03*
X33070000Y-158370000D03*
X33070000Y-160910000D03*
%TD*%
D34*
%TO.C,C1*%
X113600000Y-71900000D03*
X113600000Y-70000000D03*
%TD*%
D29*
%TO.C,R4*%
X91000000Y-78600000D03*
X91721248Y-77878752D03*
%TD*%
D35*
%TO.C,Y1*%
X89200000Y-83600000D03*
X90260660Y-82539340D03*
X89412132Y-81690812D03*
X88351472Y-82751472D03*
%TD*%
D24*
%TO.C,C14*%
X87545370Y-83911128D03*
X86866548Y-84589950D03*
%TD*%
D10*
%TO.C,D6*%
X140262500Y-113120000D03*
X141837500Y-113120000D03*
%TD*%
D11*
%TO.C,L6*%
X62000000Y-85700000D03*
D12*
X64040000Y-84950000D03*
X64040000Y-86450000D03*
X59960000Y-86450000D03*
X59960000Y-84950000D03*
%TD*%
D29*
%TO.C,R5*%
X86088731Y-83812132D03*
X86809979Y-83090884D03*
%TD*%
D11*
%TO.C,L5*%
X138000000Y-66700000D03*
D12*
X140040000Y-65950000D03*
X140040000Y-67450000D03*
X135960000Y-67450000D03*
X135960000Y-65950000D03*
%TD*%
D36*
%TO.C,C10*%
X94150000Y-66350000D03*
X94150000Y-65390000D03*
%TD*%
D27*
%TO.C,C6*%
X170840000Y-146230000D03*
X171800000Y-146230000D03*
%TD*%
D37*
%TO.C,C2*%
X101850000Y-69750000D03*
X101850000Y-71650000D03*
%TD*%
D11*
%TO.C,L2*%
X81000000Y-66700000D03*
D12*
X83040000Y-65950000D03*
X83040000Y-67450000D03*
X78960000Y-67450000D03*
X78960000Y-65950000D03*
%TD*%
D10*
%TO.C,D12*%
X121262500Y-132120000D03*
X122837500Y-132120000D03*
%TD*%
%TO.C,D9*%
X121200000Y-75000000D03*
X122775000Y-75000000D03*
%TD*%
%TO.C,D8*%
X121262500Y-56120000D03*
X122837500Y-56120000D03*
%TD*%
D29*
%TO.C,R7*%
X95158123Y-70323574D03*
X95879371Y-69602326D03*
%TD*%
D11*
%TO.C,L12*%
X81000000Y-104700000D03*
D12*
X83040000Y-103950000D03*
X83040000Y-105450000D03*
X78960000Y-105450000D03*
X78960000Y-103950000D03*
%TD*%
D10*
%TO.C,D24*%
X64212500Y-75120000D03*
X65787500Y-75120000D03*
%TD*%
D27*
%TO.C,C7*%
X170840000Y-148200000D03*
X171800000Y-148200000D03*
%TD*%
D11*
%TO.C,L1*%
X62000000Y-66700000D03*
D12*
X64040000Y-65950000D03*
X64040000Y-67450000D03*
X59960000Y-67450000D03*
X59960000Y-65950000D03*
%TD*%
D11*
%TO.C,L16*%
X62000000Y-123700000D03*
D12*
X64040000Y-122950000D03*
X64040000Y-124450000D03*
X59960000Y-124450000D03*
X59960000Y-122950000D03*
%TD*%
D28*
%TO.C,TP1*%
X98100000Y-77800000D03*
%TD*%
D11*
%TO.C,L25*%
X138000000Y-142700000D03*
D12*
X140040000Y-141950000D03*
X140040000Y-143450000D03*
X135960000Y-143450000D03*
X135960000Y-141950000D03*
%TD*%
D15*
%TO.C,J2*%
X60400000Y-109500000D03*
%TD*%
D38*
%TO.C,M_SW18*%
X86500000Y-100000000D03*
D39*
X81000000Y-100000000D03*
D38*
X75500000Y-100000000D03*
D28*
X81000000Y-94100000D03*
X76000000Y-96200000D03*
%TD*%
D38*
%TO.C,M_SW2*%
X143500000Y-81000000D03*
D39*
X138000000Y-81000000D03*
D38*
X132500000Y-81000000D03*
D28*
X138000000Y-75100000D03*
X133000000Y-77200000D03*
%TD*%
D38*
%TO.C,M_SW21*%
X67500000Y-62000000D03*
D39*
X62000000Y-62000000D03*
D38*
X56500000Y-62000000D03*
D28*
X62000000Y-56100000D03*
X57000000Y-58200000D03*
%TD*%
D38*
%TO.C,M_SW20*%
X86500000Y-138000000D03*
D39*
X81000000Y-138000000D03*
D38*
X75500000Y-138000000D03*
D28*
X81000000Y-132100000D03*
X76000000Y-134200000D03*
%TD*%
D38*
%TO.C,M_SW9*%
X124500000Y-119000000D03*
D39*
X119000000Y-119000000D03*
D38*
X113500000Y-119000000D03*
D28*
X119000000Y-113100000D03*
X114000000Y-115200000D03*
%TD*%
D38*
%TO.C,M_SW6*%
X124500000Y-62000000D03*
D39*
X119000000Y-62000000D03*
D38*
X113500000Y-62000000D03*
D28*
X119000000Y-56100000D03*
X114000000Y-58200000D03*
%TD*%
D38*
%TO.C,M_SW5*%
X143500000Y-138000000D03*
D39*
X138000000Y-138000000D03*
D38*
X132500000Y-138000000D03*
D28*
X138000000Y-132100000D03*
X133000000Y-134200000D03*
%TD*%
D38*
%TO.C,M_SW19*%
X86500000Y-119000000D03*
D39*
X81000000Y-119000000D03*
D38*
X75500000Y-119000000D03*
D28*
X81000000Y-113100000D03*
X76000000Y-115200000D03*
%TD*%
D38*
%TO.C,M_SW8*%
X124500000Y-100000000D03*
D39*
X119000000Y-100000000D03*
D38*
X113500000Y-100000000D03*
D28*
X119000000Y-94100000D03*
X114000000Y-96200000D03*
%TD*%
D38*
%TO.C,M_SW12*%
X105500000Y-81000000D03*
D39*
X100000000Y-81000000D03*
D38*
X94500000Y-81000000D03*
D28*
X100000000Y-75100000D03*
X95000000Y-77200000D03*
%TD*%
D38*
%TO.C,M_SW23*%
X67500000Y-100000000D03*
D39*
X62000000Y-100000000D03*
D38*
X56500000Y-100000000D03*
D28*
X62000000Y-94100000D03*
X57000000Y-96200000D03*
%TD*%
D38*
%TO.C,M_SW11*%
X105500000Y-62000000D03*
D39*
X100000000Y-62000000D03*
D38*
X94500000Y-62000000D03*
D28*
X100000000Y-56100000D03*
X95000000Y-58200000D03*
%TD*%
D38*
%TO.C,M_SW16*%
X86500000Y-62000000D03*
D39*
X81000000Y-62000000D03*
D38*
X75500000Y-62000000D03*
D28*
X81000000Y-56100000D03*
X76000000Y-58200000D03*
%TD*%
D38*
%TO.C,M_SW7*%
X124500000Y-81000000D03*
D39*
X119000000Y-81000000D03*
D38*
X113500000Y-81000000D03*
D28*
X119000000Y-75100000D03*
X114000000Y-77200000D03*
%TD*%
D38*
%TO.C,M_SW3*%
X143500000Y-100000000D03*
D39*
X138000000Y-100000000D03*
D38*
X132500000Y-100000000D03*
D28*
X138000000Y-94100000D03*
X133000000Y-96200000D03*
%TD*%
D38*
%TO.C,M_SW24*%
X67500000Y-119000000D03*
D39*
X62000000Y-119000000D03*
D38*
X56500000Y-119000000D03*
D28*
X62000000Y-113100000D03*
X57000000Y-115200000D03*
%TD*%
D38*
%TO.C,M_SW14*%
X105500000Y-119000000D03*
D39*
X100000000Y-119000000D03*
D38*
X94500000Y-119000000D03*
D28*
X100000000Y-113100000D03*
X95000000Y-115200000D03*
%TD*%
D15*
%TO.C,J6*%
X128200000Y-101740000D03*
D16*
X128200000Y-100470000D03*
X128200000Y-99200000D03*
%TD*%
D38*
%TO.C,M_SW25*%
X67500000Y-138000000D03*
D39*
X62000000Y-138000000D03*
D38*
X56500000Y-138000000D03*
D28*
X62000000Y-132100000D03*
X57000000Y-134200000D03*
%TD*%
D38*
%TO.C,M_SW15*%
X105500000Y-138000000D03*
D39*
X100000000Y-138000000D03*
D38*
X94500000Y-138000000D03*
D28*
X100000000Y-132100000D03*
X95000000Y-134200000D03*
%TD*%
D38*
%TO.C,M_SW4*%
X143500000Y-119000000D03*
D39*
X138000000Y-119000000D03*
D38*
X132500000Y-119000000D03*
D28*
X138000000Y-113100000D03*
X133000000Y-115200000D03*
%TD*%
D38*
%TO.C,M_SW13*%
X105500000Y-100000000D03*
D39*
X100000000Y-100000000D03*
D38*
X94500000Y-100000000D03*
D28*
X100000000Y-94100000D03*
X95000000Y-96200000D03*
%TD*%
D38*
%TO.C,M_SW1*%
X143500000Y-62000000D03*
D39*
X138000000Y-62000000D03*
D38*
X132500000Y-62000000D03*
D28*
X138000000Y-56100000D03*
X133000000Y-58200000D03*
%TD*%
D38*
%TO.C,M_SW10*%
X124500000Y-138000000D03*
D39*
X119000000Y-138000000D03*
D38*
X113500000Y-138000000D03*
D28*
X119000000Y-132100000D03*
X114000000Y-134200000D03*
%TD*%
D38*
%TO.C,M_SW17*%
X86500000Y-81000000D03*
D39*
X81000000Y-81000000D03*
D38*
X75500000Y-81000000D03*
D28*
X81000000Y-75100000D03*
X76000000Y-77200000D03*
%TD*%
D38*
%TO.C,M_SW22*%
X67500000Y-81000000D03*
D39*
X62000000Y-81000000D03*
D38*
X56500000Y-81000000D03*
D28*
X62000000Y-75100000D03*
X57000000Y-77200000D03*
%TD*%
M02*
