M48
; DRILL file {KiCad 9.0.2} date 2026-01-24T20:07:09+0100
; FORMAT={-:-/ absolute / metric / decimal}
; #@! TF.CreationDate,2026-01-24T20:07:09+01:00
; #@! TF.GenerationSoftware,Kicad,Pcbnew,9.0.2
; #@! TF.FileFunction,Plated,1,4,PTH
FMAT,2
METRIC
; #@! TA.AperFunction,Plated,PTH,ViaDrill
T1C0.200
; #@! TA.AperFunction,Plated,PTH,ViaDrill
T2C0.300
; #@! TA.AperFunction,Plated,PTH,ComponentDrill
T3C0.650
; #@! TA.AperFunction,Plated,PTH,ComponentDrill
T4C1.000
; #@! TA.AperFunction,Plated,PTH,ComponentDrill
T5C1.200
%
G90
G05
T1
X36.6Y-77.0
X36.6Y-78.3
X36.6Y-79.0
X37.14Y-77.75
X37.45Y-77.0
X37.67Y-78.3
X37.8Y-79.0
X38.21Y-77.75
X38.3Y-77.0
X38.74Y-78.3
X39.0Y-79.0
X39.15Y-77.0
X39.28Y-77.75
X39.81Y-78.3
X40.0Y-77.0
X40.2Y-79.0
X40.35Y-77.75
X40.88Y-78.3
X41.4Y-79.0
X41.42Y-77.75
X83.575Y-71.6
X83.595Y-70.82
X83.6Y-68.8
X83.8Y-69.8
X84.226Y-70.4
X84.4Y-68.0
X85.2Y-67.6
X85.9Y-67.7
X86.6Y-67.9
X87.3Y-68.1
T2
X58.8Y-69.7
X60.8Y-68.9
X66.0Y-57.2
X66.0Y-76.2
X66.0Y-95.2
X66.0Y-111.6
X66.0Y-114.2
X66.0Y-130.6
X71.0Y-67.2
X71.3Y-87.6
X74.1Y-64.7
X76.1Y-74.9
X77.4Y-68.501
X83.1Y-83.7
X83.7Y-64.7
X84.8Y-66.1
X85.0Y-57.2
X85.0Y-95.2
X85.0Y-111.6
X85.0Y-114.2
X85.0Y-130.6
X85.301Y-86.45
X85.4Y-78.042
X86.5Y-79.0
X87.3Y-79.0
X88.211Y-84.59
X88.6Y-59.8
X91.464Y-83.034
X96.0Y-68.0
X96.0Y-85.7
X96.3Y-66.0
X96.6Y-67.1
X96.7Y-69.0
X96.7Y-70.0
X97.2Y-73.6
X100.3Y-69.7
X103.8Y-67.5
X104.0Y-57.2
X104.0Y-66.0
X104.0Y-76.7
X104.0Y-95.2
X104.0Y-111.6
X104.0Y-114.2
X104.0Y-130.6
X106.4Y-79.3
X107.9Y-83.8
X109.5Y-77.4
X109.5Y-108.1
X114.9Y-68.5
X115.2Y-65.95
X118.8Y-64.7
X123.0Y-57.2
X123.0Y-76.2
X123.0Y-88.5
X123.0Y-95.2
X123.0Y-114.2
X123.0Y-130.6
X141.8Y-73.4
X142.0Y-57.2
X142.0Y-88.3
X142.0Y-95.2
X142.0Y-114.2
X142.0Y-130.6
T3
X60.4Y-90.5
X60.4Y-109.5
X72.1Y-98.56
X72.1Y-99.83
X72.1Y-101.1
X128.2Y-99.2
X128.2Y-100.47
X128.2Y-101.74
X139.6Y-90.5
X139.6Y-109.5
T4
X33.07Y-150.75
X33.07Y-153.29
X33.07Y-155.83
X33.07Y-158.37
X33.07Y-160.91
T5
X57.0Y-58.2
X57.0Y-77.2
X57.0Y-96.2
X57.0Y-115.2
X57.0Y-134.2
X62.0Y-56.1
X62.0Y-75.1
X62.0Y-94.1
X62.0Y-113.1
X62.0Y-132.1
X76.0Y-58.2
X76.0Y-77.2
X76.0Y-96.2
X76.0Y-115.2
X76.0Y-134.2
X81.0Y-56.1
X81.0Y-75.1
X81.0Y-94.1
X81.0Y-113.1
X81.0Y-132.1
X95.0Y-58.2
X95.0Y-77.2
X95.0Y-96.2
X95.0Y-115.2
X95.0Y-134.2
X100.0Y-56.1
X100.0Y-75.1
X100.0Y-94.1
X100.0Y-113.1
X100.0Y-132.1
X114.0Y-58.2
X114.0Y-77.2
X114.0Y-96.2
X114.0Y-115.2
X114.0Y-134.2
X119.0Y-56.1
X119.0Y-75.1
X119.0Y-94.1
X119.0Y-113.1
X119.0Y-132.1
X133.0Y-58.2
X133.0Y-77.2
X133.0Y-96.2
X133.0Y-115.2
X133.0Y-134.2
X138.0Y-56.1
X138.0Y-75.1
X138.0Y-94.1
X138.0Y-113.1
X138.0Y-132.1
M30
