%TF.GenerationSoftware,KiCad,Pcbnew,9.0.2*%
%TF.CreationDate,2026-01-24T20:07:03+01:00*%
%TF.ProjectId,Keymodule,4b65796d-6f64-4756-9c65-2e6b69636164,rev?*%
%TF.SameCoordinates,Original*%
%TF.FileFunction,Soldermask,Bot*%
%TF.FilePolarity,Negative*%
%FSLAX46Y46*%
G04 Gerber Fmt 4.6, Leading zero omitted, Abs format (unit mm)*
G04 Created by KiCad (PCBNEW 9.0.2) date 2026-01-24 20:07:03*
%MOMM*%
%LPD*%
G01*
G04 APERTURE LIST*
%ADD10C,2.200000*%
%ADD11R,1.000000X1.000000*%
%ADD12C,1.000000*%
%ADD13R,1.700000X1.700000*%
%ADD14C,1.700000*%
%ADD15C,1.900000*%
%ADD16C,3.400000*%
%ADD17C,2.000000*%
G04 APERTURE END LIST*
D10*
%TO.C,L3*%
X100000000Y-66700000D03*
%TD*%
%TO.C,L11*%
X62000000Y-104700000D03*
%TD*%
D11*
%TO.C,J3*%
X72100000Y-101100000D03*
D12*
X72100000Y-99830000D03*
X72100000Y-98560000D03*
%TD*%
D11*
%TO.C,J5*%
X139600000Y-109500000D03*
%TD*%
D10*
%TO.C,L19*%
X119000000Y-123700000D03*
%TD*%
%TO.C,L7*%
X81000000Y-85700000D03*
%TD*%
%TO.C,L24*%
X119000000Y-142700000D03*
%TD*%
%TO.C,L14*%
X119000000Y-104700000D03*
%TD*%
%TO.C,L20*%
X138200000Y-123500000D03*
%TD*%
%TO.C,L13*%
X100000000Y-104700000D03*
%TD*%
%TO.C,L15*%
X138000000Y-104700000D03*
%TD*%
%TO.C,L4*%
X119000000Y-66700000D03*
%TD*%
%TO.C,L18*%
X100000000Y-123700000D03*
%TD*%
D11*
%TO.C,J4*%
X139600000Y-90500000D03*
%TD*%
D10*
%TO.C,L8*%
X100000000Y-85700000D03*
%TD*%
D11*
%TO.C,J1*%
X60400000Y-90500000D03*
%TD*%
D10*
%TO.C,L17*%
X81000000Y-123700000D03*
%TD*%
%TO.C,L22*%
X81200000Y-142500000D03*
%TD*%
%TO.C,L10*%
X138000000Y-85700000D03*
%TD*%
%TO.C,L21*%
X62200000Y-142500000D03*
%TD*%
%TO.C,L23*%
X100000000Y-142700000D03*
%TD*%
%TO.C,L9*%
X119000000Y-85700000D03*
%TD*%
D13*
%TO.C,J11*%
X33070000Y-150750000D03*
D14*
X33070000Y-153290000D03*
X33070000Y-155830000D03*
X33070000Y-158370000D03*
X33070000Y-160910000D03*
%TD*%
D10*
%TO.C,L6*%
X62000000Y-85700000D03*
%TD*%
%TO.C,L5*%
X138000000Y-66700000D03*
%TD*%
%TO.C,L2*%
X81000000Y-66700000D03*
%TD*%
%TO.C,L12*%
X81000000Y-104700000D03*
%TD*%
%TO.C,L1*%
X62000000Y-66700000D03*
%TD*%
%TO.C,L16*%
X62000000Y-123700000D03*
%TD*%
%TO.C,L25*%
X138000000Y-142700000D03*
%TD*%
D11*
%TO.C,J2*%
X60400000Y-109500000D03*
%TD*%
D15*
%TO.C,M_SW18*%
X86500000Y-100000000D03*
D16*
X81000000Y-100000000D03*
D15*
X75500000Y-100000000D03*
D17*
X81000000Y-94100000D03*
X76000000Y-96200000D03*
%TD*%
D15*
%TO.C,M_SW2*%
X143500000Y-81000000D03*
D16*
X138000000Y-81000000D03*
D15*
X132500000Y-81000000D03*
D17*
X138000000Y-75100000D03*
X133000000Y-77200000D03*
%TD*%
D15*
%TO.C,M_SW21*%
X67500000Y-62000000D03*
D16*
X62000000Y-62000000D03*
D15*
X56500000Y-62000000D03*
D17*
X62000000Y-56100000D03*
X57000000Y-58200000D03*
%TD*%
D15*
%TO.C,M_SW20*%
X86500000Y-138000000D03*
D16*
X81000000Y-138000000D03*
D15*
X75500000Y-138000000D03*
D17*
X81000000Y-132100000D03*
X76000000Y-134200000D03*
%TD*%
D15*
%TO.C,M_SW9*%
X124500000Y-119000000D03*
D16*
X119000000Y-119000000D03*
D15*
X113500000Y-119000000D03*
D17*
X119000000Y-113100000D03*
X114000000Y-115200000D03*
%TD*%
D15*
%TO.C,M_SW6*%
X124500000Y-62000000D03*
D16*
X119000000Y-62000000D03*
D15*
X113500000Y-62000000D03*
D17*
X119000000Y-56100000D03*
X114000000Y-58200000D03*
%TD*%
D15*
%TO.C,M_SW5*%
X143500000Y-138000000D03*
D16*
X138000000Y-138000000D03*
D15*
X132500000Y-138000000D03*
D17*
X138000000Y-132100000D03*
X133000000Y-134200000D03*
%TD*%
D15*
%TO.C,M_SW19*%
X86500000Y-119000000D03*
D16*
X81000000Y-119000000D03*
D15*
X75500000Y-119000000D03*
D17*
X81000000Y-113100000D03*
X76000000Y-115200000D03*
%TD*%
D15*
%TO.C,M_SW8*%
X124500000Y-100000000D03*
D16*
X119000000Y-100000000D03*
D15*
X113500000Y-100000000D03*
D17*
X119000000Y-94100000D03*
X114000000Y-96200000D03*
%TD*%
D15*
%TO.C,M_SW12*%
X105500000Y-81000000D03*
D16*
X100000000Y-81000000D03*
D15*
X94500000Y-81000000D03*
D17*
X100000000Y-75100000D03*
X95000000Y-77200000D03*
%TD*%
D15*
%TO.C,M_SW23*%
X67500000Y-100000000D03*
D16*
X62000000Y-100000000D03*
D15*
X56500000Y-100000000D03*
D17*
X62000000Y-94100000D03*
X57000000Y-96200000D03*
%TD*%
D15*
%TO.C,M_SW11*%
X105500000Y-62000000D03*
D16*
X100000000Y-62000000D03*
D15*
X94500000Y-62000000D03*
D17*
X100000000Y-56100000D03*
X95000000Y-58200000D03*
%TD*%
D15*
%TO.C,M_SW16*%
X86500000Y-62000000D03*
D16*
X81000000Y-62000000D03*
D15*
X75500000Y-62000000D03*
D17*
X81000000Y-56100000D03*
X76000000Y-58200000D03*
%TD*%
D15*
%TO.C,M_SW7*%
X124500000Y-81000000D03*
D16*
X119000000Y-81000000D03*
D15*
X113500000Y-81000000D03*
D17*
X119000000Y-75100000D03*
X114000000Y-77200000D03*
%TD*%
D15*
%TO.C,M_SW3*%
X143500000Y-100000000D03*
D16*
X138000000Y-100000000D03*
D15*
X132500000Y-100000000D03*
D17*
X138000000Y-94100000D03*
X133000000Y-96200000D03*
%TD*%
D15*
%TO.C,M_SW24*%
X67500000Y-119000000D03*
D16*
X62000000Y-119000000D03*
D15*
X56500000Y-119000000D03*
D17*
X62000000Y-113100000D03*
X57000000Y-115200000D03*
%TD*%
D15*
%TO.C,M_SW14*%
X105500000Y-119000000D03*
D16*
X100000000Y-119000000D03*
D15*
X94500000Y-119000000D03*
D17*
X100000000Y-113100000D03*
X95000000Y-115200000D03*
%TD*%
D11*
%TO.C,J6*%
X128200000Y-101740000D03*
D12*
X128200000Y-100470000D03*
X128200000Y-99200000D03*
%TD*%
D15*
%TO.C,M_SW25*%
X67500000Y-138000000D03*
D16*
X62000000Y-138000000D03*
D15*
X56500000Y-138000000D03*
D17*
X62000000Y-132100000D03*
X57000000Y-134200000D03*
%TD*%
D15*
%TO.C,M_SW15*%
X105500000Y-138000000D03*
D16*
X100000000Y-138000000D03*
D15*
X94500000Y-138000000D03*
D17*
X100000000Y-132100000D03*
X95000000Y-134200000D03*
%TD*%
D15*
%TO.C,M_SW4*%
X143500000Y-119000000D03*
D16*
X138000000Y-119000000D03*
D15*
X132500000Y-119000000D03*
D17*
X138000000Y-113100000D03*
X133000000Y-115200000D03*
%TD*%
D15*
%TO.C,M_SW13*%
X105500000Y-100000000D03*
D16*
X100000000Y-100000000D03*
D15*
X94500000Y-100000000D03*
D17*
X100000000Y-94100000D03*
X95000000Y-96200000D03*
%TD*%
D15*
%TO.C,M_SW1*%
X143500000Y-62000000D03*
D16*
X138000000Y-62000000D03*
D15*
X132500000Y-62000000D03*
D17*
X138000000Y-56100000D03*
X133000000Y-58200000D03*
%TD*%
D15*
%TO.C,M_SW10*%
X124500000Y-138000000D03*
D16*
X119000000Y-138000000D03*
D15*
X113500000Y-138000000D03*
D17*
X119000000Y-132100000D03*
X114000000Y-134200000D03*
%TD*%
D15*
%TO.C,M_SW17*%
X86500000Y-81000000D03*
D16*
X81000000Y-81000000D03*
D15*
X75500000Y-81000000D03*
D17*
X81000000Y-75100000D03*
X76000000Y-77200000D03*
%TD*%
D15*
%TO.C,M_SW22*%
X67500000Y-81000000D03*
D16*
X62000000Y-81000000D03*
D15*
X56500000Y-81000000D03*
D17*
X62000000Y-75100000D03*
X57000000Y-77200000D03*
%TD*%
M02*
