%TF.GenerationSoftware,KiCad,Pcbnew,9.0.2*%
%TF.CreationDate,2026-01-24T20:07:03+01:00*%
%TF.ProjectId,Keymodule,4b65796d-6f64-4756-9c65-2e6b69636164,rev?*%
%TF.SameCoordinates,Original*%
%TF.FileFunction,Copper,L2,Inr*%
%TF.FilePolarity,Positive*%
%FSLAX46Y46*%
G04 Gerber Fmt 4.6, Leading zero omitted, Abs format (unit mm)*
G04 Created by KiCad (PCBNEW 9.0.2) date 2026-01-24 20:07:03*
%MOMM*%
%LPD*%
G01*
G04 APERTURE LIST*
%TA.AperFunction,ComponentPad*%
%ADD10R,1.000000X1.000000*%
%TD*%
%TA.AperFunction,ComponentPad*%
%ADD11C,1.000000*%
%TD*%
%TA.AperFunction,ComponentPad*%
%ADD12R,1.700000X1.700000*%
%TD*%
%TA.AperFunction,ComponentPad*%
%ADD13C,1.700000*%
%TD*%
%TA.AperFunction,ComponentPad*%
%ADD14C,2.000000*%
%TD*%
%TA.AperFunction,ViaPad*%
%ADD15C,0.350000*%
%TD*%
%TA.AperFunction,ViaPad*%
%ADD16C,0.600000*%
%TD*%
%TA.AperFunction,ViaPad*%
%ADD17C,1.000000*%
%TD*%
%TA.AperFunction,Conductor*%
%ADD18C,0.200000*%
%TD*%
G04 APERTURE END LIST*
D10*
%TO.N,potSig*%
%TO.C,J3*%
X72100000Y-101100000D03*
D11*
%TO.N,SDA*%
X72100000Y-99830000D03*
%TO.N,SCL*%
X72100000Y-98560000D03*
%TD*%
D10*
%TO.N,GND*%
%TO.C,J5*%
X139600000Y-109500000D03*
%TD*%
%TO.N,+5V*%
%TO.C,J4*%
X139600000Y-90500000D03*
%TD*%
%TO.N,+5V*%
%TO.C,J1*%
X60400000Y-90500000D03*
%TD*%
D12*
%TO.N,GND*%
%TO.C,J11*%
X33070000Y-150750000D03*
D13*
%TO.N,unconnected-(J11-Pin_2-Pad2)*%
X33070000Y-153290000D03*
%TO.N,Net-(J11-Pin_3)*%
X33070000Y-155830000D03*
%TO.N,Net-(J11-Pin_4)*%
X33070000Y-158370000D03*
%TO.N,+5V*%
X33070000Y-160910000D03*
%TD*%
D10*
%TO.N,GND*%
%TO.C,J2*%
X60400000Y-109500000D03*
%TD*%
D14*
%TO.N,Net-(D20-K)*%
%TO.C,M_SW18*%
X81000000Y-94100000D03*
%TO.N,col2*%
X76000000Y-96200000D03*
%TD*%
%TO.N,Net-(D4-K)*%
%TO.C,M_SW2*%
X138000000Y-75100000D03*
%TO.N,col1*%
X133000000Y-77200000D03*
%TD*%
%TO.N,Net-(D23-K)*%
%TO.C,M_SW21*%
X62000000Y-56100000D03*
%TO.N,col0*%
X57000000Y-58200000D03*
%TD*%
%TO.N,Net-(D22-K)*%
%TO.C,M_SW20*%
X81000000Y-132100000D03*
%TO.N,col4*%
X76000000Y-134200000D03*
%TD*%
%TO.N,Net-(D11-K)*%
%TO.C,M_SW9*%
X119000000Y-113100000D03*
%TO.N,col3*%
X114000000Y-115200000D03*
%TD*%
%TO.N,Net-(D8-K)*%
%TO.C,M_SW6*%
X119000000Y-56100000D03*
%TO.N,col0*%
X114000000Y-58200000D03*
%TD*%
%TO.N,Net-(D7-K)*%
%TO.C,M_SW5*%
X138000000Y-132100000D03*
%TO.N,col4*%
X133000000Y-134200000D03*
%TD*%
%TO.N,Net-(D21-K)*%
%TO.C,M_SW19*%
X81000000Y-113100000D03*
%TO.N,col3*%
X76000000Y-115200000D03*
%TD*%
%TO.N,Net-(D10-K)*%
%TO.C,M_SW8*%
X119000000Y-94100000D03*
%TO.N,col2*%
X114000000Y-96200000D03*
%TD*%
%TO.N,Net-(D14-K)*%
%TO.C,M_SW12*%
X100000000Y-75100000D03*
%TO.N,col1*%
X95000000Y-77200000D03*
%TD*%
%TO.N,Net-(D25-K)*%
%TO.C,M_SW23*%
X62000000Y-94100000D03*
%TO.N,col2*%
X57000000Y-96200000D03*
%TD*%
%TO.N,Net-(D13-K)*%
%TO.C,M_SW11*%
X100000000Y-56100000D03*
%TO.N,col0*%
X95000000Y-58200000D03*
%TD*%
%TO.N,Net-(D18-K)*%
%TO.C,M_SW16*%
X81000000Y-56100000D03*
%TO.N,col0*%
X76000000Y-58200000D03*
%TD*%
%TO.N,Net-(D9-K)*%
%TO.C,M_SW7*%
X119000000Y-75100000D03*
%TO.N,col1*%
X114000000Y-77200000D03*
%TD*%
%TO.N,Net-(D5-K)*%
%TO.C,M_SW3*%
X138000000Y-94100000D03*
%TO.N,col2*%
X133000000Y-96200000D03*
%TD*%
%TO.N,Net-(D26-K)*%
%TO.C,M_SW24*%
X62000000Y-113100000D03*
%TO.N,col3*%
X57000000Y-115200000D03*
%TD*%
%TO.N,Net-(D16-K)*%
%TO.C,M_SW14*%
X100000000Y-113100000D03*
%TO.N,col3*%
X95000000Y-115200000D03*
%TD*%
D10*
%TO.N,potSig*%
%TO.C,J6*%
X128200000Y-101740000D03*
D11*
%TO.N,SDA*%
X128200000Y-100470000D03*
%TO.N,SCL*%
X128200000Y-99200000D03*
%TD*%
D14*
%TO.N,Net-(D50-K)*%
%TO.C,M_SW25*%
X62000000Y-132100000D03*
%TO.N,col4*%
X57000000Y-134200000D03*
%TD*%
%TO.N,Net-(D17-K)*%
%TO.C,M_SW15*%
X100000000Y-132100000D03*
%TO.N,col4*%
X95000000Y-134200000D03*
%TD*%
%TO.N,Net-(D6-K)*%
%TO.C,M_SW4*%
X138000000Y-113100000D03*
%TO.N,col3*%
X133000000Y-115200000D03*
%TD*%
%TO.N,Net-(D15-K)*%
%TO.C,M_SW13*%
X100000000Y-94100000D03*
%TO.N,col2*%
X95000000Y-96200000D03*
%TD*%
%TO.N,Net-(D3-K)*%
%TO.C,M_SW1*%
X138000000Y-56100000D03*
%TO.N,col0*%
X133000000Y-58200000D03*
%TD*%
%TO.N,Net-(D12-K)*%
%TO.C,M_SW10*%
X119000000Y-132100000D03*
%TO.N,col4*%
X114000000Y-134200000D03*
%TD*%
%TO.N,Net-(D19-K)*%
%TO.C,M_SW17*%
X81000000Y-75100000D03*
%TO.N,col1*%
X76000000Y-77200000D03*
%TD*%
%TO.N,Net-(D24-K)*%
%TO.C,M_SW22*%
X62000000Y-75100000D03*
%TO.N,col1*%
X57000000Y-77200000D03*
%TD*%
D15*
%TO.N,*%
X40200000Y-79000000D03*
X40350000Y-77750000D03*
X39280000Y-77750000D03*
X37140000Y-77750000D03*
X38210000Y-77750000D03*
X40000000Y-77000000D03*
X41400000Y-79000000D03*
X36600000Y-77000000D03*
X39150000Y-77000000D03*
X37800000Y-79000000D03*
X36600000Y-78300000D03*
X41420000Y-77750000D03*
X39000000Y-79000000D03*
X38740000Y-78300000D03*
X40880000Y-78300000D03*
X36600000Y-79000000D03*
X39810000Y-78300000D03*
X37450000Y-77000000D03*
X38300000Y-77000000D03*
X37670000Y-78300000D03*
D16*
%TO.N,+5V*%
X114900000Y-68500000D03*
X96600000Y-67100000D03*
X77400000Y-68501000D03*
X71300000Y-87600000D03*
X60800000Y-68900000D03*
%TO.N,GND*%
X104000000Y-66000000D03*
X71000000Y-67200000D03*
X91464156Y-83034315D03*
X74100000Y-64700000D03*
X107900000Y-83800000D03*
D17*
X109500000Y-108100000D03*
D16*
X83700000Y-64700000D03*
D17*
X109500000Y-77400000D03*
D16*
X83100000Y-83700000D03*
X118800000Y-64700000D03*
X88211465Y-84589950D03*
X100300000Y-69700000D03*
X88600000Y-59800000D03*
X58800000Y-69700000D03*
X97200000Y-73600000D03*
X96000000Y-68000000D03*
%TO.N,+1V1*%
X85400000Y-78042422D03*
%TO.N,row0*%
X142000000Y-130600000D03*
X142000000Y-57200000D03*
X142000000Y-88300000D03*
X142000000Y-114200000D03*
X142000000Y-95200000D03*
D15*
X83575000Y-71600000D03*
D16*
X141800000Y-73400000D03*
%TO.N,row1*%
X106400000Y-79300000D03*
D15*
X83594742Y-70819742D03*
D16*
X123000000Y-95200000D03*
X123000000Y-76200000D03*
X123000000Y-57200000D03*
X123000000Y-130600000D03*
X123000000Y-114200000D03*
X123000000Y-88500000D03*
D15*
%TO.N,row2*%
X84226000Y-70400000D03*
D16*
X104000000Y-111600000D03*
X104000000Y-76700000D03*
X104000000Y-95200000D03*
X104000000Y-114200000D03*
X104000000Y-57200000D03*
X104000000Y-130600000D03*
%TO.N,row3*%
X85000000Y-114200000D03*
X76100000Y-74900000D03*
X85000000Y-130600000D03*
X85000000Y-111600000D03*
D15*
X83800000Y-69800000D03*
D16*
X85000000Y-95200000D03*
X85000000Y-57200000D03*
%TO.N,row4*%
X66000000Y-57200000D03*
X66000000Y-95200000D03*
X66000000Y-76200000D03*
X66000000Y-114200000D03*
X66000000Y-130600000D03*
X66000000Y-111600000D03*
D15*
X83600000Y-68800000D03*
D16*
%TO.N,Net-(J11-Pin_3)*%
X96700000Y-69000000D03*
%TO.N,Net-(J11-Pin_4)*%
X96700000Y-70000000D03*
%TO.N,SCL*%
X87300000Y-79000000D03*
%TO.N,SDA*%
X86500000Y-79000000D03*
%TO.N,Net-(L2-DOUT)*%
X84800000Y-66100000D03*
X96300000Y-66000000D03*
%TO.N,Net-(L3-DOUT)*%
X103800000Y-67500000D03*
X115200000Y-65950000D03*
%TO.N,Net-(L7-DOUT)*%
X85301000Y-86450000D03*
X96000000Y-85700000D03*
D15*
%TO.N,col0*%
X87300000Y-68100000D03*
%TO.N,col1*%
X86600000Y-67900000D03*
%TO.N,col2*%
X85900000Y-67700000D03*
%TO.N,col3*%
X85200000Y-67600000D03*
%TO.N,col4*%
X84400000Y-68000000D03*
%TD*%
D18*
%TO.N,row0*%
X142000000Y-95200000D02*
X142000000Y-114200000D01*
X142000000Y-57200000D02*
X142000000Y-76200000D01*
X142000000Y-76200000D02*
X142000000Y-88300000D01*
X142000000Y-114200000D02*
X142000000Y-130600000D01*
%TO.N,row1*%
X123000000Y-76200000D02*
X123000000Y-88500000D01*
X123000000Y-95200000D02*
X123000000Y-114200000D01*
X123000000Y-76200000D02*
X123000000Y-57200000D01*
X123000000Y-114200000D02*
X123000000Y-130600000D01*
%TO.N,row2*%
X104000000Y-95200000D02*
X104000000Y-111600000D01*
X104000000Y-95200000D02*
X104000000Y-76700000D01*
X107500000Y-73200000D02*
X104000000Y-76700000D01*
X107500000Y-60700000D02*
X107500000Y-73200000D01*
X104000000Y-114200000D02*
X104000000Y-130600000D01*
X104000000Y-57200000D02*
X107500000Y-60700000D01*
%TO.N,row3*%
X83100000Y-77500001D02*
X84300000Y-78700001D01*
X76100000Y-74400000D02*
X77000000Y-73500000D01*
X83100000Y-59100000D02*
X85000000Y-57200000D01*
X83100000Y-72900000D02*
X83100000Y-77500001D01*
X76100000Y-74900000D02*
X76100000Y-74400000D01*
X77000000Y-73500000D02*
X82600000Y-73500000D01*
X82600000Y-73500000D02*
X83100000Y-73000000D01*
X84300000Y-78700001D02*
X84300000Y-94500000D01*
X83100000Y-72900000D02*
X83100000Y-70100000D01*
X83400000Y-69800000D02*
X83100000Y-70100000D01*
X85000000Y-114200000D02*
X85000000Y-130600000D01*
X84300000Y-94500000D02*
X85000000Y-95200000D01*
X83100000Y-73000000D02*
X83100000Y-72900000D01*
X83100000Y-70100000D02*
X83100000Y-59100000D01*
X83800000Y-69800000D02*
X83400000Y-69800000D01*
%TO.N,row4*%
X66000000Y-95200000D02*
X66000000Y-111600000D01*
X66000000Y-114200000D02*
X66000000Y-130600000D01*
X66000000Y-76200000D02*
X66000000Y-94200000D01*
X66000000Y-94200000D02*
X65800000Y-94400000D01*
X66000000Y-57200000D02*
X66000000Y-76200000D01*
%TO.N,col0*%
X87300000Y-68100000D02*
X87300000Y-65900000D01*
X87300000Y-65900000D02*
X95000000Y-58200000D01*
%TO.N,col1*%
X86600000Y-68800000D02*
X95000000Y-77200000D01*
X86600000Y-67900000D02*
X86600000Y-68800000D01*
%TO.N,col2*%
X85900000Y-74239892D02*
X95000000Y-83339892D01*
X85900000Y-67700000D02*
X85900000Y-74239892D01*
X95000000Y-83339892D02*
X95000000Y-96200000D01*
%TO.N,col3*%
X85200000Y-74300000D02*
X92900000Y-82000000D01*
X92900000Y-82000000D02*
X92900000Y-113100000D01*
X85200000Y-67600000D02*
X85200000Y-74300000D01*
X92900000Y-113100000D02*
X95000000Y-115200000D01*
%TO.N,col4*%
X84400000Y-68000000D02*
X84701000Y-68301000D01*
X92499000Y-131699000D02*
X95000000Y-134200000D01*
X84701000Y-94051057D02*
X92499000Y-101849057D01*
X84701000Y-68301000D02*
X84701000Y-94051057D01*
X92499000Y-101849057D02*
X92499000Y-131699000D01*
%TD*%
M02*
