<?xml version="1.0" encoding="UTF-8"?>
<svg id="Layer_2" data-name="Layer 2" xmlns="http://www.w3.org/2000/svg" viewBox="0 0 64.54 66.24">
  <defs>
    <style>
      .cls-1, .cls-2 {
        fill: #231f20;
      }

      .cls-3 {
        fill: none;
        stroke-width: .85px;
      }

      .cls-3, .cls-2 {
        stroke: #231f20;
        stroke-miterlimit: 10;
      }

      .cls-2 {
        stroke-width: .57px;
      }
    </style>
  </defs>
  <g id="Layer_1-2" data-name="Layer 1">
    <g>
      <path class="cls-3" d="M19.37,62.93c-.47,1.24-1.28.11-1.79.4s-.31,1.12-.66,1.11c-.74,0-1.87.02-1.87.02l-1.21,1.23s-3.69-2.53-5.8-5.15c-1.61-1.99-2.5-3.01-4.07-6.04-1.47-3.12-2.42-9.14-2.42-9.14,0,0-.99-10.14-.32-13.3s.94-2.94.94-2.94c0,0-1.14-1.57-1.62-4.48s.31-5.99,1.79-7.56,4.71-3.71,6.75-2.97,4.4,2.16,5.92,2.33,5.96.45,8.75-.57,5.17-2.34,6.68-3.75,1.48-1.81,2.42-3.21.46-.22,2.14-.36c.38-.07-.53-1.36,2.59-2.17s4.43-.3,5.34-.04,4.23,1.73,5.13,3.65c.75,1.6,1.7,3.83,1.7,3.83,0,0,5.92,5.41,7.02,8.86,1.33,3.46,2.89,7.16,3.08,9.84.2,2.69.25,10.13-.42,12.27-.67,2.14-3.87,9.79-3.87,9.79l-.93-.36-1.75.84-1.04-.34-3.02,1.01-.21-1.72s-3.18,1.56-4.2,2.35-6.32,2.82-7.81,3.26-6.48,1.32-8.62,1.39-6.77.02-7.38-.42-.78,1.08-1.25,2.32Z"/>
      <path class="cls-1" d="M5.91,19.27c-.49.62-.48,1.04-.08,1.3s1.13.6,1.55.17.71-.9.41-1.48-.61-.69-1.06-.56-.81.58-.81.58Z"/>
      <path class="cls-1" d="M41.08,10.12c-.56.18-.66.57-.72.86s.21.81.5.93.45.36,1.04.15.81-.46.77-.97-.32-.81-.64-.88-.96-.09-.96-.09Z"/>
      <path class="cls-2" d="M22.74,18.51c.48-.45,3.62-1.08,3.62-1.08,0,0,1.01,3.14-1.26,3.55s-2.84-2.03-2.36-2.48Z"/>
      <path class="cls-3" d="M9.58,8.52l.55.64s2.5,4.15,5.22,4.87,4.8.95,7.81,0c3.02-.95,5.15-2.31,6.56-4.67s1.49-4.72,1.28-6.23-.41-.99-.7-1.74-.02-.95-.02-.95h-1.01s-.3,1.24-.3,1.24c0,0-2.13,1.83-2.44,2.25s-2.82,3.12-3.61,3.71-2.35,1.68-4.61,1.87-5.53-.83-6.19-.97-2.1-.9-2.1-.9l-.44.89Z"/>
      <polyline class="cls-3" points="4.79 56.02 2.2 60.78 3.62 61.04 4.08 63.12 6 62.82 7.04 64.25 9.58 62.2"/>
      <path class="cls-3" d="M59.75,44.6c1.01.49,3.79,1.73,4.28,2.04.02.04.05.12.07.16-.04.47-.83,1.43-.61,2.04.06.35.31.81.1,1.14-.47.58-1.78.62-1.87,1.47-.03.5.04.92-.43.82-1.1-.14-3.81-.46-4.51-.56"/>
      <path class="cls-3" d="M16.46,54.82s3.67,5.93,3.04,7.95"/>
      <path class="cls-3" d="M50.14,45s-1.33,7.96-1.29,10.73"/>
    </g>
  </g>
</svg>